<svg width="155" height="155" viewBox="0 0 155 155" fill="none" xmlns="http://www.w3.org/2000/svg">
<path fill-rule="evenodd" clip-rule="evenodd" d="M155 77.5C155 120.302 120.302 155 77.5 155C34.6979 155 0 120.302 0 77.5C0 34.6979 34.6979 0 77.5 0C120.302 0 155 34.6979 155 77.5ZM126.583 77.5C126.583 104.608 104.608 126.583 77.5 126.583C50.392 126.583 28.4167 104.608 28.4167 77.5C28.4167 50.392 50.392 28.4167 77.5 28.4167C104.608 28.4167 126.583 50.392 126.583 77.5Z" fill="#E1E4E8"/>
<mask id="mask0_1324_19985" style="mask-type:luminance" maskUnits="userSpaceOnUse" x="0" y="0" width="155" height="155">
<path fill-rule="evenodd" clip-rule="evenodd" d="M155 77.5C155 120.302 120.302 155 77.5 155C34.6979 155 0 120.302 0 77.5C0 34.6979 34.6979 0 77.5 0C120.302 0 155 34.6979 155 77.5ZM126.583 77.5C126.583 104.608 104.608 126.583 77.5 126.583C50.392 126.583 28.4167 104.608 28.4167 77.5C28.4167 50.392 50.392 28.4167 77.5 28.4167C104.608 28.4167 126.583 50.392 126.583 77.5Z" fill="white"/>
</mask>
<g mask="url(#mask0_1324_19985)">
<rect width="155" height="155" fill="#FFD56D"/>
<mask id="mask1_1324_19985" style="mask-type:luminance" maskUnits="userSpaceOnUse" x="-12" y="77" width="90" height="86">
<path fill-rule="evenodd" clip-rule="evenodd" d="M54.2872 162.369L5.11123 137.836L-11.2773 77.9793L77.5001 77.5L54.2872 162.369Z" fill="white"/>
</mask>
<g mask="url(#mask1_1324_19985)">
<rect x="-0.480469" y="-0.5" width="155" height="155" fill="#4393FF"/>
</g>
<mask id="mask2_1324_19985" style="mask-type:luminance" maskUnits="userSpaceOnUse" x="50" y="-12" width="116" height="182">
<path fill-rule="evenodd" clip-rule="evenodd" d="M77.5437 -11.7695L77.5008 77.499L50.6953 169.192C50.6953 169.192 137.009 152 156.879 121.291C176.749 90.5826 156.879 8.29342 156.879 8.29342L77.5437 -11.7695Z" fill="white"/>
</mask>
<g mask="url(#mask2_1324_19985)">
<rect x="-0.480469" y="0.230469" width="155" height="155" fill="#1CCAB8"/>
</g>
<path opacity="0.3" fill-rule="evenodd" clip-rule="evenodd" d="M77.5 131.75C107.461 131.75 131.75 107.461 131.75 77.5C131.75 47.5386 107.461 23.25 77.5 23.25C47.5386 23.25 23.25 47.5386 23.25 77.5C23.25 107.461 47.5386 131.75 77.5 131.75Z" fill="white"/>
</g>
</svg>
