<svg width="390" height="297" viewBox="0 0 390 297" fill="none" xmlns="http://www.w3.org/2000/svg">
<path d="M376.598 0H13.4024C6.00082 0 0 6.00152 0 13.4057V283.519C0 290.923 6.00082 296.925 13.4024 296.925H376.597C383.999 296.925 389.999 290.923 389.999 283.519V13.4057C390 6.00152 383.999 0 376.598 0Z" fill="#1685FB"/>
<path d="M390 283.515V13.4065C390 5.99695 383.997 0 376.597 0H355.018C362.418 0 368.421 5.99695 368.421 13.4065V283.514C368.421 290.923 362.418 296.92 355.018 296.92H376.597C383.997 296.92 390 290.924 390 283.515Z" fill="#4C60E1"/>
<path d="M390 58.0518V13.4065C390 5.99695 383.997 0 376.597 0H13.4032C6.00311 0.000761905 0 5.99771 0 13.4065V58.0518H390Z" fill="#E3F4FF"/>
<path d="M390 58.0518V13.4065C390 5.99695 383.997 0 376.597 0H355.018C362.418 0 368.421 5.99695 368.421 13.4065V58.0518H390Z" fill="#BDDFF4"/>
<path d="M75.416 34.8589H75.3421C72.0918 34.8589 69.457 32.2235 69.457 28.9724C69.457 25.7214 72.0918 23.0859 75.3421 23.0859C78.5923 23.0859 81.2644 25.7214 81.2644 28.9724C81.2644 32.2235 78.6662 34.8589 75.416 34.8589Z" fill="#54DDAC"/>
<path d="M56.1338 34.9149C52.9118 34.9149 50.2838 32.3198 50.2503 29.0893C50.2161 25.8383 52.8234 23.1754 56.0737 23.1412C59.2889 23.0977 62.0227 25.7149 62.057 28.9659C62.0913 32.2177 59.5205 34.8798 56.2702 34.9141L56.1963 34.9149C56.1757 34.9149 56.1544 34.9149 56.1338 34.9149Z" fill="#FDC142"/>
<path d="M36.9249 34.969C33.7028 34.969 31.0741 32.374 31.0413 29.1435C31.0078 25.8917 33.6152 23.2288 36.8654 23.1953C36.886 23.1953 36.9073 23.1953 36.9271 23.1953C40.15 23.1953 42.8145 25.7904 42.848 29.0208C42.8815 32.2719 40.3115 34.9347 37.0604 34.9683L36.9865 34.969C36.9667 34.969 36.9454 34.969 36.9249 34.969Z" fill="#FC3E81"/>
<path d="M131.659 34.9722H111.235C107.984 34.9722 105.35 32.3367 105.35 29.0857C105.35 25.8346 107.984 23.1992 111.235 23.1992H131.659C134.909 23.1992 137.544 25.8346 137.544 29.0857C137.544 32.3367 134.909 34.9722 131.659 34.9722Z" fill="#BDDFF4"/>
<path d="M126.658 141.482H121.552V134.528C121.552 128.729 116.846 124.029 111.04 124.029C105.235 124.029 100.528 128.729 100.528 134.528V141.482H75.998L93.662 111.617C96.6144 106.624 94.9557 100.187 89.9568 97.2383C84.958 94.289 78.5123 95.9463 75.5599 100.938L48.529 146.641C46.6098 149.887 46.5801 153.911 48.4506 157.185C50.3218 160.458 53.806 162.479 57.5805 162.479H100.529V194.118C100.529 199.916 105.235 204.616 111.041 204.616C116.847 204.616 121.553 199.916 121.553 194.118V162.479H126.659C132.464 162.479 137.171 157.779 137.171 151.981C137.17 146.182 132.464 141.482 126.658 141.482Z" fill="#FD9E28"/>
<path d="M332.418 141.482H327.313V134.528C327.313 128.729 322.607 124.029 316.801 124.029C310.995 124.029 306.289 128.729 306.289 134.528V141.482H281.758L299.422 111.617C302.374 106.624 300.715 100.187 295.717 97.2383C290.718 94.289 284.272 95.9463 281.32 100.938L254.289 146.641C252.37 149.887 252.34 153.911 254.21 157.185C256.082 160.458 259.566 162.479 263.34 162.479H306.289V194.118C306.289 199.916 310.995 204.616 316.801 204.616C322.607 204.616 327.313 199.916 327.313 194.118V162.479H332.418C338.224 162.479 342.93 157.779 342.93 151.981C342.93 146.182 338.224 141.482 332.418 141.482Z" fill="#FD9E28"/>
<path fill-rule="evenodd" clip-rule="evenodd" d="M181.549 204.615H208.451C221.76 204.615 232.588 193.802 232.588 180.51V119.883C232.588 106.591 221.76 95.7773 208.451 95.7773H181.549C168.24 95.7773 157.412 106.591 157.412 119.883V180.51C157.412 193.801 168.24 204.615 181.549 204.615ZM180.368 124.035C180.368 121.096 182.763 118.704 185.705 118.704H204.294C207.237 118.704 209.632 121.096 209.632 124.035V176.358C209.632 179.297 207.237 181.688 204.294 181.688H185.705C182.763 181.688 180.368 179.297 180.368 176.358V124.035Z" fill="#FD9E28"/>
<path d="M283.274 272.469C280.011 272.469 277.328 269.823 277.328 266.56C277.328 263.297 279.936 260.652 283.199 260.652H283.274C286.537 260.652 289.182 263.297 289.182 266.56C289.182 269.823 286.537 272.469 283.274 272.469Z" fill="#E3F4FF"/>
<path d="M302.841 272.523C299.578 272.523 296.895 269.878 296.895 266.615C296.895 263.352 299.502 260.707 302.766 260.707H302.841C306.104 260.707 308.749 263.352 308.749 266.615C308.749 269.878 306.104 272.523 302.841 272.523Z" fill="#E3F4FF"/>
<path d="M322.41 272.583C322.39 272.583 322.369 272.583 322.348 272.583C319.085 272.55 316.43 269.877 316.463 266.614C316.497 263.372 319.098 260.766 322.333 260.766C322.354 260.766 322.374 260.766 322.395 260.766L322.47 260.766C325.733 260.8 328.351 263.472 328.317 266.736C328.284 269.977 325.644 272.583 322.41 272.583Z" fill="#E3F4FF"/>
<path d="M69.8367 248.205H50.2694C47.0064 248.205 44.3613 245.583 44.3613 242.349C44.3613 239.114 47.0064 236.492 50.2694 236.492H69.8367C73.0997 236.492 75.7449 239.114 75.7449 242.349C75.7449 245.583 73.0997 248.205 69.8367 248.205Z" fill="#E3F4FF"/>
<path d="M89.404 272.529H50.2694C47.0064 272.529 44.3613 269.907 44.3613 266.673C44.3613 263.438 47.0064 260.816 50.2694 260.816H89.404C92.667 260.816 95.3122 263.438 95.3122 266.673C95.3122 269.907 92.667 272.529 89.404 272.529Z" fill="#E3F4FF"/>
</svg>
