<svg width="15" height="16" viewBox="0 0 15 16" fill="none" xmlns="http://www.w3.org/2000/svg">
<path d="M14.5862 4.37145L13.2356 5.79038C13.0979 5.93504 12.8753 5.93504 12.7376 5.79038L9.48563 2.37386C9.34794 2.2292 9.34794 1.99528 9.48563 1.85061L10.8362 0.431681C11.3841 -0.143894 12.2747 -0.143894 12.8255 0.431681L14.5862 2.28152C15.137 2.8571 15.137 3.79279 14.5862 4.37145ZM8.32548 3.06948L0.632118 11.1522L0.0110246 14.8919C-0.0739364 15.3966 0.345009 15.8337 0.825478 15.7475L4.38505 15.0919L12.0784 7.00924C12.2161 6.86458 12.2161 6.63066 12.0784 6.48599L8.82645 3.06948C8.68583 2.92481 8.46317 2.92481 8.32548 3.06948ZM3.63505 10.4596C3.47392 10.2903 3.47392 10.0195 3.63505 9.85018L8.14677 5.11015C8.3079 4.94087 8.56571 4.94087 8.72684 5.11015C8.88798 5.27944 8.88798 5.5503 8.72684 5.71959L4.21513 10.4596C4.05399 10.6289 3.79618 10.6289 3.63505 10.4596ZM2.57743 13.0482H3.98368V14.1655L2.09403 14.5133L1.1829 13.556L1.51395 11.5708H2.57743V13.0482Z" fill="white"/>
</svg>
