<svg width="17" height="19" viewBox="0 0 17 19" fill="none" xmlns="http://www.w3.org/2000/svg">
<path d="M2.07923 16.8497C-0.000550788 14.6994 0.0346997 11.2801 2.11448 9.16512L9.51707 1.58627C11.0681 0 13.6061 0 15.1924 1.58627C16.7082 3.17254 16.7434 5.74583 15.1924 7.3321L8.74156 13.9239C7.68405 14.9814 5.95678 14.9814 4.93451 13.8887C3.91225 12.8312 3.9475 11.1391 4.96976 10.1169L10.0458 4.93506C10.2573 4.72356 10.6098 4.68831 10.8566 4.93506L11.6321 5.71058C11.8789 5.92208 11.8789 6.27458 11.6674 6.52134L6.59129 11.6679C6.41503 11.8442 6.41503 12.1614 6.55604 12.3377C6.73229 12.4787 6.97904 12.4787 7.12004 12.3377L13.5709 5.74583C14.2406 5.04082 14.2406 3.87755 13.5709 3.17254C12.9011 2.50278 11.8084 2.50278 11.1386 3.17254L3.736 10.7514C2.50223 11.9852 2.50223 14.0297 3.70075 15.2635C4.89926 16.4972 6.83804 16.4972 8.03655 15.2635L14.0996 9.05937C14.3111 8.84787 14.6636 8.84787 14.8751 9.05937L15.6859 9.87013C15.9327 10.0816 15.9327 10.4341 15.7212 10.6456L9.65808 16.8497C7.54305 19 4.159 18.9647 2.07923 16.8497Z" fill="#D9D9D9"/>
</svg>
