<svg width="200" height="143" viewBox="0 0 200 143" fill="none" xmlns="http://www.w3.org/2000/svg">
<path d="M99.0135 28.1605C99.0135 26.0522 100.723 24.3432 102.831 24.3432C104.939 24.3432 106.648 26.0522 106.648 28.1605V71.1578H99.0135V28.1605Z" fill="#FFE5F0"/>
<rect x="99.0135" y="71.1582" width="7.63463" height="29.9413" fill="#FFBDD8"/>
<path fill-rule="evenodd" clip-rule="evenodd" d="M99.0135 101.1H106.648V131.041H99.0135V101.1Z" fill="#FF84B7"/>
<path fill-rule="evenodd" clip-rule="evenodd" d="M99.0135 131.041L106.648 131.041V138.814C106.648 140.922 104.939 142.632 102.831 142.632C100.723 142.632 99.0135 140.922 99.0135 138.814V131.041Z" fill="#FF5DA0"/>
<path d="M192.026 4.33691C192.026 2.22867 193.735 0.519602 195.844 0.519602C197.952 0.519602 199.661 2.22867 199.661 4.33692V75.5952H192.026V4.33691Z" fill="#FFE5F0"/>
<rect x="192.026" y="75.5963" width="7.63463" height="30.1118" fill="#FFBDD8"/>
<path fill-rule="evenodd" clip-rule="evenodd" d="M192.026 105.706H199.661V124.161H192.026V105.706Z" fill="#FF84B7"/>
<path d="M192.026 124.165H199.661V138.804C199.661 140.912 197.952 142.621 195.844 142.621C193.735 142.621 192.026 140.912 192.026 138.804V124.165Z" fill="#FF5DA0"/>
<path d="M32.0044 60.2C32.0044 58.0918 33.7134 56.3827 35.8217 56.3827C37.9299 56.3827 39.639 58.0918 39.639 60.2V81.6436H32.0044V60.2Z" fill="#FFE5F0"/>
<rect x="32.0044" y="81.644" width="7.63463" height="14.4624" fill="#FFBDD8"/>
<rect x="32.0044" y="96.1069" width="7.63463" height="18.319" fill="#FF84B7"/>
<path fill-rule="evenodd" clip-rule="evenodd" d="M32.0044 114.426H39.639V138.569C39.639 140.677 37.9299 142.386 35.8217 142.386C33.7134 142.386 32.0044 140.677 32.0044 138.569V114.426Z" fill="#FF5DA0"/>
<path d="M164.022 17.4715C164.022 15.3633 165.731 13.6542 167.84 13.6542C169.948 13.6542 171.657 15.3633 171.657 17.4715V73.0717H164.022V17.4715Z" fill="#FFE5F0"/>
<rect x="164.022" y="73.0725" width="7.63463" height="25.091" fill="#FFBDD8"/>
<rect x="164.022" y="98.1658" width="7.63463" height="14.4756" fill="#FF84B7"/>
<path fill-rule="evenodd" clip-rule="evenodd" d="M164.022 112.636H171.657V138.735C171.657 140.844 169.948 142.553 167.84 142.553C165.731 142.553 164.022 140.844 164.022 138.735V112.636Z" fill="#FF5DA0"/>
<path d="M131.018 39.7011C131.018 37.5929 132.727 35.8838 134.835 35.8838C136.943 35.8838 138.653 37.5929 138.653 39.7011V67.5474H131.018V39.7011Z" fill="#FFE5F0"/>
<rect x="131.018" y="67.5483" width="7.63463" height="29.9716" fill="#FFBDD8"/>
<path fill-rule="evenodd" clip-rule="evenodd" d="M131.018 97.5172H138.653V127.489H131.018V97.5172Z" fill="#FF84B7"/>
<path d="M131.018 127.49H138.653V139.142C138.653 141.25 136.943 142.959 134.835 142.959C132.727 142.959 131.018 141.25 131.018 139.142V127.49Z" fill="#FF5DA0"/>
<path d="M0 3.81731C0 1.70907 1.70907 0 3.81732 0C5.92556 0 7.63463 1.70907 7.63463 3.81732V63.514H0V3.81731Z" fill="#FFE5F0"/>
<rect y="63.5126" width="7.63463" height="30.0601" fill="#FFBDD8"/>
<rect y="93.5753" width="7.63463" height="30.0601" fill="#FF84B7"/>
<path d="M0 123.634H7.63463V138.241C7.63463 140.349 5.92556 142.058 3.81732 142.058C1.70907 142.058 0 140.349 0 138.241V123.634Z" fill="#FF5DA0"/>
<path d="M65.0089 32.7197C65.0089 30.6115 66.7179 28.9024 68.8262 28.9024C70.9344 28.9024 72.6435 30.6115 72.6435 32.7197V79.8292H65.0089V32.7197Z" fill="#FFE5F0"/>
<path fill-rule="evenodd" clip-rule="evenodd" d="M65.0089 79.8273H72.6435V94.4056H65.0089V79.8273Z" fill="#FFBDD8"/>
<rect x="65.0089" y="94.4074" width="7.63463" height="14.5783" fill="#FF84B7"/>
<path fill-rule="evenodd" clip-rule="evenodd" d="M65.0089 108.984H72.6435V139.182C72.6435 141.291 70.9344 143 68.8262 143C66.7179 143 65.0089 141.291 65.0089 139.182V108.984Z" fill="#FF5DA0"/>
</svg>
