<svg width="40" height="40" viewBox="0 0 40 40" fill="none" xmlns="http://www.w3.org/2000/svg">
<path d="M28.628 14.4388C31.2003 16.2841 34.3514 17.3698 37.7548 17.3698V10.7974C37.1107 10.7975 36.4682 10.7301 35.8381 10.5961V15.7696C32.435 15.7696 29.2843 14.6838 26.7113 12.8387V26.2511C26.7113 32.9607 21.2915 38.3995 14.6061 38.3995C12.1117 38.3995 9.79316 37.6427 7.86719 36.3448C10.0654 38.6004 13.1309 39.9996 16.5224 39.9996C23.2081 39.9996 28.6283 34.5608 28.6283 27.851V14.4388H28.628ZM30.9924 7.808C29.6779 6.36672 28.8148 4.50413 28.628 2.44497V1.59961H26.8117C27.2689 4.21681 28.8283 6.45279 30.9924 7.808ZM12.0957 31.196C11.3612 30.2296 10.9643 29.0473 10.9661 27.8317C10.9661 24.763 13.4451 22.2749 16.5035 22.2749C17.0735 22.2747 17.6401 22.3623 18.1833 22.5353V15.816C17.5485 15.7287 16.9078 15.6916 16.2674 15.7052V20.9352C15.7238 20.7622 15.157 20.6744 14.5868 20.6749C11.5284 20.6749 9.04954 23.1628 9.04954 26.2319C9.04954 28.402 10.2886 30.2808 12.0957 31.196Z" fill="#FF004F"/>
<path d="M26.7113 12.8385C29.2842 14.6837 32.4349 15.7694 35.838 15.7694V10.596C33.9384 10.1899 32.2568 9.19368 30.9924 7.808C28.8281 6.45265 27.2688 4.21667 26.8116 1.59961H22.0406V27.8507C22.0298 30.911 19.5551 33.389 16.5032 33.389C14.7048 33.389 13.1071 32.5287 12.0952 31.196C10.2883 30.2808 9.04921 28.4019 9.04921 26.232C9.04921 23.1632 11.5281 20.675 14.5865 20.675C15.1725 20.675 15.7373 20.7666 16.2671 20.9353V15.7053C9.69917 15.8415 4.41699 21.2272 4.41699 27.8508C4.41699 31.1573 5.73238 34.1548 7.86726 36.3449C9.79324 37.6427 12.1117 38.3997 14.6062 38.3997C21.2917 38.3997 26.7114 32.9606 26.7114 26.2511V12.8385H26.7113Z" fill="black"/>
<path d="M35.8376 10.5963V9.19747C34.1246 9.20008 32.4453 8.71865 30.9919 7.80822C32.2785 9.22177 33.9726 10.1964 35.8376 10.5963ZM26.8112 1.59997C26.7676 1.34985 26.7341 1.09808 26.7108 0.845357V0H20.1234V26.2514C20.1128 29.3113 17.6382 31.7893 14.5861 31.7893C13.69 31.7893 12.844 31.5758 12.0947 31.1965C13.1066 32.5291 14.7043 33.3893 16.5027 33.3893C19.5543 33.3893 22.0295 30.9115 22.0402 27.8512V1.59997H26.8112ZM16.2669 15.7057V14.2165C15.7165 14.141 15.1615 14.1031 14.6059 14.1034C7.91986 14.1032 2.5 19.5423 2.5 26.2514C2.5 30.4575 4.6301 34.1645 7.86695 36.345C5.73206 34.155 4.41668 31.1574 4.41668 27.8511C4.41668 21.2275 9.69873 15.8419 16.2669 15.7057Z" fill="#00F2EA"/>
</svg>
