<svg width="226" height="164" viewBox="0 0 226 164" fill="none" xmlns="http://www.w3.org/2000/svg">
<path d="M102 85C102 82.7909 103.791 81 106 81C108.209 81 110 82.7909 110 85V164H102V85Z" fill="#4049FF"/>
<path fill-rule="evenodd" clip-rule="evenodd" d="M115.455 71C115.455 68.7909 117.246 67 119.455 67C121.664 67 123.455 68.7909 123.455 71V164H115.455V71Z" fill="#FF9000"/>
<path fill-rule="evenodd" clip-rule="evenodd" d="M204 80C204 77.7909 205.791 76 208 76C210.209 76 212 77.7909 212 80V164H204V80Z" fill="#4049FF"/>
<path d="M217.455 63C217.455 60.7909 219.246 59 221.455 59C223.664 59 225.455 60.7909 225.455 63V164H217.455V63Z" fill="#FF9000"/>
<path fill-rule="evenodd" clip-rule="evenodd" d="M170 102C170 99.7909 171.791 98 174 98C176.209 98 178 99.7909 178 102V164H170V102Z" fill="#4049FF"/>
<path d="M183.455 88C183.455 85.7909 185.246 84 187.455 84C189.664 84 191.455 85.7909 191.455 88V164H183.455V88Z" fill="#FF9000"/>
<path d="M34 66C34 63.7909 35.7909 62 38 62C40.2091 62 42 63.7909 42 66V164H34V66Z" fill="#4049FF"/>
<path fill-rule="evenodd" clip-rule="evenodd" d="M47.4551 47C47.4551 44.7909 49.2459 43 51.4551 43C53.6642 43 55.4551 44.7909 55.4551 47V164H47.4551V47Z" fill="#FF9000"/>
<path d="M136 30C136 27.7909 137.791 26 140 26C142.209 26 144 27.7909 144 30V164H136V30Z" fill="#4049FF"/>
<path fill-rule="evenodd" clip-rule="evenodd" d="M149.455 4C149.455 1.79086 151.246 0 153.455 0C155.664 0 157.455 1.79086 157.455 4V164H149.455V4Z" fill="#FF9000"/>
<path fill-rule="evenodd" clip-rule="evenodd" d="M0 111C0 108.791 1.79086 107 4 107C6.20914 107 8 108.791 8 111V164H0V111Z" fill="#4049FF"/>
<path d="M13.4551 84C13.4551 81.7909 15.2459 80 17.4551 80C19.6642 80 21.4551 81.7909 21.4551 84V164H13.4551V84Z" fill="#FF9000"/>
<path fill-rule="evenodd" clip-rule="evenodd" d="M68 84C68 81.7909 69.7909 80 72 80C74.2091 80 76 81.7909 76 84V164H68V84Z" fill="#4049FF"/>
<path fill-rule="evenodd" clip-rule="evenodd" d="M81.4551 57C81.4551 54.7909 83.2459 53 85.4551 53C87.6642 53 89.4551 54.7909 89.4551 57V164H81.4551V57Z" fill="#FF9000"/>
</svg>
