<svg width="24" height="24" viewBox="0 0 24 24" fill="none" xmlns="http://www.w3.org/2000/svg">
<path fill-rule="evenodd" clip-rule="evenodd" d="M7.05002 6.04987C8.36284 4.73705 10.1434 3.99951 12 3.99951C13.8566 3.99951 15.6372 4.73705 16.95 6.04987C18.2628 7.36269 19.0004 9.14326 19.0004 10.9999C19.0004 12.8565 18.2628 14.637 16.95 15.9499L12 20.8999L7.05002 15.9499C6.39993 15.2998 5.88425 14.5281 5.53242 13.6788C5.1806 12.8295 4.99951 11.9192 4.99951 10.9999C4.99951 10.0806 5.1806 9.17025 5.53242 8.32092C5.88425 7.47159 6.39993 6.69989 7.05002 6.04987ZM12 12.9999C12.5304 12.9999 13.0392 12.7892 13.4142 12.4141C13.7893 12.039 14 11.5303 14 10.9999C14 10.4694 13.7893 9.96073 13.4142 9.58566C13.0392 9.21058 12.5304 8.99987 12 8.99987C11.4696 8.99987 10.9609 9.21058 10.5858 9.58566C10.2107 9.96073 10 10.4694 10 10.9999C10 11.5303 10.2107 12.039 10.5858 12.4141C10.9609 12.7892 11.4696 12.9999 12 12.9999Z" fill="#B0BABF"/>
</svg>
