<svg width="4" height="16" viewBox="0 0 4 16" fill="none" xmlns="http://www.w3.org/2000/svg">
<path fill-rule="evenodd" clip-rule="evenodd" d="M1.59423 3.20003C2.4747 3.20003 3.18846 2.48368 3.18846 1.60002C3.18846 0.716352 2.4747 0 1.59423 0C0.713762 0 0 0.716352 0 1.60002C0 2.48368 0.713762 3.20003 1.59423 3.20003Z" fill="#757575"/>
<path fill-rule="evenodd" clip-rule="evenodd" d="M1.59423 9.60003C2.4747 9.60003 3.18846 8.88368 3.18846 8.00002C3.18846 7.11635 2.4747 6.4 1.59423 6.4C0.713762 6.4 0 7.11635 0 8.00002C0 8.88368 0.713762 9.60003 1.59423 9.60003Z" fill="#757575"/>
<path fill-rule="evenodd" clip-rule="evenodd" d="M1.59423 16C2.4747 16 3.18846 15.2837 3.18846 14.4C3.18846 13.5164 2.4747 12.8 1.59423 12.8C0.713762 12.8 0 13.5164 0 14.4C0 15.2837 0.713762 16 1.59423 16Z" fill="#757575"/>
</svg>
