<svg width="28" height="28" viewBox="0 0 28 28" fill="none" xmlns="http://www.w3.org/2000/svg">
<path d="M22.9953 8.38257C22.9815 6.85229 22.3644 5.38927 21.2782 4.31126C20.192 3.23325 18.7244 2.62731 17.194 2.62507H8.75028C8.54055 2.62237 8.33683 2.6951 8.17623 2.83001C8.01562 2.96492 7.90883 3.15303 7.87528 3.36007L4.88278 22.1288C4.86409 22.2531 4.87238 22.38 4.90711 22.5008C4.94184 22.6215 5.00218 22.7334 5.08403 22.8288C5.16536 22.9265 5.26697 23.0052 5.38181 23.0596C5.49665 23.114 5.62196 23.1428 5.74903 23.1438H9.36278L9.17028 24.3601C9.14984 24.4861 9.15724 24.6151 9.19196 24.738C9.22668 24.8609 9.28788 24.9747 9.37127 25.0715C9.45465 25.1682 9.5582 25.2455 9.67464 25.2979C9.79108 25.3504 9.91759 25.3767 10.0453 25.3751H14.114C14.3225 25.3781 14.5252 25.3066 14.6856 25.1735C14.846 25.0403 14.9536 24.8543 14.989 24.6488L15.864 19.3026H18.6203C20.3454 19.2956 21.9977 18.6061 23.2159 17.3846C24.4341 16.1631 25.1192 14.509 25.1215 12.7838V12.5388C25.1206 11.7273 24.9275 10.9276 24.5579 10.2052C24.1883 9.48272 23.6528 8.85813 22.9953 8.38257ZM9.49403 4.37507H17.194C18.112 4.37789 19.002 4.69174 19.7187 5.26541C20.4354 5.83908 20.9365 6.63871 21.1403 7.53382C20.7617 7.44504 20.3741 7.40099 19.9853 7.40257H12.6878C12.4781 7.39987 12.2743 7.4726 12.1137 7.60751C11.9531 7.74242 11.8463 7.93053 11.8128 8.13757L11.2965 11.3751C11.2594 11.6071 11.316 11.8444 11.4538 12.0348C11.5917 12.2251 11.7995 12.3529 12.0315 12.3901C12.2636 12.4272 12.5009 12.3706 12.6913 12.2328C12.8816 12.0949 13.0094 11.8871 13.0465 11.6551L13.449 9.13507H20.0028C20.4222 9.13727 20.8376 9.21738 21.2278 9.37132C21.0614 10.7411 20.4006 12.003 19.3694 12.9198C18.3382 13.8366 17.0076 14.3452 15.6278 14.3501H11.5678C11.3593 14.347 11.1566 14.4185 10.9962 14.5517C10.8358 14.6848 10.7282 14.8709 10.6928 15.0763L9.62528 21.3938H6.77278L9.49403 4.37507ZM23.3715 12.7838C23.3692 14.0448 22.8685 15.2538 21.9784 16.1471C21.0884 17.0404 19.8813 17.5456 18.6203 17.5526H15.1203C14.9118 17.5495 14.7091 17.621 14.5487 17.7542C14.3883 17.8873 14.2807 18.0734 14.2453 18.2788L13.3703 23.6251H11.0603L11.2528 22.4088L12.3028 16.1176H15.6103C17.2438 16.1128 18.8298 15.5678 20.1213 14.5675C21.4127 13.5673 22.3371 12.168 22.7503 10.5876C23.1564 11.157 23.3737 11.8394 23.3715 12.5388V12.7838Z" fill="#396AFF"/>
</svg>
