<svg width="200" height="140" viewBox="0 0 200 140" fill="none" xmlns="http://www.w3.org/2000/svg">
<path d="M99.1821 27.6097C99.1821 25.4978 100.894 23.7859 103.006 23.7859C105.118 23.7859 106.83 25.4978 106.83 27.6097V69.5294H99.1821V27.6097Z" fill="#FFE5F0"/>
<rect x="99.1821" y="69.53" width="7.64763" height="29.2562" fill="#FFBDD8"/>
<path fill-rule="evenodd" clip-rule="evenodd" d="M99.1821 98.7868H106.83V128.043H99.1821V98.7868Z" fill="#FF84B7"/>
<path fill-rule="evenodd" clip-rule="evenodd" d="M99.1821 128.044L106.83 128.044V135.545C106.83 137.657 105.118 139.369 103.006 139.369C100.894 139.369 99.1821 137.657 99.1821 135.545V128.044Z" fill="#FF5DA0"/>
<path d="M192.353 4.33256C192.353 2.22073 194.065 0.508747 196.177 0.508747C198.289 0.508747 200.001 2.22073 200.001 4.33256V73.8666H192.353V4.33256Z" fill="#FFE5F0"/>
<rect x="192.353" y="73.8661" width="7.64763" height="29.4229" fill="#FFBDD8"/>
<path fill-rule="evenodd" clip-rule="evenodd" d="M192.353 103.291H200.001V121.325H192.353V103.291Z" fill="#FF84B7"/>
<path d="M192.353 121.324H200.001V135.534C200.001 137.646 198.289 139.358 196.177 139.358C194.065 139.358 192.353 137.646 192.353 135.534V121.324Z" fill="#FF5DA0"/>
<path d="M32.0589 58.9211C32.0589 56.8092 33.7708 55.0972 35.8827 55.0972C37.9945 55.0972 39.7065 56.8092 39.7065 58.9211V79.7802H32.0589V58.9211Z" fill="#FFE5F0"/>
<rect x="32.0589" y="79.7793" width="7.64763" height="14.1315" fill="#FFBDD8"/>
<rect x="32.0589" y="93.9107" width="7.64763" height="17.8999" fill="#FF84B7"/>
<path fill-rule="evenodd" clip-rule="evenodd" d="M32.0589 111.811H39.7065V135.308C39.7065 137.42 37.9945 139.132 35.8827 139.132C33.7708 139.132 32.0589 137.42 32.0589 135.308V111.811Z" fill="#FF5DA0"/>
<path d="M164.302 17.1647C164.302 15.0529 166.014 13.3409 168.125 13.3409C170.237 13.3409 171.949 15.0529 171.949 17.1647V71.3989H164.302V17.1647Z" fill="#FFE5F0"/>
<rect x="164.302" y="71.4006" width="7.64763" height="24.517" fill="#FFBDD8"/>
<rect x="164.302" y="95.9144" width="7.64763" height="14.1444" fill="#FF84B7"/>
<path fill-rule="evenodd" clip-rule="evenodd" d="M164.302 110.061H171.949V135.469C171.949 137.581 170.237 139.293 168.125 139.293C166.014 139.293 164.302 137.581 164.302 135.469V110.061Z" fill="#FF5DA0"/>
<path d="M131.241 38.8882C131.241 36.7764 132.953 35.0644 135.065 35.0644C137.177 35.0644 138.889 36.7764 138.889 38.8882V66.0035H131.241V38.8882Z" fill="#FFE5F0"/>
<rect x="131.241" y="66.004" width="7.64763" height="29.2859" fill="#FFBDD8"/>
<path fill-rule="evenodd" clip-rule="evenodd" d="M131.241 95.2882H138.889V124.574H131.241V95.2882Z" fill="#FF84B7"/>
<path d="M131.241 124.576H138.889V135.868C138.889 137.98 137.177 139.692 135.065 139.692C132.953 139.692 131.241 137.98 131.241 135.868V124.576Z" fill="#FF5DA0"/>
<path d="M0 3.82382C0 1.71198 1.71198 0 3.82381 0C5.93565 0 7.64763 1.71198 7.64763 3.82382V62.0608H0V3.82382Z" fill="#FFE5F0"/>
<rect y="62.0592" width="7.64763" height="29.3723" fill="#FFBDD8"/>
<rect y="91.4335" width="7.64763" height="29.3723" fill="#FF84B7"/>
<path d="M0 120.804H7.64763V134.982C7.64763 137.094 5.93565 138.806 3.82381 138.806C1.71198 138.806 0 137.094 0 134.982V120.804Z" fill="#FF5DA0"/>
<path d="M65.1196 32.0671C65.1196 29.9552 66.8315 28.2433 68.9434 28.2433C71.0552 28.2433 72.7672 29.9552 72.7672 32.0671V78.0049H65.1196V32.0671Z" fill="#FFE5F0"/>
<path fill-rule="evenodd" clip-rule="evenodd" d="M65.1196 78.0065H72.7672V92.2513H65.1196V78.0065Z" fill="#FFBDD8"/>
<rect x="65.1196" y="92.2514" width="7.64763" height="14.2448" fill="#FF84B7"/>
<path fill-rule="evenodd" clip-rule="evenodd" d="M65.1196 106.496H72.7672V135.91C72.7672 138.022 71.0552 139.734 68.9434 139.734C66.8315 139.734 65.1196 138.022 65.1196 135.91V106.496Z" fill="#FF5DA0"/>
</svg>
