<svg width="133" height="41" viewBox="0 0 133 41" fill="none" xmlns="http://www.w3.org/2000/svg">
<rect y="0.201049" width="132.999" height="40.2914" rx="12" fill="#323D4E"/>
<rect x="0.3" y="0.501049" width="132.399" height="39.6914" rx="11.7" stroke="#CFCFCF" stroke-opacity="0.11421" stroke-width="0.6"/>
<path opacity="0.700544" d="M45.1796 40.4924V0.201049" stroke="#979797" stroke-width="0.4" stroke-linecap="square"/>
<path opacity="0.700544" d="M90.8657 40.4924V0.201049" stroke="#979797" stroke-width="0.4" stroke-linecap="square"/>
<path fill-rule="evenodd" clip-rule="evenodd" d="M115.063 13.1838H118.221V14.9746H105.587V13.1838H108.745L109.648 12.2885H114.16L115.063 13.1838ZM108.294 28.405C107.301 28.405 106.489 27.5992 106.489 26.6143V15.8699H117.319V26.6143C117.319 27.5992 116.506 28.405 115.514 28.405H108.294Z" fill="white"/>
<path fill-rule="evenodd" clip-rule="evenodd" d="M16.8535 12.2885H27.8183V15.9147H16.8535V12.2885ZM15.9398 16.8213H28.7321C30.2489 16.8213 31.4733 18.036 31.4733 19.5409V24.9803H27.8183V28.6065H16.8535V24.9803H13.1986V19.5409C13.1986 18.036 14.423 16.8213 15.9398 16.8213ZM18.681 26.7934H25.9909V22.2606H18.681V26.7934ZM28.7321 20.4475C28.2295 20.4475 27.8183 20.0395 27.8183 19.5409C27.8183 19.0423 28.2295 18.6344 28.7321 18.6344C29.2346 18.6344 29.6458 19.0423 29.6458 19.5409C29.6458 20.0395 29.2346 20.4475 28.7321 20.4475Z" fill="white"/>
<path fill-rule="evenodd" clip-rule="evenodd" d="M68.5479 12.6078L70.9635 17.356L75.613 17.813C75.839 17.8317 76.0334 17.979 76.111 18.1905C76.1885 18.4019 76.135 18.6388 75.974 18.7972L72.1476 22.5599L73.5662 27.6727C73.6255 27.8942 73.5483 28.1297 73.369 28.2742C73.1897 28.4187 72.9416 28.4454 72.7352 28.3424L68.0216 26.0267L63.3144 28.3396C63.108 28.4425 62.8599 28.4158 62.6806 28.2713C62.5013 28.1268 62.4241 27.8914 62.4834 27.6699L63.9021 22.557L60.0728 18.7943C59.9117 18.6359 59.8582 18.3991 59.9358 18.1876C60.0133 17.9762 60.2078 17.8288 60.4338 17.8102L65.0832 17.3532L67.4953 12.6078C67.5964 12.4118 67.7996 12.2885 68.0216 12.2885C68.2435 12.2885 68.4467 12.4118 68.5479 12.6078Z" stroke="white" stroke-width="1.2" stroke-linecap="round" stroke-linejoin="round"/>
</svg>
