<svg width="702" height="831" viewBox="0 0 702 831" fill="none" xmlns="http://www.w3.org/2000/svg">
<g opacity="0.02">
<path d="M612.511 774.428C586.028 768.747 582.868 747.503 578.856 720.578C574.342 690.517 568.774 653.118 528.248 623.293C507.934 608.381 488.473 599.031 468.712 594.711C451.056 590.865 433.502 591.102 415.144 595.481C381.038 603.647 348.837 625.424 317.639 646.431C288.448 666.136 258.254 686.552 225.752 696.612C208.298 702.056 191.646 704.068 174.843 702.885C155.984 701.524 137.426 696.139 118.166 686.375C84.511 669.332 51.0564 663.414 18.7555 668.74C12.7868 669.746 6.86834 671.107 1 672.883V674.717C6.96865 672.942 12.9373 671.521 19.0063 670.516C51.0564 665.19 84.21 671.107 117.614 687.972C141.339 699.985 163.307 704.956 184.022 704.956C234.028 704.956 276.712 676.137 318.392 648.029C350.893 626.075 381.539 605.363 415.445 597.256C433.602 592.877 450.956 592.64 468.411 596.487C488.022 600.747 507.332 610.038 527.445 624.832C545.251 637.91 567.42 654.183 577.401 720.874C579.458 734.78 581.263 746.793 586.028 756.439C591.295 767.149 599.671 773.422 612.26 776.144C649.527 784.192 671.696 796.915 681.978 816.206C684.436 820.763 686.241 825.733 687.445 831H689C687.746 825.378 685.89 820.171 683.232 815.259C672.699 795.554 650.229 782.594 612.511 774.428Z" fill="#848484"/>
<path d="M583.335 793.853C551.791 788.292 548.832 777.113 542.413 752.742C536.796 731.507 528.321 699.328 495.172 652.657C450.589 589.838 403.298 629.115 348.535 674.602C293.02 720.741 230.082 772.972 153.254 735.351C123.816 720.918 94.1274 713.82 64.9405 714.116C43.2258 714.353 21.7117 718.73 1 727.129V729.022C21.7117 720.563 43.1756 716.186 64.9405 715.95C93.9268 715.595 123.415 722.752 152.652 737.067C187.255 754.043 222.209 754.339 259.42 738.072C291.967 723.817 321.154 699.565 349.388 676.14C376.469 653.663 402.045 632.427 425.966 624.856C452.395 616.456 474.009 625.684 494.019 653.899C526.967 700.334 535.392 732.276 540.959 753.393C547.378 777.763 550.637 790.008 583.134 795.745C602.141 799.117 614.026 807.398 618.49 820.353C619.593 823.606 620.245 827.155 620.496 831H622C621.799 826.919 621.097 823.133 619.894 819.702C615.18 805.979 602.893 797.343 583.335 793.853Z" fill="#848484"/>
<path d="M427.467 713.919C413.53 702.99 394.83 703.345 371.919 715.159C353.721 724.493 332.815 741.033 309.754 764.189C286.191 787.936 265.135 813.928 252 831H254.005C267.14 813.928 287.695 788.645 310.706 765.489C333.668 742.392 354.423 725.97 372.471 716.695C394.881 705.176 413.079 704.704 426.565 715.337C457.898 739.97 474.543 781.557 489.232 818.24C490.987 822.553 492.641 826.806 494.346 830.941H496C494.195 826.57 492.39 822.08 490.586 817.472C475.896 780.611 459.152 738.788 427.467 713.919Z" fill="#848484"/>
<path d="M387.628 776.027C381.134 770.541 372.742 770.66 362.702 776.384C354.809 780.916 345.868 788.905 336.128 800.174C326.837 810.966 318.495 822.712 313 831H314.948C330.533 807.806 366.248 760.167 386.728 777.458C399.966 788.667 407.708 810.907 414.402 831H416C409.207 810.549 401.414 787.653 387.628 776.027Z" fill="#848484"/>
<path d="M140.296 775.087C127.405 771.198 114.062 767.192 102.074 762.42C72.3284 750.459 37.868 760.534 14.1922 771.08C9.5273 773.143 5.11317 775.323 1 777.503V779.447C5.26365 777.208 9.87843 774.91 14.744 772.73C38.169 762.302 72.2782 752.345 101.572 764.128C113.56 768.959 126.953 772.966 139.895 776.854C168.988 785.574 196.476 793.823 198.382 808.788C199.185 815.092 195.473 822.457 187.146 831H189.353C197.228 822.457 200.689 815.033 199.887 808.493C197.83 792.35 171.195 784.396 140.296 775.087Z" fill="#848484"/>
<path d="M121.009 800.443C111.1 798.406 99.0387 798.526 87.9287 800.802C67.36 804.997 27.1236 818.418 1 827.465V829.322C27.1236 820.275 67.6103 806.794 88.2289 802.54C99.1888 800.323 111.05 800.143 120.808 802.181C134.921 805.116 139.876 811.288 141.577 816.021C143.129 820.275 142.728 825.308 140.426 831H142.128C144.33 825.128 144.58 819.856 142.928 815.302C139.575 806.075 129.166 802.121 121.009 800.443Z" fill="#848484"/>
<path d="M62.7407 474.106C85.4291 492.115 100.237 517.943 113.237 540.751C127.995 566.579 140.795 588.912 160.773 592.526C162.63 592.882 164.537 593 166.445 593C181.855 593 200.176 582.515 223.417 560.418C240.835 543.831 255.341 528.784 268.141 515.455C295.147 487.316 314.673 466.997 336.257 460.421C358.293 453.668 382.487 460.777 419.732 484.887C450.151 504.614 486.442 518.18 519.22 522.09C534.479 523.926 548.333 523.571 559.326 520.964C570.921 518.239 579.053 513.323 583.42 506.273C589.393 496.617 590.849 478.667 563.693 447.922C531.217 411.134 494.273 406.691 455.17 402.011C429.269 398.931 402.465 395.672 375.409 382.817C344.79 368.304 318.237 343.067 294.193 305.806C276.424 278.259 255.693 265.226 234.159 268.129C219.502 270.084 205.096 279.207 191.342 295.143C177.538 311.256 165.09 333.471 154.448 361.195C146.517 381.751 137.783 392.296 127.593 393.362C105.558 395.672 80.0582 351.953 55.4623 309.656C43.1643 288.508 30.4648 266.707 18.3677 251.068C12.0932 242.952 6.37093 236.969 1 233V235.192C17.9159 248.343 36.2875 279.859 54.2074 310.663C66.5555 331.871 79.3554 353.849 91.6534 369.844C104.805 386.905 116.048 395.258 125.937 395.258C126.539 395.258 127.142 395.198 127.744 395.139C138.486 394.014 147.672 383.173 155.803 361.965C166.395 334.418 178.693 312.381 192.396 296.446C205.899 280.747 220.004 271.802 234.309 269.906C255.241 267.122 275.57 279.918 292.988 306.931C317.182 344.489 343.987 369.844 374.807 384.476C402.063 397.45 428.968 400.649 454.969 403.788C493.821 408.468 530.514 412.852 562.639 449.225C589.042 479.141 587.837 496.202 582.215 505.266C573.983 518.476 550.492 524.104 519.37 520.372C486.794 516.462 450.703 502.956 420.435 483.347C382.838 459 358.343 451.891 335.855 458.763C313.92 465.457 294.293 485.895 267.137 514.211C254.337 527.54 239.881 542.587 222.463 559.115C196.663 583.64 177.137 593.711 160.974 590.808C141.648 587.372 129.049 565.335 114.442 539.803C101.341 516.877 86.4832 490.93 63.5438 472.684C44.5196 457.578 26.399 449.995 9.48307 449.995C6.62191 449.995 3.81096 450.232 1 450.647V452.424C20.0242 449.403 40.755 456.689 62.7407 474.106Z" fill="#848484"/>
<path d="M29.1252 647.928C52.3372 648.342 78.3067 653.852 101.218 658.651C134.056 665.582 159.925 671.033 163.133 658.473C167.946 639.633 152.304 624.052 126.335 598.281C107.735 579.797 84.5233 556.811 59.7069 523.753C41.0571 498.93 22.4574 487.674 4.50938 490.399C3.40643 490.577 2.25335 490.813 1 491.11V492.946C2.20322 492.65 3.45657 492.354 4.70992 492.176C22.1566 489.569 40.2549 500.589 58.604 524.938C83.5206 558.114 106.733 581.16 125.382 599.703C150.851 625 166.242 640.285 161.73 657.999C158.922 669.018 132.301 663.39 101.519 656.933C68.2799 649.942 29.2756 641.707 1.05013 648.816V650.653C8.97131 648.639 18.3464 647.691 29.1252 647.928Z" fill="#848484"/>
<path d="M95.0552 639C108.049 639 115.345 636.212 116.745 630.576C119.843 618.295 94.0057 596.166 78.2632 584.063C56.0238 566.917 29.5364 550.78 15.2932 545.619C10.5454 543.898 5.74774 542.712 1.04998 542V543.78C5.59781 544.492 10.2456 545.678 14.8434 547.339C28.9867 552.442 55.3241 568.46 77.4136 585.546C103.151 605.421 117.295 622.032 115.246 630.042C113.246 637.873 95.455 639.297 65.1194 634.076C40.5312 629.864 14.8934 622.566 1 617.939V619.778C14.9933 624.465 40.4812 631.643 64.8695 635.856C77.1137 637.932 87.1089 639 95.0552 639Z" fill="#848484"/>
<path d="M30.8124 607C36.8453 607 40.2137 605.629 40.8672 602.887C42.2749 597.402 32.2201 588.282 23.5227 581.605C16.0319 575.823 7.48533 570.338 1 567V568.967C7.33451 572.306 15.5292 577.611 22.7183 583.155C33.8791 591.739 40.2639 599.131 39.4093 602.41C38.0519 607.715 17.892 604.735 1 600.264V602.052C6.07767 603.364 11.7586 604.675 17.2887 605.629C22.7686 606.523 27.243 607 30.8124 607Z" fill="#848484"/>
<path fill-rule="evenodd" clip-rule="evenodd" d="M172.414 560C170.962 560 169.559 559.822 168.206 559.408C155.932 555.793 146.162 545.544 139.95 529.725C133.688 513.61 131.584 492.814 133.938 469.53C136.092 448.557 142.355 427.762 152.174 409.395C187.094 343.928 216.101 308.024 238.395 302.692C245.559 300.974 252.122 302.455 257.784 307.136C279.015 324.577 292.864 341.555 305.079 356.529L305.528 357.08L305.637 357.214C324.523 380.376 339.458 398.692 372.16 409.277C392.851 415.972 402.621 422.133 401.969 428.176C401.468 432.857 394.455 436.589 381.078 439.315C368.102 441.922 349.365 443.521 326.921 443.877C309.987 444.173 292.402 451.934 273.114 467.753C256.281 481.617 240.349 499.687 226.271 515.684C205.48 539.323 187.294 560 172.414 560ZM153.477 410.343C143.808 428.473 137.595 449.031 135.491 469.767C133.187 492.696 135.241 513.136 141.403 528.955C147.365 544.3 156.783 554.253 168.607 557.689C169.859 558.045 171.162 558.223 172.465 558.223C186.692 558.223 204.677 537.784 225.217 514.442L225.219 514.439C239.297 498.384 255.279 480.254 272.262 466.331C291.801 450.335 309.687 442.396 326.921 442.099C349.315 441.744 367.952 440.144 380.828 437.537C397.41 434.16 400.266 430.072 400.517 427.939C401.218 421.185 380.677 413.779 371.81 410.936C338.644 400.153 323.564 381.668 304.526 358.265L304.32 358.013C292.097 343.026 278.255 326.055 256.982 308.557C253.074 305.358 248.766 303.758 244.056 303.758C242.353 303.758 240.55 303.995 238.746 304.41C216.903 309.683 188.196 345.29 153.477 410.343Z" fill="#848484"/>
<path fill-rule="evenodd" clip-rule="evenodd" d="M525.517 494.671C501.967 490.628 475.102 483.91 459.234 479.333C432.772 471.723 421.423 464.945 420.118 456.087C418.963 448.062 426.294 438.371 443.116 425.589C452.305 418.634 464.256 417.147 478.768 421.309C490.267 424.579 503.373 431.356 517.734 441.463C541.636 458.287 561.169 478.857 562.123 479.868C569.153 485.753 571.965 490.153 570.71 493.422C569.505 496.454 564.684 498 556.047 498C548.666 498 538.523 496.87 525.517 494.671ZM463.703 420.714C456.071 420.714 449.493 422.855 443.969 427.016C427.951 439.203 420.62 448.597 421.624 455.612C423.03 465.659 441.609 472.317 459.586 477.49C503.172 490.034 565.588 502.28 569.304 492.59C569.806 491.282 569.455 488.072 561.219 481.175L561.169 481.116C561.158 481.106 561.082 481.027 560.944 480.884C558.685 478.538 539.84 458.971 516.981 442.889C502.77 432.902 489.815 426.184 478.466 422.973C473.194 421.487 468.273 420.714 463.703 420.714Z" fill="#848484"/>
<path d="M702 463.396C698.435 459.017 694.368 454.519 689.748 450.022C672.173 432.919 649.878 418.834 623.466 408.123C590.476 394.749 550.958 386.582 506.017 383.86C480.308 382.321 430.998 376.936 389.371 358.058C345.535 338.233 321.232 308.939 317.215 271.005C312.545 227.095 317.114 199.872 331.626 185.255C347.493 169.277 376.215 168.567 419.399 183.243C449.376 193.422 473.629 207.388 493.112 218.632C512.344 229.758 527.559 238.516 541.116 240.055C555.829 241.712 567.328 234.67 578.375 217.212C585.404 206.086 590.978 195.552 595.899 186.261C605.791 167.502 612.972 153.95 624.671 148.919C637.024 143.593 653.745 148.091 680.659 163.951C688.342 168.448 695.422 173.479 702 178.686V176.556C695.623 171.526 688.744 166.732 681.362 162.353C654.046 146.256 636.974 141.759 624.169 147.203C611.967 152.47 604.737 166.2 594.644 185.255C589.773 194.487 584.199 204.962 577.22 216.087C554.523 252.009 531.676 238.812 493.815 216.975C474.282 205.672 449.929 191.647 419.851 181.468C376.115 166.673 346.941 167.442 330.672 183.835C315.758 198.866 311.038 226.621 315.758 271.183C319.876 309.827 344.48 339.594 388.869 359.715C430.697 378.652 480.207 384.037 505.967 385.635C550.757 388.298 590.074 396.465 622.914 409.78C649.125 420.432 671.269 434.398 688.693 451.324C693.815 456.295 698.234 461.266 702 466V463.396Z" fill="#848484"/>
<path d="M702 425.686C691.368 416.25 678.579 406.755 664.085 397.794C622.909 372.275 574.361 354.531 527.469 347.885C479.974 341.119 445.318 333.701 418.437 324.443C384.082 312.693 362.416 298.035 352.185 279.757C345.264 267.354 343.759 253.052 347.621 237.147C350.53 225.397 355.846 217.623 363.92 213.409C391.254 199.048 443.663 229.136 489.904 255.663C506.806 265.395 522.804 274.534 536.396 280.825C559.316 291.448 573.408 293.821 583.539 288.658C593.319 283.673 598.936 272.161 606.66 256.197C611.324 246.583 616.59 235.723 624.013 223.735C631.937 210.917 641.967 204.211 653.853 203.795C670.103 203.261 687.706 214.596 702 227.059V224.863C679.782 205.694 663.784 201.718 653.853 202.015C641.516 202.43 631.084 209.374 622.859 222.667C615.386 234.714 610.12 245.693 605.406 255.307C590.26 286.463 583.339 300.705 536.947 279.163C523.406 272.873 507.458 263.734 490.556 254.06C444.014 227.355 391.254 197.089 363.319 211.807C354.893 216.198 349.125 224.625 346.166 236.732C342.154 253.111 343.709 267.947 350.881 280.825C361.363 299.4 383.279 314.295 418.035 326.164C445.017 335.422 479.773 342.84 527.318 349.606C574.01 356.252 622.357 373.937 663.382 399.336C678.077 408.476 691.217 418.267 702 428V425.686Z" fill="#848484"/>
<path d="M701.95 398.574C673.342 369.283 634.545 357.567 604.13 348.454C574.618 339.578 553.337 333.187 555.646 315.908C556.298 310.878 562.221 311.234 572.61 312.299C582.247 313.245 594.192 314.488 605.485 309.991C618.835 304.665 628.02 292.653 633.541 273.244C637.405 259.634 643.579 251.823 651.81 250.166C666.867 247.089 686.642 264.368 702 281.528V279.043C701.598 278.629 701.247 278.155 700.846 277.741C680.569 255.729 664.006 245.847 651.559 248.391C642.726 250.166 636.201 258.332 632.136 272.652C619.99 315.317 591.582 312.417 572.761 310.523C562.522 309.458 555.094 308.748 554.19 315.672C553.036 324.429 557.101 331.175 567.139 336.797C576.073 341.826 588.922 345.732 603.778 350.17C634.444 359.401 673.542 371.176 702 401V398.574H701.95Z" fill="#848484"/>
<path d="M702 382.858C692.303 375.6 681.656 365.308 672.508 354.242C658.812 337.644 650.664 322.295 649.614 310.932C649.065 304.804 650.614 299.926 654.313 296.475C667.31 284.339 688.504 304.566 702 320.689V318.13C699.201 314.858 696.152 311.467 692.952 308.255C685.505 300.818 678.606 295.702 672.558 293.084C664.86 289.753 658.362 290.407 653.363 295.107C649.265 298.914 647.515 304.328 648.115 311.17C650.214 334.372 679.456 368.342 702 385V382.858Z" fill="#848484"/>
<path fill-rule="evenodd" clip-rule="evenodd" d="M529.846 312.075C530.019 312.22 530.115 312.3 530.131 312.313C536.095 317.56 538.149 321.864 536.395 325.166C534.391 328.644 527.927 330 519.408 330C507.732 330 492.097 327.465 478.366 324.222C444.942 316.381 413.071 303.057 393.126 288.613C370.676 272.341 363.059 254.713 371.127 237.616C373.282 233.017 376.89 230.069 381.801 228.772C397.636 224.586 427.453 237.439 470.348 266.858C500.493 287.49 526.827 309.546 529.846 312.075ZM516.551 328.113C530.432 328.526 534.14 325.755 535.093 324.104C536.696 321.216 532.787 316.912 529.229 313.787C527.927 312.667 429.708 229.774 388.165 229.774C385.96 229.774 383.956 230.01 382.102 230.482C377.642 231.661 374.384 234.314 372.43 238.441C368.421 246.931 368.471 255.538 372.63 264.087C376.389 271.869 383.555 279.592 393.878 287.08C413.672 301.406 445.343 314.671 478.617 322.454C492.898 325.814 506.379 327.819 516.551 328.113Z" fill="#848484"/>
<path fill-rule="evenodd" clip-rule="evenodd" d="M478.115 297.363C478.478 297.625 478.68 297.771 478.702 297.784C478.745 297.824 478.793 297.868 478.845 297.916C479.712 298.714 481.752 300.592 480.711 302.417C480.058 303.59 478.05 304 475.339 304C467.909 304 455.308 300.599 452.095 299.719C435.378 295.029 419.865 288.285 410.628 281.659C401.34 274.975 398.127 268.466 401.039 262.309C401.742 260.843 402.947 259.846 404.553 259.377C411.079 257.384 425.538 263.306 447.577 276.851C462.073 285.759 475.221 295.269 478.115 297.363ZM452.396 298.019C469.465 302.769 478.602 302.886 479.456 301.42C479.506 301.303 479.405 300.599 477.799 299.25C476.393 298.195 425.086 260.784 407.364 260.784C406.411 260.784 405.607 260.902 404.854 261.136C403.599 261.488 402.796 262.192 402.294 263.189C399.834 268.349 402.846 274.036 411.33 280.135C420.417 286.702 435.779 293.387 452.396 298.019Z" fill="#848484"/>
<path fill-rule="evenodd" clip-rule="evenodd" d="M182.256 515.507C177.255 517.994 173.155 519 169.804 519C163.004 519 159.253 514.797 157.203 510.475C143.851 482.473 174.005 392.309 215.01 357.144C227.262 346.665 238.263 342.402 247.665 344.534C255.416 346.31 262.067 352.289 267.467 362.353C272.768 372.181 275.318 383.547 274.968 395.269C274.618 406.932 271.368 418.121 265.617 427.593L264.067 430.139L263.976 430.288C244.902 461.677 225.194 494.11 182.256 515.507ZM215.91 358.624C197.358 374.549 179.106 403.972 167.104 437.302C155.853 468.56 152.452 496.918 158.503 509.587C162.553 518.053 170.304 519.474 181.656 513.79C224.262 492.537 243.864 460.272 262.817 429.014L264.367 426.468C269.968 417.292 273.118 406.458 273.468 395.151C273.818 383.784 271.318 372.773 266.217 363.3C261.066 353.71 254.716 347.967 247.415 346.31C245.914 345.954 244.364 345.777 242.814 345.777C234.863 345.777 225.862 350.099 215.91 358.624Z" fill="#848484"/>
<path fill-rule="evenodd" clip-rule="evenodd" d="M196.632 474.805C193.523 476.347 190.966 477 188.91 477C184.999 477 182.843 474.686 181.64 472.254C178.18 465.017 180.286 449.711 187.105 432.33C194.225 414.296 204.905 397.922 215.735 388.668C222.905 382.558 229.323 380.066 234.889 381.312C239.452 382.32 243.413 385.821 246.572 391.753C252.839 403.499 252.438 418.448 245.469 429.898C234.387 448.11 222.304 461.991 196.632 474.805ZM216.638 390.151C206.058 399.228 195.528 415.304 188.509 433.101C181.991 449.711 179.834 464.72 182.993 471.424C185.099 475.873 189.512 476.466 196.08 473.203C221.451 460.568 233.334 446.864 244.265 428.889C250.884 418.033 251.285 403.855 245.318 392.761C242.36 387.304 238.8 384.041 234.638 383.092C233.786 382.914 232.933 382.795 232.031 382.795C227.468 382.795 222.354 385.287 216.638 390.151Z" fill="#848484"/>
<path d="M208.021 443C208.665 443 209.459 442.825 210.401 442.359C217.739 438.749 221.16 434.79 224.333 429.607C226.416 426.23 226.564 421.746 224.68 418.31C223.689 416.505 222.499 415.457 221.061 415.108C219.375 414.7 217.392 415.457 215.26 417.262C208.764 422.794 203.211 436.536 205.542 441.37C205.889 442.068 206.583 443 208.021 443Z" fill="#848484" stroke="#575757" stroke-width="5"/>
<path d="M701.849 779.339C687.496 778.568 673.545 776.373 661.199 772.815C644.939 768.129 631.289 761.07 620.65 751.936C607.601 740.725 599.02 726.252 595.055 708.814C589.535 684.317 580.803 661.184 569.812 641.847C556.914 619.13 541.106 601.632 522.738 589.769C488.963 567.882 447.862 565.806 400.637 583.6C343.426 605.132 298.912 627.73 266.392 644.279C224.888 665.336 202.004 676.962 196.785 664.209C196.333 663.082 196.283 661.896 196.684 660.591C199.645 650.923 224.186 637.755 252.641 622.57C273.819 611.241 297.858 598.37 316.778 584.727C338.659 568.949 350.151 554.655 351.907 541.071C354.367 521.972 360.891 508.567 370.727 502.339C381.918 495.28 397.225 497.119 416.295 507.796C451.324 527.37 536.84 550.74 588.782 550.74C606.698 550.74 620.65 547.952 627.124 541.249C631.038 537.216 632.142 531.937 630.386 525.531C624.614 504.356 631.289 482.468 645.893 474.698C664.21 464.971 684.435 479.087 701.849 501.686V498.721C695.024 490.061 688.099 483.299 681.123 478.435C668.326 469.478 655.579 467.58 645.291 473.097C629.984 481.223 622.958 504 628.98 526.065C630.536 531.759 629.583 536.326 626.17 539.885C615.38 551.036 580.501 551.985 530.417 542.436C487.157 534.191 440.535 519.303 416.998 506.135C397.476 495.221 381.717 493.442 370.125 500.737C359.837 507.203 353.062 521.082 350.502 540.775C346.688 570.254 294.245 598.37 252.089 620.909C222.178 636.924 198.541 649.558 195.38 659.938C194.827 661.718 194.878 663.379 195.53 664.921C198.34 671.801 205.216 672.988 217.913 668.776C229.606 664.862 246.167 656.498 267.094 645.881C299.564 629.391 344.079 606.792 401.189 585.261C448.012 567.645 488.713 569.661 522.136 591.252C540.253 602.996 555.911 620.316 568.658 642.737C579.548 661.955 588.23 684.91 593.7 709.17C597.715 726.964 606.497 741.793 619.847 753.241C630.637 762.494 644.488 769.612 660.948 774.416C673.445 778.034 687.547 780.288 702 781V779.339H701.849Z" fill="#848484"/>
<path d="M701.95 743.135C678.442 749.592 659.908 748.585 645.642 740.114C624.596 727.555 615.354 700.186 608.523 672.461C601.29 643.196 580.545 621.573 563.869 604.216C552.668 592.545 543.827 583.363 543.425 576.017C543.325 573.944 543.928 572.107 545.234 570.389C549.804 564.347 564.371 568.138 582.856 572.937C597.673 576.787 616.158 581.586 635.396 582.889C644.286 583.482 650.113 581.704 653.277 577.439C657.798 571.278 656.09 560.97 654.282 550.07C651.72 534.845 649.108 519.146 661.314 510.497C665.383 507.594 669.903 507.061 674.725 508.72C682.863 511.623 692.155 521.22 702 536.681V533.66C693.963 521.338 684.57 510.379 675.177 507.061C669.954 505.165 665.031 505.817 660.561 508.957C647.451 518.258 650.314 535.319 652.825 550.425C654.583 560.911 656.241 570.804 652.172 576.313C649.359 580.105 643.884 581.704 635.496 581.112C616.359 579.809 597.975 575.01 583.207 571.16C563.567 566.065 549.352 562.333 544.179 569.145C542.622 571.219 541.868 573.529 542.019 576.077C542.421 584.133 551.462 593.553 562.965 605.46C579.49 622.64 600.084 644.085 607.167 672.876C614.098 700.956 623.441 728.74 645.04 741.595C653.328 746.512 663.022 749 674.223 749C682.611 749 691.854 747.637 702 744.853V743.135H701.95Z" fill="#848484"/>
<path d="M702 697.545C690.185 701.162 675.766 703.237 664.05 697.96C655.439 694.106 649.181 686.635 645.476 675.843C640.369 660.901 631.408 647.026 624.198 635.879C617.089 624.91 610.981 615.423 612.883 611.153C614.085 608.485 618.441 607.477 626.201 608.011L628.804 608.189C652.035 609.849 663.75 610.679 669.507 604.453C672.311 601.429 673.663 596.686 673.813 589.155C674.063 578.779 678.719 570.122 685.428 567.572C690.435 565.675 696.092 567.157 702 571.664V569.47C694.39 564.015 688.482 564.548 684.978 565.912C677.668 568.699 672.561 578.008 672.311 589.155C672.161 596.152 670.959 600.481 668.506 603.149C663.199 608.9 651.033 608.011 628.904 606.41L626.301 606.232C617.74 605.639 613.084 606.944 611.531 610.323C609.178 615.601 614.936 624.554 622.946 637.006C630.106 648.094 639.017 661.85 644.024 676.555C647.879 687.821 654.438 695.588 663.449 699.68C668.756 702.051 674.564 703 680.372 703C688.032 703 695.642 701.399 701.95 699.502V697.545H702Z" fill="#848484"/>
<path d="M702 664.21C689.858 664.568 672.656 662.778 669.418 650.25C667.445 642.614 668.811 635.216 673.162 629.429C679.031 621.613 689.402 617.557 702 617.795V616.005C688.947 615.826 678.171 620.062 672.049 628.236C667.293 634.56 665.826 642.554 667.951 650.787C670.278 659.736 678.879 664.807 693.5 665.821C695.423 665.94 697.345 666 699.167 666C700.128 666 701.039 666 701.949 665.94V664.21H702Z" fill="#848484"/>
<path d="M56.3302 445.966C75.361 455.161 93.5359 464 105.82 464C109.143 464 112.013 463.347 114.379 461.924C117.702 459.907 119.817 456.288 120.723 451.246C122.888 439.381 112.164 427.932 95.9022 410.61C79.7915 393.466 57.7399 370.034 38.256 334.915C25.0654 311.127 12.5796 295.822 1.05035 289V290.958C12.1768 297.78 24.2095 312.729 36.9974 335.864C56.6323 371.22 78.7342 394.712 94.8953 411.915C110.754 428.822 121.277 439.975 119.263 450.831C118.407 455.398 116.594 458.483 113.674 460.263C103.253 466.729 80.748 455.814 56.9344 444.246C41.2264 436.653 24.9647 428.763 10.8678 425.203C7.34359 424.314 4.02076 423.72 1 423.424V425.203C3.92007 425.5 7.14221 426.034 10.5657 426.924C24.5116 430.542 40.6726 438.373 56.3302 445.966Z" fill="#848484"/>
<path d="M48.5811 414C53.7573 414 57.0422 412.467 58.386 409.459C61.6709 401.911 51.7665 387.522 28.8718 366.529C18.5194 357.094 7.76886 348.366 1 343V345.064C23.6458 362.932 62.2682 396.722 57.092 408.634C55.997 411.169 53.0107 412.29 48.83 412.29C37.8306 412.29 18.3203 404.86 1 396.958V398.845C4.73283 400.555 8.66474 402.265 12.6464 403.916C28.822 410.639 40.8666 414 48.5811 414Z" fill="#848484"/>
<path fill-rule="evenodd" clip-rule="evenodd" d="M264.792 552.873C267.513 547.475 270.385 542.61 273.408 538.339C283.031 524.695 297.491 517.577 312.051 519.238C320.617 520.246 324.949 523.805 325 529.916C325.101 550.144 272.854 592.381 249.325 595.347C245.899 595.822 243.279 596 241.314 596C237.082 596 235.671 595.11 235.167 593.805C234.16 591.076 237.787 587.161 243.833 580.636C250.282 573.695 259.099 564.204 264.792 552.873ZM295.123 567.763C312.706 553.051 323.64 538.517 323.589 529.975C323.539 524.933 319.659 521.966 312.051 521.077C310.691 520.899 309.331 520.839 307.97 520.839C295.274 520.839 283.081 527.602 274.667 539.466C271.695 543.619 268.873 548.483 266.203 553.763C260.461 565.227 251.601 574.769 245.117 581.752L244.942 581.941L244.713 582.188C240.451 586.797 236.085 591.519 236.679 593.034C237.031 593.983 239.5 594.814 249.274 593.568C260.056 592.203 278.043 582.059 295.123 567.763Z" fill="#848484"/>
<path d="M50.0491 235.689C61.345 260.237 73.4441 285.497 85.242 303.938C98.2448 324.157 109.541 334 119.832 334C119.933 334 120.033 334 120.134 334C130.375 333.822 139.412 324.098 147.746 304.412C165.267 263.083 186.001 237.824 207.739 231.479C222.6 227.151 237.862 231.42 253.073 244.287C264.771 254.189 273.105 257.45 278.426 254.308C286.308 249.683 286.76 232.428 287.262 212.505C287.814 190.625 288.417 165.78 299.512 154.396C304.683 149.119 311.611 147.162 320.698 148.348C344.494 151.55 367.136 147.28 386.164 136.133C404.237 125.519 418.244 109.332 426.628 89.2901C434.61 70.2564 436.92 48.7917 433.405 27.3269C431.949 18.3734 429.489 9.59776 426.126 1H424.419C436.167 30.2917 436.819 61.125 425.323 88.5192C417.089 108.205 403.333 124.096 385.561 134.532C366.785 145.561 344.394 149.712 320.899 146.569C311.51 145.324 303.98 147.458 298.558 153.032C286.961 164.891 286.358 190.151 285.756 212.386C285.304 230.946 284.852 248.497 277.774 252.647C272.954 255.494 265.172 252.232 253.927 242.745C238.313 229.582 222.65 225.194 207.338 229.641C185.148 236.163 164.062 261.72 146.39 303.522C138.307 322.556 129.723 331.925 120.134 332.103C120.033 332.103 119.933 332.103 119.832 332.103C97.9937 332.103 74.0465 284.014 51.3544 234.681C37.448 204.441 20.5293 183.688 1 172.659V174.615C20.0272 185.763 36.4941 206.16 50.0491 235.689Z" fill="#848484"/>
<path d="M68.8004 160C77.476 160 85.0985 158.522 91.3671 155.506C105.659 148.647 112.78 134.632 112.53 113.7C112.279 93.1811 116.943 77.9251 126.772 67.104C150.993 40.2582 203.147 44.8705 258.411 49.8376C266.535 50.5472 274.96 51.3159 283.234 51.9663C291.308 52.6168 298.73 52.9124 305.55 52.9124C336.692 52.9124 354.344 46.3488 358.206 33.2807C360.914 24.0561 356.4 12.8802 349.179 2H347.223C354.645 12.8211 359.359 23.8787 356.802 32.7485C352.388 47.768 327.716 53.6811 283.385 50.2515C275.11 49.601 266.685 48.8323 258.561 48.1228C202.997 43.1557 150.492 38.4843 125.769 65.8623C115.639 77.0973 110.825 92.7672 111.075 113.818C111.326 133.923 104.506 147.464 90.8656 153.969C73.3137 162.365 44.7794 158.522 12.4839 143.443C8.62253 141.669 4.81126 139.718 1 137.707V139.659C4.61067 141.61 8.27149 143.443 11.9323 145.099C33.0447 154.915 52.7028 160 68.8004 160Z" fill="#848484"/>
<path d="M40.1424 103.882C58.1851 102.578 73.4712 91.3833 85.6499 70.5923L87.6547 67.1568C102.44 41.9233 109.857 29.2474 120.833 23.9756C131.809 18.7038 146.694 20.5993 176.364 24.4495C179.973 24.9233 183.832 25.3972 187.891 25.9303C223.024 30.4321 248.484 31.9129 265.725 30.4913C282.314 29.1289 291.737 25.1603 295.345 17.993C297.55 13.6098 297.45 8.27875 295.646 2H294.092C295.896 8.04181 296.097 13.0767 294.042 17.1045C290.734 23.6794 281.462 27.4704 265.625 28.7735C248.484 30.1359 223.125 28.6551 188.042 24.1533C183.982 23.6202 180.123 23.1463 176.515 22.6725C146.594 18.7631 131.608 16.8084 120.232 22.3171C108.855 27.8258 101.337 40.6202 86.4017 66.1498L84.397 69.5854C72.4688 89.9024 57.5836 100.861 40.0422 102.105C31.0209 102.756 17.94 100.92 1 91.561V93.5157C15.8852 101.631 27.8133 104 36.6843 104C37.8871 104 39.0398 103.941 40.1424 103.882Z" fill="#848484"/>
<path d="M60.4767 61.7059C67.6239 57.7647 72.522 51.0588 74.971 41.7647C78.6196 28.2353 79.4193 14.5882 78.8195 2H77.3201C77.9199 14.4118 77.1202 27.8824 73.5216 41.2353C71.1725 50.0588 66.5243 56.4118 59.777 60.1176C43.7333 69 18.7431 61.7059 1 54.5294V56.4118C12.9453 61.2353 28.0394 66 41.6341 66C48.4814 65.9412 54.9789 64.7647 60.4767 61.7059Z" fill="#848484"/>
<path d="M370.454 44.719C360.464 67.8817 316.487 64.742 315.985 64.6828C291.336 64.6828 268.444 62.6094 248.263 60.7137C218.242 57.9294 192.287 55.5598 173.11 61.4246C162.969 64.5051 155.087 69.7774 149.063 77.4786C142.537 85.7721 138.119 96.9685 135.509 111.601C126.824 160.533 104.082 166.397 85.7584 171.077C74.7139 173.921 65.1755 176.35 62.0128 187.961C59.1513 198.565 62.4646 219.654 70.5471 241.691C79.1819 265.328 90.9292 283.633 101.974 290.623C105.538 292.874 109.102 294 112.466 294C118.892 294 124.966 289.972 130.288 282.093C138.37 270.126 144.947 257.094 151.322 244.476C163.22 220.898 173.461 200.579 189.375 196.017C199.165 193.233 210.561 196.669 224.115 206.681C242.088 219.891 254.538 224.038 262.219 219.358C271.757 213.552 272.711 195.603 273.715 176.527C275.07 150.936 276.476 124.456 298.766 125.641C303.886 125.877 308.806 126.055 313.575 126.055C361.769 126.055 393.045 112.608 406.55 85.9499C417.193 65.0382 414.482 39.8021 410.365 22.3856C408.407 14.0328 405.947 6.68702 403.789 1H402.132C404.341 6.68702 406.901 14.329 408.909 22.9187C416.189 53.9011 410.917 73.8057 405.244 85.0613C390.686 113.733 354.842 126.825 298.816 123.923C288.123 123.389 280.994 128.721 277.028 140.273C273.564 150.284 272.862 163.613 272.209 176.527C271.255 195.07 270.301 212.545 261.516 217.877C254.337 222.261 242.389 218.114 224.868 205.259C210.912 195.01 199.165 191.456 188.974 194.418C172.457 199.157 162.015 219.773 149.967 243.705C143.641 256.264 137.065 269.238 129.033 281.086C121.201 292.637 112.315 295.303 102.576 289.142C91.8328 282.33 80.2863 264.38 71.8022 241.099C64.0209 219.773 60.6071 198.683 63.318 188.612C66.2297 177.949 74.9147 175.698 85.9592 172.914C95.1964 170.544 105.638 167.878 114.976 159.466C125.769 149.751 132.948 134.23 136.864 112.015C141.734 84.4689 152.979 69.422 173.361 63.2018C181.895 60.5952 191.886 59.6474 202.98 59.6474C216.434 59.6474 231.646 61.0691 248.012 62.5501C268.243 64.3866 291.135 66.5192 315.784 66.5192C315.784 66.5192 315.784 66.5192 315.835 66.5192C315.935 66.5192 327.281 67.4078 339.681 65.2752C356.548 62.4317 367.292 55.7968 371.709 45.6076C376.479 34.5297 373.416 19.6013 362.573 1.05924H360.765C371.81 19.4236 375.023 34.0558 370.454 44.719Z" fill="#848484"/>
<path d="M373.52 66.394C365.287 78.5589 340.386 83.6029 301.58 80.9919C272.111 79.0336 244.8 73.2775 244.549 73.2182C244.399 73.1588 227.732 69.6577 208.956 73.9896C197.861 76.4819 188.222 81.1699 180.24 87.9348C170.25 96.3612 162.87 107.992 158.352 122.471C149.616 150.54 139.827 169.707 128.381 181.1C118.44 191.01 108.751 193.621 99.7149 195.461C86.5116 198.131 82.0436 208.101 80.6379 215.993C77.8265 231.422 84.6039 252.25 95.1464 260.618C98.008 262.873 100.92 264 103.731 264C106.342 264 108.902 263.051 111.312 261.092C121.202 253.141 131.343 237.831 142.086 221.69C162.518 190.892 183.654 159.085 204.889 175.048C208.002 177.362 211.014 179.676 213.876 181.931C229.438 193.977 241.788 203.531 249.57 199.021C254.188 196.351 256.799 189.289 257.753 176.709C259.711 150.718 263.325 131.135 274.621 120.098C282.653 112.205 294.099 109.298 309.662 111.078C353.238 116.122 381.954 106.983 395.057 84.0183C405.549 65.6225 403.742 41.708 400.378 24.8551C398.471 15.3012 395.86 6.87477 393.802 1H392.195C394.254 6.81543 396.964 15.4199 398.922 25.2705C402.186 41.7674 403.943 65.1478 393.802 83.0095C381.05 105.381 352.786 114.223 309.813 109.298C293.848 107.458 282.051 110.544 273.667 118.733C262.02 130.186 258.255 150.124 256.247 176.59C255.343 188.34 252.983 195.164 248.917 197.479C241.889 201.514 229.89 192.257 214.729 180.507C211.817 178.252 208.805 175.938 205.693 173.623C195.602 166.028 184.708 167.927 172.408 179.439C161.665 189.408 151.122 205.312 140.931 220.681C130.288 236.762 120.198 251.894 110.508 259.727C104.836 264.297 99.5141 261.982 95.9999 259.193C85.9092 251.182 79.433 231.184 82.0938 216.408C83.4492 209.05 87.6161 199.734 99.9659 197.241C109.203 195.342 119.093 192.672 129.334 182.465C140.981 170.834 150.922 151.43 159.757 123.065C164.175 108.882 171.354 97.5481 181.043 89.359C188.824 82.7721 198.313 78.2028 209.157 75.7105C216.185 74.1083 222.912 73.5742 228.585 73.5742C237.822 73.5742 244.148 74.9391 244.248 74.9391C244.499 74.9984 271.91 80.7545 301.479 82.7128C341.34 85.3831 365.989 80.2798 374.675 67.4621C383.259 54.8224 385.267 37.8509 380.448 18.2089C378.791 11.5034 376.632 5.56927 374.725 1H373.018C374.976 5.50993 377.285 11.6814 378.992 18.6837C382.255 32.0354 383.962 51.0246 373.52 66.394Z" fill="#848484"/>
<path fill-rule="evenodd" clip-rule="evenodd" d="M213.812 89.898C219.14 86.8051 225.065 86.1509 230.542 88.1137C235.869 90.017 239.902 94.002 242.491 99.9498C250.258 117.853 243.387 149.317 238.607 166.446C237.363 170.967 235.819 173.346 233.778 173.881C233.479 173.941 233.18 174 232.882 174C229.565 174 225.756 169.355 221.014 163.572L220.932 163.472C216.401 157.941 211.273 151.696 205.099 147.294C194.792 139.919 189.714 131.652 190.012 122.611C190.56 106.849 207.837 93.4072 213.812 89.898ZM233.479 172.156C234.923 171.74 236.168 169.718 237.213 165.911C248.167 126.536 244.383 108.217 241.147 100.842C238.757 95.37 235.023 91.6823 230.093 89.898C228.152 89.1843 226.16 88.8274 224.119 88.8274C220.832 88.8274 217.546 89.7196 214.459 91.5039C208.684 94.8942 192.004 107.801 191.506 122.67C191.207 130.997 196.087 138.789 205.895 145.748C212.16 150.167 217.545 156.746 221.905 162.073L222.027 162.223L222.084 162.292C226.74 167.973 230.752 172.867 233.479 172.156Z" fill="#848484"/>
<path fill-rule="evenodd" clip-rule="evenodd" d="M216.5 117.962C218.226 116.95 220.149 116.711 221.924 117.366C223.7 118.022 225.031 119.332 225.869 121.357C228.335 127.074 226.215 136.9 224.735 142.26C224.489 143.273 223.996 144.643 222.911 144.94C222.763 145 222.664 145 222.516 145C221.295 145 220.122 143.539 218.567 141.602L218.522 141.546C217.19 139.878 215.662 137.972 213.837 136.662C210.533 134.28 208.906 131.541 209.004 128.503C209.189 122.811 215.565 118.583 216.408 118.024C216.465 117.987 216.497 117.966 216.5 117.962ZM222.615 143.154C222.763 143.154 223.059 142.677 223.354 141.665C224.439 137.556 226.856 127.431 224.637 122.131C223.946 120.582 222.96 119.57 221.579 119.094C221.037 118.915 220.445 118.796 219.902 118.796C218.966 118.796 218.078 119.034 217.19 119.57C215.859 120.404 210.681 124.275 210.533 128.622C210.434 130.885 211.815 133.089 214.626 135.114C216.598 136.543 218.275 138.628 219.607 140.295C219.674 140.376 219.742 140.458 219.811 140.542C220.859 141.811 222.106 143.321 222.615 143.154Z" fill="#848484"/>
<path d="M702 138.431C674.295 115.071 640.928 95.6245 614.475 106.534C595.337 114.419 582.061 137.423 575.097 174.893C571.891 192.206 563.875 203.115 551.299 207.324C527.752 215.269 490.077 197.008 463.775 164.814C442.683 139.083 434.216 110.802 440.529 87.2648C446.39 65.4466 448.044 41.7312 445.488 16.8893C444.937 11.6126 444.186 6.33597 443.284 1H441.731C442.683 6.45455 443.434 11.7905 443.985 17.1265C446.541 41.7312 444.887 65.2095 439.126 86.7905C432.613 110.98 441.23 139.854 462.723 166.119C475.248 181.415 490.979 194.281 507.061 202.344C518.484 208.095 529.506 211 539.225 211C543.734 211 547.943 210.348 551.75 209.103C564.676 204.775 573.293 193.095 576.6 175.308C583.464 138.49 596.339 115.96 614.976 108.253C641.129 97.4625 674.445 117.265 702 140.684V138.431Z" fill="#848484"/>
<path d="M702 92.2271C681.541 71.5529 649.448 53.2482 623.372 59.4683C607.176 63.3188 594.84 76.055 586.767 97.2031C575.584 126.467 561.393 146.963 544.544 158.219C526.492 170.244 510.446 168.23 500.166 164.439C487.73 159.818 476.999 150.103 469.928 137.071C462.607 123.623 459.899 107.748 462.357 92.4048C467.421 60.5346 469.377 29.8491 468.123 1H466.619C467.822 29.6714 465.917 60.2976 460.902 92.0494C458.395 107.866 461.153 124.157 468.675 137.959C475.946 151.347 486.978 161.299 499.765 166.038C505.13 168.052 510.646 169 516.162 169C526.041 169 536.02 165.86 545.297 159.7C562.446 148.267 576.838 127.474 588.171 97.8547C596.043 77.2398 607.978 64.9182 623.673 61.1269C636.41 58.1058 651.704 60.8307 667.901 69.1241C680.036 75.3441 692.272 84.4669 702 94.5374V92.2271Z" fill="#848484"/>
<path d="M374.575 810.844C373.284 809.397 371.644 808.818 369.757 809.049C363.349 809.86 354.607 820.566 348 830H349.937C356.246 821.087 364.293 811.538 369.906 810.786C371.346 810.612 372.539 811.017 373.532 812.117C376.959 815.879 380.784 822.766 384.261 830H386C382.374 822.361 378.251 814.953 374.575 810.844Z" fill="#848484"/>
<path d="M702 58.1705C697.877 58.5852 693.301 58.5852 688.424 58.052C671.278 56.1559 650.562 48.3347 631.555 36.4844C609.532 22.738 591.129 43.2391 569.86 66.9397C553.669 85.0114 535.316 105.453 512.589 112.86C504.594 115.467 498.409 114.104 494.135 108.949C479.604 91.2328 489.308 33.2256 495.945 2H494.387C492.375 11.5395 490.062 23.4491 488.252 35.8919C482.671 74.5832 484.28 99.5873 493.029 110.253C496.197 114.104 500.27 116 505.197 116C507.611 116 510.175 115.526 512.991 114.637C536.02 107.172 554.574 86.552 570.865 68.3025C591.732 45.0759 609.733 24.9896 630.801 38.1435C650.21 50.29 670.624 57.9927 688.223 59.8888C693.15 60.422 697.776 60.4813 701.95 60.0665V58.1705H702Z" fill="#848484"/>
<path d="M516.537 79.8229C517.338 79.941 518.089 80 518.889 80C532.202 80 547.066 62.7585 555.024 52.0121C565.584 37.841 575.843 19.4186 583 2H581.348C574.292 19.0053 564.232 36.9553 553.923 50.8312C539.709 69.9622 526.497 79.6457 516.737 78.0515C512.684 77.402 510.031 75.2173 508.63 71.4974C503.375 57.3263 517.588 24.3785 528.749 2.05905H526.997C524.795 6.54656 522.443 11.3883 520.191 16.4073C507.929 43.6276 503.575 62.4042 507.278 72.2059C508.83 76.5163 511.983 79.1143 516.537 79.8229Z" fill="#848484"/>
<path d="M536.469 39.9409C536.774 40 537.129 40 537.484 40C540.529 40 545.349 37.8727 552.047 28.95C557.019 22.3909 561.789 13.4682 564.579 5.66818C565.036 4.36818 565.543 2.77273 566 1.05909H564.427C564.072 2.3 563.666 3.6 563.209 4.95909C557.476 21.0318 544.385 39.4091 536.723 38.1091C535.302 37.8727 534.389 37.1636 533.882 35.8636C531.294 29.0091 541.797 8.74091 546.313 1H544.486C541.239 6.73182 529.417 28.3 532.512 36.5727C533.171 38.4636 534.491 39.5864 536.469 39.9409Z" fill="#848484"/>
<path d="M701.95 34.0746C695.096 38.4925 687.141 40.1045 678.236 38.7313C668.28 37.2388 657.124 32.2239 645.017 23.806C634.461 16.4627 625.005 7.74627 618.301 1H616C622.854 7.98507 632.91 17.4776 644.266 25.3582C656.574 33.8955 667.93 39.0299 678.086 40.5224C680.187 40.8209 682.239 41 684.29 41C690.793 41 696.697 39.3881 702 36.1045V34.0746H701.95Z" fill="#848484"/>
<path fill-rule="evenodd" clip-rule="evenodd" d="M381.4 532.147C390.95 525.458 407.499 525.278 430.598 531.669C446.557 536.117 460.27 542.298 462.238 543.185C462.304 543.215 462.358 543.239 462.397 543.256C477.246 546.541 479.096 549.468 478.996 551.618C478.896 554.544 474.896 558.546 444.698 563.922C425.948 567.266 403.599 570.014 387.3 571.985L383.25 572.462C380.3 572.821 377.65 573 375.25 573C366.101 573 360.751 570.372 359.351 565.236C356.801 555.978 368.551 541.166 381.4 532.147ZM444.398 562.189C474.047 556.874 477.346 552.992 477.396 551.558C477.446 550.841 476.396 548.213 461.947 544.988L461.797 544.929C461.789 544.925 461.745 544.905 461.665 544.869C460.175 544.189 446.335 537.88 430.198 533.401C421.449 530.953 410.999 528.802 401.499 528.802C394.05 528.802 387.15 530.176 382.1 533.7C375.75 538.179 369.801 543.973 365.751 549.647C361.501 555.679 359.701 560.995 360.701 564.698C362.251 570.193 369.951 572.283 383 570.671L387.1 570.253C388.305 570.102 389.542 569.949 390.808 569.792C406.676 567.821 427.08 565.287 444.398 562.189Z" fill="#848484"/>
<path fill-rule="evenodd" clip-rule="evenodd" d="M392.02 156.819C391.623 152.135 397.036 146.632 408.061 140.368C415.311 136.27 423.902 137.558 429.961 143.705C434.728 148.564 439.893 155.472 437.311 161.209C435.324 165.658 429.017 168 420.625 168C415.013 168 408.458 166.946 401.605 164.78C395.397 162.848 392.269 160.214 392.02 156.819ZM401.952 163.083C417.794 168.117 433.04 166.888 435.97 160.39C437.658 156.701 435.225 151.374 428.968 145.052C425.491 141.598 421.171 139.783 416.801 139.783C414.02 139.783 411.239 140.485 408.657 141.949C398.576 147.686 393.163 152.896 393.461 156.643C393.659 159.16 396.589 161.385 401.952 163.083Z" fill="#848484"/>
<path d="M550.15 811.695C524.023 807.798 508.678 781.699 489.321 748.633C483.905 739.422 478.288 729.856 471.97 719.936C456.123 695.077 438.371 680.138 419.264 675.533C397.55 670.337 373.68 678.367 348.355 699.388C320.523 722.475 280.254 759.616 245.702 794.099C236.024 803.783 223.387 816.655 211 830H213.207C223.035 819.49 234.218 807.916 246.655 795.457C281.157 761.033 321.376 723.892 349.157 700.864C396.347 661.716 437.267 668.506 470.716 721.058C476.984 730.919 482.601 740.485 488.017 749.696C507.625 783.117 523.12 809.452 549.899 813.467C568.905 816.301 579.788 821.852 582.395 830H584C581.543 820.848 570.159 814.707 550.15 811.695Z" fill="#848484"/>
<path d="M407.305 743.278C397.8 738.388 388.043 738.978 378.287 744.987C354.096 759.833 332.168 777.39 313.108 797.244C301.389 809.439 292.538 820.633 286 830H288.012C302.898 808.968 331.666 775.563 378.94 746.519C388.295 740.804 397.599 740.215 406.651 744.869C424.908 754.236 439.191 783.104 447.942 805.727C451.311 814.329 454.127 822.754 456.391 830H458C455.687 822.577 452.82 813.916 449.35 805.02C436.475 771.734 422.292 750.937 407.305 743.278Z" fill="#848484"/>
<path d="M611.821 466.403C613.241 466.821 614.559 467 615.827 467C622.624 467 627.391 461.332 629.166 455.247C631.296 447.789 629.623 437.766 620.899 433.47C606.8 426.489 596.91 424.401 591.432 427.205C588.947 428.458 587.78 431.441 588.034 435.618C588.389 440.928 591.077 447.55 595.236 453.397C599.902 459.96 605.785 464.554 611.821 466.403Z" fill="#848484" stroke="#575757" stroke-width="5"/>
<path fill-rule="evenodd" clip-rule="evenodd" d="M171.986 623.832C170.216 619.561 170.519 613.393 175.476 609.953C182.961 604.793 193.076 607.165 197.072 611.199C198.791 612.919 199.398 614.935 198.741 616.833C197.426 620.866 192.368 625.018 183.77 629.11C182.506 629.703 181.241 630 180.078 630C176.336 630 173.402 627.153 171.986 623.832ZM183.214 627.45C191.306 623.594 196.212 619.68 197.375 616.181C197.881 614.698 196.971 613.393 196.06 612.563C193.936 610.428 189.738 608.826 185.288 608.826C182.202 608.826 179.016 609.597 176.234 611.495C172.087 614.342 171.784 619.324 173.352 623.001C174.919 626.679 178.662 629.644 183.214 627.45Z" fill="#848484"/>
<path fill-rule="evenodd" clip-rule="evenodd" d="M251.796 769.568C249.849 775.529 228.732 788.536 221.743 791.969C220.246 792.752 218.848 793.053 217.45 792.993C213.157 792.993 209.812 789.681 208.164 785.706C206.068 780.648 206.467 773.361 212.158 769.327C222.143 762.221 246.155 761.077 250.948 766.015C251.946 766.978 252.246 768.243 251.796 769.568ZM212.907 770.893C208.015 774.385 207.665 780.467 209.512 784.923C211.359 789.379 215.803 792.993 221.144 790.283C229.98 785.887 248.801 773.602 250.349 768.905C250.498 768.484 250.548 768.002 249.949 767.4C245.656 763.004 222.043 764.389 212.907 770.893Z" fill="#848484"/>
<path d="M41.612 41.9155C49.6846 35.3047 46.9938 14.2812 44.3527 1H42.808C43.5056 4.33518 44.1534 8.20637 44.7015 12.2562C45.9971 22.5596 46.3958 35.8407 40.7649 40.4861C34.1873 45.8463 20.8326 38.8186 1 19.5817V21.9044C16.298 36.615 27.9086 44 35.6822 44C37.9744 43.9404 39.9676 43.2853 41.612 41.9155Z" fill="#848484"/>
<path fill-rule="evenodd" clip-rule="evenodd" d="M339.872 434C332.439 434 324.5 433.126 318.836 430.62C310.746 427.065 310.341 421.762 311.454 417.915C312.617 413.778 314.993 410.747 318.584 408.941C325.006 405.735 335.119 406.493 348.62 411.272C358.582 414.827 366.824 419.314 366.925 419.372C371.173 421.82 371.325 424.151 370.768 425.666C369.1 430.037 358.582 432.601 349.328 433.534C346.446 433.825 343.21 434 339.872 434ZM319.19 410.514C316.005 412.088 313.881 414.768 312.87 418.44C311.605 422.985 313.78 426.54 319.443 428.988C326.118 431.902 337.546 432.951 349.227 431.785C359.998 430.678 368.291 427.881 369.403 424.967C369.959 423.452 367.987 421.936 366.268 420.946C365.762 420.654 343.816 408.766 328.04 408.766C324.753 408.766 321.719 409.232 319.19 410.514Z" fill="#848484"/>
<path d="M611.511 773.428C585.028 767.747 581.868 746.503 577.856 719.578C573.342 689.517 567.774 652.118 527.248 622.293C506.934 607.381 487.473 598.031 467.712 593.711C450.056 589.865 432.502 590.102 414.144 594.481C380.038 602.647 347.837 624.424 316.639 645.431C287.448 665.136 257.254 685.552 224.752 695.612C207.298 701.056 190.646 703.068 173.843 701.885C154.984 700.524 136.426 695.139 117.166 685.375C83.511 668.332 50.0564 662.414 17.7555 667.74C11.7868 668.746 5.86834 670.107 0 671.883V673.717C5.96865 671.942 11.9373 670.521 18.0063 669.516C50.0564 664.19 83.21 670.107 116.614 686.972C140.339 698.985 162.307 703.956 183.022 703.956C233.028 703.956 275.712 675.137 317.392 647.029C349.893 625.075 380.539 604.363 414.445 596.256C432.602 591.877 449.956 591.64 467.411 595.487C487.022 599.747 506.332 609.038 526.445 623.832C544.251 636.91 566.42 653.183 576.401 719.874C578.458 733.78 580.263 745.793 585.028 755.439C590.295 766.149 598.671 772.422 611.26 775.144C648.527 783.192 670.696 795.915 680.978 815.206C683.436 819.763 685.241 824.733 686.445 830H688C686.746 824.378 684.89 819.171 682.232 814.259C671.699 794.554 649.229 781.535 611.511 773.428Z" fill="#848484"/>
<path d="M582.335 792.853C550.791 787.292 547.832 776.113 541.413 751.742C535.796 730.507 527.321 698.328 494.172 651.657C449.589 588.838 402.298 628.115 347.535 673.602C292.02 719.741 229.082 771.972 152.254 734.351C122.816 719.918 93.1274 712.82 63.9405 713.116C42.2258 713.353 20.7117 717.73 0 726.129V728.022C20.7117 719.563 42.1756 715.186 63.9405 714.95C92.9268 714.595 122.415 721.752 151.652 736.067C186.255 753.043 221.209 753.339 258.42 737.072C290.967 722.817 320.154 698.565 348.388 675.14C375.469 652.663 401.045 631.427 424.966 623.856C451.395 615.456 473.009 624.684 493.019 652.899C525.967 699.334 534.392 731.276 539.959 752.393C546.378 776.763 549.637 789.008 582.134 794.745C601.141 798.117 613.026 806.398 617.49 819.353C618.593 822.606 619.245 826.155 619.496 830H621C620.799 825.919 620.097 822.133 618.894 818.702C614.18 804.979 601.893 796.343 582.335 792.853Z" fill="#848484"/>
<path d="M426.467 712.919C412.53 701.99 393.83 702.345 370.919 714.159C352.721 723.493 331.815 740.033 308.754 763.189C285.191 786.936 264.135 812.928 251 830H253.005C266.14 812.928 286.695 787.645 309.706 764.489C332.668 741.392 353.423 724.97 371.471 715.695C393.881 704.176 412.079 703.704 425.565 714.337C456.898 738.97 473.543 780.557 488.232 817.24C489.987 821.553 491.641 825.806 493.346 829.941H495C493.195 825.57 491.39 821.08 489.586 816.472C474.896 779.611 458.152 737.788 426.467 712.919Z" fill="#848484"/>
<path d="M385.628 776.027C379.134 770.541 370.742 770.66 360.702 776.384C352.809 780.916 343.868 788.905 334.128 800.174C324.837 810.966 316.495 822.712 311 831H312.948C328.533 807.806 364.248 760.167 384.728 777.458C397.966 788.667 405.708 810.907 412.402 831H414C407.207 810.549 399.364 787.653 385.628 776.027Z" fill="#848484"/>
<path d="M139.296 774.087C126.405 770.198 113.062 766.192 101.074 761.42C71.3284 749.459 36.868 759.534 13.1922 770.08C8.5273 772.143 4.11317 774.323 0 776.503V778.447C4.26365 776.208 8.87843 773.91 13.744 771.73C37.169 761.302 71.2782 751.345 100.572 763.128C112.56 767.959 125.953 771.966 138.895 775.854C167.988 784.574 195.476 792.823 197.382 807.788C198.185 814.092 194.473 821.457 186.146 830H188.353C196.228 821.457 199.689 814.033 198.887 807.493C196.78 791.35 170.145 783.337 139.296 774.087Z" fill="#848484"/>
<path d="M120.009 800.443C110.1 798.406 98.0387 798.526 86.9287 800.802C66.36 804.997 26.1236 818.418 0 827.465V829.322C26.1236 820.275 66.6103 806.794 87.2289 802.54C98.1888 800.323 110.05 800.143 119.808 802.181C133.921 805.116 138.876 811.288 140.577 816.021C142.129 820.275 141.728 825.308 139.426 831H141.128C143.33 825.128 143.58 819.856 141.928 815.302C138.575 806.075 128.166 802.121 120.009 800.443Z" fill="#848484"/>
<path d="M61.5905 473.145C84.2421 491.148 99.0258 516.968 112.005 539.768C126.739 565.588 139.518 587.914 159.464 591.526C161.318 591.882 163.222 592 165.127 592C180.512 592 198.803 581.518 222.006 559.429C239.396 542.847 253.879 527.805 266.658 514.481C293.62 486.351 313.114 466.038 334.663 459.465C356.663 452.714 380.818 459.82 418.003 483.923C448.373 503.643 484.605 517.205 517.33 521.113C532.565 522.949 546.396 522.594 557.371 519.988C568.948 517.264 577.066 512.349 581.426 505.302C587.39 495.649 588.843 477.705 561.731 446.97C529.307 410.194 492.423 405.752 453.384 401.074C427.525 397.994 400.764 394.737 373.752 381.886C343.183 367.378 316.672 342.15 292.667 304.9C274.927 277.363 254.23 264.334 232.731 267.236C218.097 269.19 203.715 278.31 189.983 294.241C176.202 310.348 163.773 332.556 153.149 360.271C145.231 380.821 136.511 391.362 126.338 392.428C104.338 394.737 78.8799 351.033 54.3239 308.749C42.0459 287.608 29.367 265.815 17.2894 250.181C11.0251 241.949 5.31211 235.968 0 232V234.191C16.8885 247.338 35.2303 278.843 53.1211 309.638C65.4493 330.839 78.2284 352.809 90.5064 368.799C103.636 385.854 114.862 394.204 124.734 394.204C125.336 394.204 125.937 394.145 126.539 394.086C137.263 392.961 146.434 382.123 154.552 360.923C165.127 333.385 177.405 311.355 191.086 295.425C204.567 279.732 218.649 270.789 232.931 268.894C253.829 266.111 274.125 278.902 291.515 305.907C315.67 343.453 342.431 368.799 373.201 383.426C400.413 396.395 427.274 399.593 453.234 402.732C492.022 407.41 528.656 411.793 560.729 448.154C587.089 478.06 585.886 495.116 580.273 504.176C572.055 517.382 548.601 523.008 517.53 519.278C485.006 515.369 448.974 501.867 418.755 482.265C381.219 457.925 356.764 450.819 334.312 457.688C312.412 464.38 292.818 484.811 265.706 513.119C252.927 526.443 238.494 541.485 221.104 558.008C195.345 582.525 175.851 592.592 159.714 589.69C140.42 586.256 127.842 564.226 113.258 538.702C100.178 515.784 85.3446 489.845 62.4424 471.605C43.4491 456.504 25.3578 448.924 8.46931 448.924C5.6128 448.924 2.8064 449.161 0 449.575V451.352C18.9933 448.45 39.6404 455.675 61.5905 473.145Z" fill="#848484"/>
<path d="M28.1252 647.922C51.3372 648.336 77.3067 653.848 100.218 658.648C133.056 665.582 158.925 671.034 162.133 658.47C166.946 639.625 151.304 624.038 125.335 598.259C106.735 579.768 83.5233 556.774 58.7069 523.705C40.0571 498.933 21.4574 487.673 3.50938 490.399C2.40643 490.577 1.25335 490.814 0 491.11V492.947C1.20322 492.651 2.45657 492.355 3.70992 492.177C21.1566 489.569 39.2549 500.592 57.604 524.95C82.5206 558.137 105.733 581.191 124.382 599.74C149.851 625.046 165.242 640.336 160.73 658.056C157.922 669.079 131.301 663.449 100.519 656.989C67.2799 649.936 28.2255 641.699 0 648.87V650.707C8.02144 648.633 17.3464 647.744 28.1252 647.922Z" fill="#848484"/>
<path d="M94.0457 638C107.045 638 114.345 635.212 115.745 629.576C118.845 617.295 92.9957 595.166 77.2465 583.063C54.9975 565.917 28.4987 549.78 14.2493 544.619C9.49957 542.898 4.69978 541.712 0 541V542.78C4.54979 543.492 9.19958 544.678 13.7994 546.339C27.9487 551.442 54.2975 567.46 76.3965 584.546C102.145 604.421 116.295 621.032 114.245 629.042C112.245 636.873 94.4457 638.297 64.0971 633.076C39.5482 628.923 13.8994 621.626 0.0499977 616.998V618.837C14.0494 623.524 39.5482 630.703 63.9471 634.915C76.0965 636.991 86.1461 638 94.0457 638Z" fill="#848484"/>
<path d="M29.8124 606C35.8453 606 39.2137 604.629 39.8672 601.887C41.2749 596.402 31.2201 587.282 22.5227 580.605C15.0319 574.823 6.48533 569.338 0 566V567.967C6.33451 571.306 14.5292 576.611 21.7183 582.155C32.8791 590.739 39.2639 598.131 38.4093 601.41C37.0519 606.715 16.892 603.735 0 599.264V601.052C5.07767 602.364 10.7586 603.675 16.2887 604.629C21.8189 605.523 26.2933 606 29.8124 606Z" fill="#848484"/>
<path fill-rule="evenodd" clip-rule="evenodd" d="M170.414 559C168.962 559 167.559 558.822 166.206 558.408C153.932 554.853 144.162 544.544 137.95 528.725C131.688 512.61 129.584 491.814 131.938 468.53C134.092 447.557 140.355 426.762 150.174 408.395C185.094 342.928 214.101 307.024 236.395 301.692C243.559 299.974 250.122 301.455 255.784 306.136C277.015 323.577 290.864 340.555 303.079 355.529L303.528 356.08L303.637 356.214C322.523 379.376 337.458 397.692 370.16 408.277C390.851 414.972 400.621 421.133 399.969 427.176C399.468 431.857 392.455 435.589 379.078 438.315C366.102 440.922 347.365 442.521 324.921 442.877C307.987 443.173 290.402 450.934 271.114 466.753C254.281 480.617 238.349 498.687 224.271 514.684C203.48 538.323 185.294 559 170.414 559ZM151.477 409.343C141.808 427.473 135.595 448.031 133.491 468.767C131.187 491.696 133.241 512.195 139.403 528.014C145.365 543.359 154.783 553.312 166.607 556.749C167.859 557.104 169.162 557.282 170.465 557.282C184.692 557.282 202.677 536.843 223.217 513.501L223.219 513.499C237.297 497.443 253.279 479.313 270.262 465.39C289.801 449.394 307.687 441.455 324.921 441.159C347.315 440.803 365.952 439.203 378.828 436.597C395.41 433.219 398.266 429.131 398.517 426.999C399.218 420.244 378.677 412.839 369.81 409.995C336.644 399.212 321.564 380.727 302.526 357.325L302.32 357.072C290.097 342.085 276.255 325.114 254.982 307.617C251.074 304.417 246.766 302.818 242.056 302.818C240.353 302.818 238.55 303.055 236.746 303.469C214.903 308.683 186.196 344.29 151.477 409.343Z" fill="#848484"/>
<path fill-rule="evenodd" clip-rule="evenodd" d="M524.517 493.671C500.967 489.628 474.102 482.91 458.234 478.333C431.721 470.723 420.373 464.005 419.118 455.087C417.963 447.062 425.294 437.371 442.116 424.589C451.305 417.634 463.256 416.147 477.768 420.309C489.267 423.579 502.373 430.356 516.734 440.463C540.636 457.287 560.169 477.857 561.123 478.868C568.153 484.753 570.965 489.153 569.71 492.422C568.505 495.454 563.684 497 555.047 497C547.666 497 537.523 495.87 524.517 493.671ZM462.653 419.774C455.021 419.774 448.443 421.914 442.919 426.075C426.901 438.263 419.62 447.656 420.574 454.671C421.98 464.718 440.559 471.377 458.536 476.549C502.122 489.093 564.538 501.34 568.254 491.649C568.756 490.342 568.404 487.131 560.169 480.235L560.119 480.175C560.107 480.165 560.031 480.086 559.894 479.943C557.634 477.597 538.79 458.03 515.931 441.949C501.72 431.961 488.765 425.243 477.416 422.033C472.144 420.547 467.223 419.774 462.653 419.774Z" fill="#848484"/>
<path fill-rule="evenodd" clip-rule="evenodd" d="M505.266 471.758C496.375 470.221 486.185 467.678 480.192 465.963C471.551 463.479 465.707 460.936 465.057 456.678C464.558 453.366 467.305 449.641 473.948 444.614C480.341 439.706 490.031 441.716 502.618 450.587C511.559 456.856 518.901 464.543 519.451 465.135C521.449 466.791 523.597 468.979 522.847 470.93C522.448 471.995 521.299 473 516.903 473C514.306 473 510.61 472.645 505.266 471.758ZM481.99 443.845C479.343 443.845 476.895 444.555 474.797 446.152C469.003 450.528 466.206 454.017 466.506 456.382C467.005 459.872 473.848 462.296 480.491 464.189C502.818 470.635 520.5 472.645 521.449 470.221C521.449 470.221 521.748 469.333 518.552 466.613L518.502 466.554C518.493 466.546 518.457 466.508 518.395 466.445C516.74 464.733 496.533 443.845 481.99 443.845Z" fill="#848484"/>
<path d="M622.886 146.23C610.695 151.502 603.471 165.242 593.387 184.313C588.521 193.552 582.952 204.035 575.979 215.17C553.303 251.12 530.477 237.913 492.651 216.058C473.136 204.746 448.804 190.709 418.754 180.523C375.058 165.716 345.911 166.486 329.657 182.892C314.757 197.935 310.041 225.712 314.757 270.31C318.871 308.984 343.453 338.775 387.801 358.912C429.59 377.864 479.055 383.254 504.791 384.853C549.541 387.518 588.822 395.692 621.632 409.017C647.819 419.678 669.943 433.656 687.351 450.594C693.07 456.162 697.936 461.67 702 467V464.394C698.137 459.537 693.672 454.444 688.455 449.351C670.896 432.234 648.622 418.138 622.234 407.418C589.274 394.033 549.792 385.86 504.892 383.136C479.206 381.596 429.941 376.206 388.353 357.313C344.556 337.472 320.275 308.155 316.262 270.191C311.596 226.245 316.162 199.001 330.66 184.372C346.513 168.381 375.209 167.67 418.353 182.359C448.303 192.545 472.534 206.523 491.999 217.776C511.213 228.91 526.414 237.676 539.959 239.216C554.658 240.874 566.146 233.826 577.183 216.354C584.207 205.22 589.775 194.678 594.692 185.379C604.575 166.604 611.749 153.042 623.438 148.007C635.779 142.677 652.485 147.178 679.374 163.051C687.552 167.907 695.077 173.238 702 178.864V176.614C695.278 171.165 687.953 166.071 680.027 161.392C652.685 145.283 635.628 140.722 622.886 146.23Z" fill="#848484"/>
<path d="M652.634 202.02C640.306 202.435 629.881 209.371 621.662 222.65C614.195 234.683 608.932 245.65 604.221 255.253C589.086 286.375 582.17 300.602 535.811 279.083C522.279 272.8 506.342 263.671 489.453 254.008C442.944 227.333 390.22 197.1 362.305 211.801C353.885 216.188 348.122 224.606 345.165 236.699C341.156 253.06 342.709 267.879 349.876 280.743C360.3 299.416 382.252 314.236 416.933 326.092C443.896 335.339 478.627 342.749 526.138 349.507C572.798 356.146 621.111 373.811 662.107 399.183C677.392 408.667 690.974 418.863 702 429V426.629C691.125 416.788 677.894 406.948 662.758 397.582C621.612 372.092 573.098 354.368 526.239 347.728C478.778 340.971 444.147 333.561 417.284 324.313C382.953 312.576 361.303 297.934 351.079 279.676C344.163 267.287 342.659 253 346.518 237.114C349.425 225.376 354.737 217.611 362.806 213.402C390.12 199.056 442.493 229.111 488.701 255.609C505.59 265.33 521.578 274.459 535.16 280.743C558.063 291.354 572.146 293.725 582.27 288.568C592.043 283.588 597.656 272.088 605.374 256.142C610.035 246.539 615.297 235.691 622.714 223.717C630.633 210.912 640.656 204.214 652.534 203.799C669.273 203.265 687.466 215.358 701.95 228.222V225.969C679.197 205.814 662.758 201.665 652.634 202.02Z" fill="#848484"/>
<path d="M650.327 247.393C641.515 249.175 635.005 257.375 630.95 271.754C618.833 314.595 590.493 311.684 571.716 309.782C561.502 308.713 554.091 308 553.19 314.952C552.038 323.746 556.094 330.519 566.108 336.164C575.021 341.215 587.839 345.136 602.66 349.593C633.704 358.981 673.46 371.043 701.95 402V399.564C673.31 369.141 633.854 357.198 603.01 347.87C573.569 338.957 552.339 332.54 554.642 315.189C555.293 310.139 561.201 310.495 571.566 311.565C581.18 312.516 593.096 313.763 604.362 309.248C617.681 303.9 626.844 291.838 632.352 272.349C636.207 258.682 642.366 250.839 650.577 249.175C666.049 245.967 686.428 264.446 702 282.153V279.657C701.199 278.706 700.348 277.815 699.496 276.864C679.268 254.761 662.745 244.838 650.327 247.393Z" fill="#848484"/>
<path d="M671.425 293.085C663.769 289.752 657.306 290.407 652.334 295.109C648.258 298.918 646.518 304.335 647.114 311.18C649.252 334.87 679.429 369.75 702 386V383.857C692.007 376.536 680.871 365.822 671.326 354.215C657.704 337.608 649.6 322.251 648.556 310.882C648.009 304.752 649.55 299.871 653.229 296.418C666.603 283.859 688.627 305.883 702 322.192V319.632C698.918 315.882 695.388 311.954 691.659 308.204C684.252 300.823 677.441 295.704 671.425 293.085Z" fill="#848484"/>
<path fill-rule="evenodd" clip-rule="evenodd" d="M528.826 311.956C528.999 312.102 529.096 312.183 529.112 312.196C535.074 317.496 537.179 321.842 535.375 325.117C533.371 328.63 526.907 330 518.389 330C506.715 330 491.082 327.44 477.353 324.165C443.932 316.245 412.065 302.788 392.123 288.2C369.676 271.766 362.06 253.962 370.127 236.694C372.281 232.05 375.889 229.073 380.799 227.763C396.633 223.595 426.445 236.516 469.336 266.288C499.477 287.126 525.808 309.402 528.826 311.956ZM515.533 328.095C529.412 328.511 533.12 325.713 534.072 324.046C535.726 321.187 531.817 316.781 528.21 313.625C526.907 312.494 428.7 228.775 387.163 228.775C384.958 228.775 382.954 229.013 381.1 229.49C376.64 230.681 373.384 233.36 371.43 237.528C367.421 246.102 367.471 254.796 371.63 263.43C375.388 271.29 382.553 279.09 392.875 286.652C412.666 301.121 444.333 314.519 477.603 322.378C491.883 325.772 505.362 327.797 515.533 328.095Z" fill="#848484"/>
<path fill-rule="evenodd" clip-rule="evenodd" d="M477.143 296.36C477.506 296.623 477.708 296.769 477.73 296.782C478.483 297.427 480.842 299.48 479.687 301.416C479.035 302.589 477.027 303 474.317 303C466.889 303 454.292 299.598 451.08 298.718C434.367 294.025 418.859 287.279 409.625 280.651C400.34 273.964 397.128 267.453 400.039 261.293C400.741 259.827 401.946 258.83 403.552 258.36C410.076 256.425 424.581 262.291 446.613 275.841C461.105 284.753 474.25 294.266 477.143 296.36ZM451.431 296.958C468.495 301.709 477.63 301.827 478.483 300.36C478.583 300.302 478.433 299.598 476.827 298.19C475.421 297.134 424.129 259.71 406.412 259.71C405.459 259.71 404.656 259.827 403.903 260.062C402.648 260.414 401.845 261.117 401.343 262.115C398.884 267.277 401.896 272.967 410.377 279.067C419.461 285.637 434.819 292.324 451.431 296.958Z" fill="#848484"/>
<path fill-rule="evenodd" clip-rule="evenodd" d="M181.256 514.507C176.255 516.994 172.155 518 168.804 518C162.004 518 158.303 513.856 156.203 509.475C142.851 481.473 173.005 391.309 214.01 356.144C226.262 345.665 237.263 341.402 246.665 343.534C254.416 345.31 261.067 351.289 266.467 361.353C271.768 371.181 274.318 382.547 273.968 394.269C273.618 405.932 270.368 417.121 264.617 426.593L263.067 429.139L262.976 429.288C243.902 460.677 224.194 493.11 181.256 514.507ZM214.91 357.683C196.358 373.608 178.106 403.031 166.104 436.361C154.853 467.56 151.502 495.977 157.503 508.646C161.553 517.112 169.304 518.533 180.656 512.849C223.262 491.596 242.864 459.331 261.817 428.073L263.367 425.527C268.968 416.351 272.118 405.517 272.468 394.21C272.818 382.843 270.318 371.832 265.217 362.36C260.066 352.769 253.716 347.027 246.415 345.369C244.914 345.014 243.364 344.836 241.814 344.836C233.863 344.836 224.862 349.158 214.91 357.683Z" fill="#848484"/>
<path fill-rule="evenodd" clip-rule="evenodd" d="M195.632 473.805C192.523 475.347 189.966 476 187.91 476C183.949 476 181.793 473.686 180.64 471.254C177.18 464.017 179.286 448.711 186.105 431.33C193.225 413.296 203.905 396.922 214.735 387.668C221.905 381.558 228.323 379.066 233.889 380.312C238.452 381.32 242.413 384.821 245.572 390.753C251.839 402.499 251.438 417.448 244.469 428.898C233.387 447.11 221.304 460.991 195.632 473.805ZM215.638 389.151C205.058 398.228 194.528 414.304 187.509 432.101C180.94 448.652 178.784 463.72 181.993 470.424C184.099 474.873 188.512 475.466 195.08 472.203C220.451 459.568 232.334 445.864 243.265 427.889C249.884 417.033 250.285 402.855 244.318 391.761C241.36 386.304 237.8 383.041 233.638 382.092C232.786 381.914 231.933 381.795 231.031 381.795C226.468 381.795 221.354 384.287 215.638 389.151Z" fill="#848484"/>
<path d="M679.831 478.433C667.042 469.479 654.302 467.581 644.021 473.096C628.723 481.221 621.702 503.993 627.72 526.054C629.275 531.747 628.322 536.314 624.911 539.872C614.128 551.021 579.27 551.97 529.215 542.422C485.982 534.179 439.387 519.294 415.865 506.128C396.354 495.216 380.606 493.437 369.02 500.732C358.738 507.196 351.967 521.073 349.409 540.761C345.597 570.235 293.185 598.345 251.055 620.88C221.162 636.892 197.539 649.524 194.379 659.902C193.828 661.681 193.878 663.342 194.53 664.884C197.338 671.763 204.21 672.949 216.899 668.738C228.585 664.824 245.136 656.463 266.051 645.847C298.501 629.361 342.989 606.766 400.066 585.239C446.861 567.626 487.536 569.642 520.94 591.229C539.046 602.971 554.694 620.287 567.434 642.704C578.317 661.919 586.994 684.869 592.461 709.124C596.473 726.915 605.251 741.741 618.592 753.187C629.375 762.438 643.218 769.554 659.669 774.358C672.509 778.094 687.104 780.348 702 781V779.221C687.204 778.569 672.76 776.315 660.02 772.579C643.77 767.894 630.128 760.837 619.495 751.704C606.454 740.496 597.878 726.026 593.916 708.59C588.398 684.098 579.671 660.97 568.688 641.637C555.798 618.923 539.999 601.429 521.642 589.568C487.887 567.685 446.81 565.669 399.614 583.401C342.437 604.928 297.95 627.522 265.449 644.068C223.971 665.121 201.1 676.744 195.884 663.994C195.433 662.867 195.382 661.681 195.784 660.377C198.743 650.71 223.269 637.545 251.707 622.363C272.872 611.036 296.897 598.167 315.805 584.527C337.673 568.753 349.158 554.461 350.914 540.88C353.371 521.784 359.891 508.382 369.722 502.155C380.906 495.098 396.204 496.936 415.263 507.611C450.271 527.181 535.736 550.546 587.646 550.546C605.552 550.546 619.495 547.759 625.965 541.058C629.877 537.025 630.98 531.747 629.225 525.342C623.457 504.171 630.128 482.288 644.723 474.519C663.481 464.556 684.245 479.619 701.95 503.222V500.198C694.627 491.006 687.254 483.652 679.831 478.433Z" fill="#848484"/>
<path d="M673.883 507.061C668.671 505.165 663.759 505.817 659.299 508.957C646.218 518.258 649.075 535.319 651.581 550.425C653.335 560.911 654.989 570.804 650.929 576.313C648.122 580.105 642.66 581.704 634.29 581.112C615.194 579.809 596.851 575.01 582.116 571.16C562.52 566.065 548.336 562.333 543.174 569.145C541.62 571.219 540.868 573.529 541.019 576.077C541.42 584.133 550.441 593.553 561.918 605.46C578.407 622.64 598.956 644.085 606.023 672.876C612.939 700.956 622.261 728.74 643.812 741.595C652.082 746.512 661.755 749 672.931 749C681.652 749 691.325 747.519 701.95 744.498V742.661C677.893 749.533 658.948 748.645 644.464 739.995C623.464 727.436 614.242 700.067 607.426 672.343C600.209 643.078 579.51 621.455 562.871 604.097C551.694 592.427 542.873 583.245 542.472 575.899C542.372 573.825 542.973 571.989 544.277 570.271C548.837 564.228 563.372 568.02 581.815 572.818C596.6 576.669 615.044 581.467 634.24 582.771C643.111 583.363 648.924 581.586 652.082 577.321C656.592 571.16 654.888 560.852 653.084 549.951C650.528 534.727 647.922 519.028 660.101 510.379C664.16 507.476 668.671 506.943 673.482 508.601C681.953 511.623 691.726 521.99 702 538.636V535.556C693.68 522.582 683.757 510.556 673.883 507.061Z" fill="#848484"/>
<path d="M683.736 565.889C676.45 568.676 671.36 577.987 671.111 589.136C670.961 596.134 669.763 600.463 667.318 603.132C662.029 608.885 649.902 607.995 627.846 606.394L625.251 606.216C616.718 605.623 612.077 606.927 610.53 610.308C608.184 615.586 613.923 624.541 621.907 636.995C629.043 648.084 637.926 661.843 642.916 676.55C646.759 687.818 653.296 695.587 662.278 699.679C667.568 702.051 673.356 703 679.145 703C687.329 703 695.463 701.162 702 699.086V697.188C690.024 701.043 675.003 703.474 662.827 698.018C654.244 694.164 648.006 686.691 644.313 675.898C639.223 660.953 630.291 647.076 623.105 635.927C616.019 624.956 609.931 615.467 611.827 611.197C613.025 608.529 617.366 607.521 625.101 608.054L627.696 608.232C650.851 609.893 662.528 610.723 668.266 604.496C671.061 601.472 672.408 596.727 672.558 589.196C672.807 578.817 677.448 570.159 684.135 567.609C689.475 565.593 695.613 567.431 702 572.709V570.456C693.816 563.991 687.479 564.466 683.736 565.889Z" fill="#848484"/>
<path d="M671.005 627.297C666.29 633.611 664.836 641.592 666.942 649.812C669.25 658.746 677.776 663.809 692.27 664.821C694.176 664.94 696.082 665 697.887 665C699.292 665 700.696 664.94 702 664.881V663.094C689.913 663.63 671.657 662.201 668.347 649.216C666.391 641.592 667.745 634.207 672.058 628.429C678.077 620.388 688.86 616.279 701.95 616.815V615.028C688.509 614.611 677.324 618.899 671.005 627.297Z" fill="#848484"/>
<path d="M55.3574 444.966C74.3802 454.161 92.5474 463 104.827 463C108.148 463 111.017 462.347 113.382 460.924C116.703 458.907 118.817 455.288 119.723 450.246C121.887 438.381 111.168 426.932 94.9127 409.61C78.8088 392.466 56.7665 369.034 37.2907 333.915C24.0553 310.127 11.625 294.822 0.0503249 288V289.958C11.1721 296.78 23.1998 311.729 35.9823 334.864C55.609 370.22 77.7016 393.712 93.8559 410.915C109.708 427.822 120.226 438.975 118.213 449.831C117.358 454.398 115.546 457.483 112.627 459.263C102.21 465.729 79.7146 454.814 55.9109 443.246C40.2096 435.653 23.9546 427.763 9.86368 424.203C6.34093 423.314 3.01949 422.72 0 422.424V424.203C2.91884 424.5 6.13963 425.034 9.56173 425.924C23.552 429.542 39.7566 437.373 55.3574 444.966Z" fill="#848484"/>
<path d="M47.5811 413C52.7573 413 56.0422 411.467 57.386 408.459C60.6709 400.911 50.7665 386.522 27.8718 365.529C17.5194 356.094 6.76886 347.366 0 342V344.064C22.6458 361.932 61.2682 395.722 56.092 407.634C54.997 410.169 52.0107 411.29 47.83 411.29C36.8306 411.29 17.3203 403.86 0 395.958V397.845C3.73283 399.555 7.66474 401.265 11.6464 402.916C27.7722 409.639 39.8168 413 47.5811 413Z" fill="#848484"/>
<path fill-rule="evenodd" clip-rule="evenodd" d="M262.792 552.873C265.513 547.475 268.385 542.61 271.408 538.339C280.981 524.695 295.491 517.577 310.051 519.238C318.617 520.246 322.949 523.805 323 529.916C323.101 550.144 270.854 592.381 247.325 595.347C243.899 595.822 241.279 596 239.314 596C235.082 596 233.671 595.11 233.167 593.805C232.16 591.076 235.787 587.161 241.833 580.636C248.282 573.695 257.099 564.204 262.792 552.873ZM293.072 567.763C310.656 553.051 321.589 538.517 321.539 529.975C321.539 524.933 317.609 521.907 310.001 521.077C308.641 520.899 307.28 520.839 305.92 520.839C293.224 520.839 281.031 527.602 272.617 539.466C269.644 543.619 266.823 548.483 264.153 553.763C258.411 565.227 249.551 574.769 243.066 581.752L242.891 581.941L242.663 582.188C238.4 586.797 234.034 591.519 234.628 593.034C234.981 593.983 237.45 594.814 247.224 593.568C258.006 592.203 275.993 582.059 293.072 567.763Z" fill="#848484"/>
<path d="M48.9361 234.689C60.2059 259.237 72.2772 284.497 84.0479 302.938C97.0207 323.157 108.291 333 118.559 333C118.659 333 118.759 333 118.859 333C129.077 332.822 138.093 323.098 146.408 303.412C163.888 262.083 184.575 236.824 206.263 230.479C221.089 226.151 236.316 230.42 251.492 243.287C263.163 253.189 271.478 256.45 276.787 253.308C284.651 248.683 285.102 231.428 285.602 211.505C286.153 189.625 286.754 164.78 297.824 153.396C302.983 148.119 309.895 146.162 318.961 147.348C342.703 150.55 365.293 146.28 384.276 135.133C402.308 124.519 416.282 108.332 424.647 88.2901C432.611 69.2564 434.915 47.7917 431.409 26.3269C429.956 17.3734 427.502 8.59776 424.146 0H422.443C434.164 29.2917 434.815 60.125 423.345 87.5192C415.13 107.205 401.406 123.096 383.675 133.532C364.942 144.561 342.603 148.712 319.162 145.569C309.795 144.324 302.282 146.458 296.872 152.032C285.302 163.891 284.701 189.151 284.1 211.386C283.649 229.946 283.198 247.497 276.136 251.647C271.327 254.494 263.564 251.232 252.344 241.745C236.767 228.582 221.139 224.194 205.862 228.641C183.723 235.163 162.686 260.72 145.055 302.522C136.991 321.556 128.426 330.925 118.859 331.103C118.759 331.103 118.659 331.103 118.559 331.103C96.7702 331.103 72.8782 283.014 50.2384 233.681C36.364 203.619 19.5344 182.865 0 171.837V173.793C18.9333 184.763 35.3622 205.16 48.9361 234.689Z" fill="#848484"/>
<path d="M67.8004 159C76.476 159 84.0985 157.522 90.3671 154.506C104.659 147.647 111.78 133.632 111.53 112.7C111.279 92.1811 115.943 76.9251 125.772 66.104C149.993 39.2582 202.147 43.8705 257.411 48.8376C265.535 49.5472 273.96 50.3159 282.234 50.9663C290.308 51.6168 297.73 51.9124 304.55 51.9124C335.692 51.9124 353.344 45.3488 357.206 32.2807C359.914 23.0561 355.4 11.8802 348.179 1H346.223C353.645 11.8211 358.359 22.8787 355.802 31.7485C351.388 46.768 326.716 52.6811 282.385 49.2515C274.11 48.601 265.685 47.8323 257.561 47.1228C201.997 42.1557 149.492 37.4843 124.769 64.8623C114.639 76.0973 109.825 91.7672 110.075 112.818C110.326 132.923 103.506 146.464 89.8656 152.969C72.3137 161.365 43.7794 157.522 11.4839 142.443C7.62253 140.669 3.81126 138.718 0 136.707V138.659C3.61067 140.61 7.27149 142.443 10.9323 144.099C32.0948 153.915 51.7529 159 67.8004 159Z" fill="#848484"/>
<path d="M39.1424 102.882C57.1851 101.578 72.4712 90.3833 84.6499 69.5923L86.6547 66.1568C101.44 40.9233 108.857 28.2474 119.833 22.9756C130.809 17.7038 145.694 19.5993 175.364 23.4495C178.973 23.9233 182.832 24.3972 186.891 24.9303C222.074 29.3728 247.535 30.9129 264.725 29.4913C281.314 28.1289 290.737 24.1603 294.345 16.993C296.55 12.6098 296.45 7.27875 294.646 1H293.092C294.896 7.04181 295.097 12.0767 293.042 16.1045C289.734 22.561 280.462 26.4111 264.625 27.7143C247.484 29.1359 222.125 27.6551 187.042 23.1533C182.982 22.6202 179.123 22.1463 175.515 21.6725C145.594 17.7631 130.608 15.8084 119.232 21.3171C107.855 26.8258 100.337 39.6202 85.4017 65.1498L83.397 68.5854C71.4688 88.9024 56.5836 99.8606 39.0422 101.105C30.0209 101.756 16.94 99.9199 0 90.561V92.5157C14.8852 100.631 26.8133 103 35.6843 103C36.9372 103 38.09 102.941 39.1424 102.882Z" fill="#848484"/>
<path d="M59.4767 60.7608C66.6239 56.816 71.522 50.104 73.971 40.8013C77.6196 27.2594 78.4193 13.5998 77.8195 1H76.3201C76.9199 13.4232 76.1202 26.9062 72.5216 40.2714C70.1725 49.103 65.5243 55.4618 58.777 59.1711C42.7333 68.0028 17.793 60.7608 0 53.5189V55.4029C11.9453 60.2309 27.0394 65 40.6341 65C47.4814 65 53.9789 63.7636 59.4767 60.7608Z" fill="#848484"/>
<path d="M369.454 44.719C359.514 67.8817 315.487 64.742 314.985 64.6828C290.336 64.6828 267.444 62.6094 247.263 60.7137C217.242 57.9294 191.287 55.5598 172.11 61.4246C161.969 64.5051 154.087 69.7774 148.063 77.4786C141.537 85.7721 137.119 96.9685 134.509 111.601C125.824 160.533 103.082 166.397 84.7584 171.077C73.7139 173.921 64.1755 176.35 61.0128 187.961C58.1513 198.565 61.4646 219.654 69.5471 241.691C78.1819 265.328 89.9292 283.633 100.974 290.623C104.538 292.874 108.102 294 111.466 294C117.892 294 123.966 289.972 129.288 282.093C137.37 270.126 143.947 257.094 150.322 244.476C162.22 220.898 172.461 200.579 188.375 196.017C198.165 193.233 209.561 196.669 223.115 206.681C241.088 219.891 253.538 224.038 261.219 219.358C270.757 213.552 271.711 195.603 272.715 176.527C274.07 150.936 275.476 124.456 297.766 125.641C302.886 125.877 307.806 126.055 312.575 126.055C360.769 126.055 392.045 112.608 405.55 85.9499C416.193 65.0382 413.482 39.8021 409.365 22.3856C407.407 14.0328 404.947 6.68702 402.789 1H401.132C403.341 6.68702 405.901 14.329 407.909 22.9187C415.189 53.9011 409.917 73.8057 404.244 85.0613C389.686 113.733 353.842 126.825 297.816 123.923C287.123 123.389 279.994 128.721 276.028 140.273C272.564 150.284 271.862 163.613 271.209 176.527C270.255 195.07 269.301 212.545 260.516 217.877C253.337 222.261 241.389 218.114 223.868 205.259C209.912 195.01 198.165 191.456 187.974 194.418C171.457 199.157 161.015 219.773 148.967 243.705C142.641 256.264 136.065 269.238 128.033 281.086C120.201 292.637 111.315 295.303 101.576 289.142C90.8328 282.33 79.2863 264.38 70.8022 241.099C63.0209 219.773 59.6071 198.683 62.318 188.612C65.2297 177.949 73.9147 175.698 84.9592 172.914C94.1964 170.544 104.638 167.878 113.976 159.466C124.769 149.751 131.948 134.23 135.864 112.015C140.734 84.4689 151.979 69.422 172.361 63.2018C180.895 60.5952 190.886 59.6474 201.98 59.6474C215.434 59.6474 230.646 61.0691 247.012 62.5501C267.243 64.3866 290.135 66.5192 314.784 66.5192C314.784 66.5192 314.784 66.5192 314.835 66.5192C314.935 66.5192 326.281 67.4078 338.681 65.2752C355.548 62.4317 366.292 55.7968 370.709 45.6076C375.479 34.5297 372.416 19.6013 361.573 1.05924H359.765C370.81 19.3643 374.023 34.0558 369.454 44.719Z" fill="#848484"/>
<path d="M372.52 65.394C364.287 77.5589 339.386 82.6029 300.58 79.9919C271.111 78.0336 243.8 72.2775 243.549 72.2182C243.399 72.1588 226.732 68.6577 207.956 72.9896C196.861 75.4819 187.222 80.1699 179.24 86.9348C169.25 95.3612 161.87 106.992 157.352 121.471C148.616 149.54 138.827 168.707 127.381 180.1C117.44 190.01 107.751 192.621 98.7149 194.461C85.5116 197.131 81.0436 207.101 79.6379 214.993C76.8265 230.422 83.6039 251.25 94.1464 259.618C97.008 261.873 99.9197 263 102.731 263C105.342 263 107.902 262.051 110.312 260.092C120.202 252.141 130.343 236.831 141.086 220.69C161.518 189.892 182.654 158.085 203.889 174.048C207.002 176.362 210.014 178.676 212.876 180.931C228.438 192.977 240.788 202.531 248.57 198.021C253.188 195.351 255.799 188.289 256.753 175.709C258.711 149.718 262.325 130.135 273.621 119.098C281.653 111.205 293.099 108.298 308.662 110.078C352.238 115.122 380.954 105.983 394.057 83.0183C404.549 64.6225 402.742 40.708 399.378 23.8551C397.471 14.3012 394.86 5.87477 392.802 0H391.195C393.254 5.81543 395.964 14.4199 397.922 24.2705C401.186 40.7674 402.943 64.1478 392.802 82.0095C380.05 104.381 351.786 113.223 308.813 108.298C292.848 106.458 281.051 109.544 272.667 117.733C261.02 129.186 257.255 149.124 255.247 175.59C254.343 187.34 251.983 194.164 247.917 196.479C240.889 200.514 228.89 191.257 213.729 179.507C210.817 177.252 207.805 174.938 204.693 172.623C194.602 165.028 183.708 166.927 171.408 178.439C160.665 188.408 150.122 204.312 139.931 219.681C129.288 235.762 119.198 250.894 109.508 258.727C103.836 263.297 98.5141 260.982 94.9999 258.193C84.9092 250.182 78.433 230.184 81.0938 215.408C82.4492 208.05 86.6161 198.734 98.9659 196.241C108.203 194.342 118.093 191.672 128.334 181.465C139.981 169.834 149.922 150.43 158.757 122.065C163.175 107.882 170.354 96.5481 180.043 88.359C187.824 81.7721 197.313 77.2028 208.157 74.7105C215.185 73.1083 221.912 72.5742 227.585 72.5742C236.822 72.5742 243.148 73.9391 243.248 73.9391C243.499 73.9984 270.91 79.7545 300.479 81.7128C340.34 84.3831 364.989 79.2798 373.675 66.4621C382.259 53.8818 384.267 36.8509 379.448 17.2683C377.791 10.5627 375.632 4.62861 373.725 0.0593412H372.018C373.976 4.56927 376.285 10.7407 377.992 17.743C381.255 30.9761 382.912 50.0246 372.52 65.394Z" fill="#848484"/>
<path fill-rule="evenodd" clip-rule="evenodd" d="M211.812 88.898C217.14 85.8051 223.065 85.1509 228.542 87.1137C233.919 89.017 237.952 93.002 240.491 98.9498C248.258 116.853 241.387 148.317 236.607 165.446C235.363 169.967 233.819 172.346 231.778 172.881C231.479 172.941 231.18 173 230.882 173C227.565 173 223.756 168.355 219.014 162.572L218.932 162.472C214.401 156.941 209.273 150.696 203.099 146.294C192.792 138.919 187.714 130.652 188.012 121.611C188.56 105.849 205.837 92.4072 211.812 88.898ZM231.479 171.156C232.923 170.74 234.168 168.718 235.213 164.911C246.217 125.536 242.433 107.217 239.147 99.842C236.757 94.37 233.023 90.6823 228.093 88.898C226.152 88.1843 224.16 87.8274 222.119 87.8274C218.832 87.8274 215.546 88.7196 212.459 90.5039C206.684 93.8942 190.004 106.801 189.506 121.67C189.207 129.997 194.087 137.789 203.895 144.748C210.16 149.167 215.545 155.746 219.905 161.073L220.027 161.223L220.084 161.292C224.74 166.973 228.752 171.867 231.479 171.156Z" fill="#848484"/>
<path fill-rule="evenodd" clip-rule="evenodd" d="M214.5 116.962C216.226 115.95 218.149 115.711 219.924 116.366C221.65 117.022 222.982 118.332 223.869 120.357C226.335 126.074 224.215 135.9 222.735 141.26C222.489 142.273 221.996 143.643 220.911 143.94C220.763 144 220.664 144 220.516 144C219.295 144 218.122 142.539 216.567 140.602L216.522 140.546C215.19 138.878 213.662 136.972 211.837 135.662C208.533 133.28 206.906 130.541 207.004 127.503C207.189 121.811 213.565 117.583 214.408 117.024C214.465 116.987 214.497 116.966 214.5 116.962ZM220.565 142.154C220.713 142.154 221.009 141.677 221.305 140.665C222.439 136.556 224.806 126.431 222.587 121.131C221.897 119.582 220.911 118.57 219.53 118.094C218.987 117.915 218.396 117.796 217.853 117.796C216.916 117.796 216.029 118.034 215.141 118.57C213.809 119.404 208.632 123.275 208.484 127.622C208.385 129.885 209.766 132.089 212.577 134.114C214.549 135.543 216.226 137.628 217.557 139.295C217.624 139.376 217.692 139.458 217.761 139.542C218.809 140.811 220.056 142.321 220.565 142.154Z" fill="#848484"/>
<path d="M612.94 106.534C593.752 114.419 580.441 137.423 573.459 174.893C570.244 192.206 562.207 203.115 549.599 207.324C525.99 215.269 488.216 197.008 461.845 164.814C440.698 139.083 432.209 110.802 438.538 87.2648C444.415 65.4466 446.072 41.7312 443.511 16.8893C442.958 11.6719 442.205 6.33597 441.3 1H439.743C440.698 6.45455 441.451 11.7905 442.004 17.1265C444.566 41.7312 442.908 65.2095 437.131 86.7905C430.601 110.98 439.241 139.854 460.79 166.119C473.348 181.415 489.121 194.281 505.245 202.344C516.697 208.095 527.748 211 537.493 211C542.014 211 546.233 210.348 550.051 209.103C563.01 204.775 571.65 193.095 574.965 175.308C581.847 138.49 594.757 115.96 613.443 108.253C640.065 97.2846 674.172 117.917 702 141.81V139.617C673.971 115.723 639.864 95.5059 612.94 106.534Z" fill="#848484"/>
<path d="M622.169 59.4683C605.992 63.3188 593.672 76.055 585.608 97.2031C574.44 126.467 560.267 146.963 543.439 158.219C525.409 170.244 509.383 168.23 499.116 164.439C486.695 159.818 475.978 150.103 468.916 137.071C461.604 123.623 458.9 107.748 461.354 92.4048C466.412 60.5346 468.315 29.7898 467.113 1H465.611C466.813 29.6714 464.909 60.2976 459.901 92.0494C457.397 107.866 460.152 124.157 467.664 137.959C474.926 151.347 485.944 161.299 498.715 166.038C504.074 168.052 509.583 169 515.092 169C524.958 169 534.925 165.86 544.19 159.7C561.318 148.267 575.692 127.474 587.011 97.8547C594.874 77.2398 606.793 64.9182 622.469 61.1269C635.19 58.1058 650.465 60.8307 666.642 69.1241C679.313 75.5811 692.134 85.2962 702 95.8999V93.5303C681.616 72.323 648.762 53.1298 622.169 59.4683Z" fill="#848484"/>
<path d="M373.575 810.931C372.284 809.416 370.644 808.809 368.757 809.052C362.349 809.901 353.607 821.117 347 831H348.937C355.246 821.663 363.293 811.659 368.906 810.871C370.346 810.689 371.539 811.113 372.532 812.265C375.959 816.206 379.784 823.421 383.261 831H385C381.374 822.997 377.301 815.175 373.575 810.931Z" fill="#848484"/>
<path d="M687.087 57.1112C669.965 55.2152 649.278 47.394 630.299 35.5437C608.306 21.7973 589.929 42.2983 568.69 65.999C552.522 84.0707 534.195 104.512 511.5 111.919C503.516 114.526 497.34 113.163 493.072 108.008C478.561 90.2921 488.302 32.2848 494.93 1H493.373C491.365 10.5395 489.055 22.4491 487.248 34.8919C481.674 73.5832 483.281 98.5873 492.018 109.253C495.181 113.104 499.248 115 504.169 115C506.579 115 509.14 114.526 511.951 113.637C534.948 106.172 553.476 85.552 569.744 67.3025C590.582 44.0759 608.557 23.9896 629.596 37.1435C648.977 49.29 669.363 56.9927 686.937 58.8888C692.41 59.4813 697.431 59.4813 702 58.8888V57.1112C697.531 57.7037 692.51 57.7037 687.087 57.1112Z" fill="#848484"/>
<path d="M515.537 78.8229C516.338 78.941 517.089 79 517.889 79C531.202 79 546.066 61.7585 554.024 51.0121C564.584 36.841 574.843 18.4186 582 1H580.348C573.292 18.0053 563.232 35.9553 552.923 49.8312C538.709 68.9622 525.497 78.6457 515.737 77.0515C511.684 76.402 509.031 74.2173 507.63 70.4974C502.375 56.3263 516.588 23.3785 527.749 1.05905H525.997C523.795 5.54656 521.443 10.3883 519.191 15.4073C506.929 42.6276 502.575 61.4042 506.278 71.2059C507.88 75.5163 510.983 78.0553 515.537 78.8229Z" fill="#848484"/>
<path d="M535.469 39.9409C535.774 40 536.129 40 536.484 40C539.529 40 544.349 37.8727 551.047 28.95C556.019 22.3909 560.789 13.4682 563.579 5.66818C564.036 4.36818 564.543 2.77273 565 1.05909H563.427C563.072 2.3 562.666 3.6 562.209 4.95909C556.476 21.0318 543.385 39.4091 535.723 38.1091C534.302 37.8727 533.389 37.1636 532.882 35.8636C530.294 29.0091 540.797 8.74091 545.313 1H543.486C540.239 6.73182 528.417 28.3 531.512 36.5727C532.171 38.5227 533.541 39.6455 535.469 39.9409Z" fill="#848484"/>
<path d="M676.699 37.7313C666.669 36.2388 655.43 31.2239 643.233 22.806C632.598 15.4627 623.072 6.74627 616.318 0H614C620.905 6.98507 631.036 16.4776 642.477 24.3582C654.875 32.8955 666.316 38.0299 676.548 39.5224C678.664 39.8209 680.731 40 682.797 40C689.904 40 696.305 38.0896 702 34.2687V32.1791C694.692 37.2537 686.275 39.1642 676.699 37.7313Z" fill="#848484"/>
<path fill-rule="evenodd" clip-rule="evenodd" d="M379.4 532.147C388.95 525.458 405.499 525.278 428.598 531.669C445.148 536.268 459.247 542.719 460.397 543.256C475.246 546.541 477.096 549.468 476.996 551.618C476.896 554.544 472.896 558.546 442.698 563.922C423.948 567.266 401.599 570.014 385.3 571.985L381.25 572.462C378.3 572.821 375.65 573 373.25 573C364.101 573 358.751 570.372 357.351 565.236C354.801 555.978 366.551 541.166 379.4 532.147ZM442.448 562.189C472.097 556.874 475.396 552.992 475.446 551.558C475.446 550.841 474.396 548.213 460.047 545.048L459.897 544.988C459.889 544.985 459.845 544.965 459.765 544.929C458.275 544.249 444.435 537.94 428.298 533.461C419.549 531.012 409.099 528.862 399.599 528.862C392.15 528.862 385.25 530.236 380.2 533.76C373.85 538.239 367.901 544.033 363.851 549.707C359.601 555.739 357.801 561.055 358.801 564.758C360.351 570.253 368.051 572.343 381.1 570.73L385.15 570.253C386.355 570.102 387.592 569.949 388.858 569.792C404.726 567.821 425.13 565.287 442.448 562.189Z" fill="#848484"/>
<path fill-rule="evenodd" clip-rule="evenodd" d="M391.02 155.819C390.623 151.135 396.036 145.632 407.061 139.368C414.311 135.27 422.952 136.558 428.961 142.705C433.728 147.564 438.893 154.472 436.311 160.209C434.324 164.658 428.017 167 419.625 167C414.013 167 407.458 165.946 400.605 163.78C394.397 161.848 391.269 159.214 391.02 155.819ZM401.002 162.083C416.844 167.117 432.09 165.888 435.019 159.39C436.658 155.643 434.275 150.374 428.017 144.052C424.541 140.598 420.221 138.783 415.851 138.783C413.07 138.783 410.289 139.485 407.706 140.949C397.625 146.686 392.212 151.896 392.51 155.643C392.709 158.16 395.639 160.385 401.002 162.083Z" fill="#848484"/>
<path d="M549.15 812.578C523.023 808.656 507.678 782.39 488.321 749.112C482.905 739.841 477.288 730.214 470.97 720.231C455.123 695.212 437.371 680.178 418.264 675.543C396.55 670.313 372.68 678.395 347.355 699.551C319.523 722.786 279.254 760.165 244.702 794.869C235.024 804.615 222.387 817.57 210 831H212.207C222.035 820.422 233.218 808.775 245.655 796.236C280.157 761.591 320.376 724.212 348.157 701.036C395.347 661.637 436.267 668.471 469.716 721.36C475.984 731.284 481.601 740.911 487.017 750.181C506.625 783.816 522.12 810.32 548.899 814.361C567.905 817.213 578.788 822.799 581.395 831H583C580.543 821.789 569.159 815.609 549.15 812.578Z" fill="#848484"/>
<path d="M405.6 743.315C396.15 738.371 386.45 738.966 376.75 745.042C352.7 760.054 330.9 777.805 311.95 797.88C300.3 810.21 291.5 821.529 285 831H287C301.8 809.734 330.4 775.958 377.4 746.591C386.7 740.813 395.95 740.217 404.95 744.923C423.1 754.395 437.3 783.583 446 806.458C449.35 815.155 452.15 823.673 454.4 831H456C453.7 823.494 450.85 814.738 447.4 805.743C434.6 772.086 420.5 751.059 405.6 743.315Z" fill="#848484"/>
<path fill-rule="evenodd" clip-rule="evenodd" d="M170.986 623.832C169.216 619.561 169.519 613.393 174.476 609.953C181.91 604.793 192.076 607.165 196.072 611.199C197.791 612.919 198.398 614.935 197.741 616.833C196.426 620.866 191.368 625.018 182.77 629.11C181.506 629.703 180.241 630 179.078 630C175.336 630 172.402 627.153 170.986 623.832ZM182.163 627.45C190.256 623.594 195.161 619.68 196.325 616.181C196.83 614.698 195.92 613.334 195.01 612.563C192.886 610.428 188.688 608.826 184.237 608.826C181.152 608.826 177.966 609.597 175.184 611.495C171.037 614.342 170.733 619.324 172.301 623.001C173.869 626.679 177.612 629.644 182.163 627.45Z" fill="#848484"/>
<path fill-rule="evenodd" clip-rule="evenodd" d="M250.796 769.568C248.849 775.53 227.732 788.537 220.743 791.97C219.246 792.692 217.798 793.054 216.45 792.994C212.157 792.994 208.812 789.681 207.164 785.707C205.068 780.648 205.467 773.362 211.158 769.327C221.143 762.221 245.155 761.077 249.948 766.015C250.946 766.978 251.246 768.243 250.796 769.568ZM211.907 770.893C207.015 774.386 206.665 780.468 208.512 784.924C210.359 789.38 214.753 792.994 220.144 790.284C228.98 785.888 247.801 773.603 249.349 768.905C249.498 768.484 249.548 768.002 248.949 767.4C244.656 763.004 221.043 764.389 211.907 770.893Z" fill="#848484"/>
<path d="M40.5896 40.9723C48.6677 34.3523 46.0248 13.2996 43.3322 0H41.7864C42.4845 3.33981 43.1327 7.21637 43.6812 11.2718C44.9777 21.5895 45.3766 34.889 39.7918 39.5409C33.2097 44.9085 19.846 37.871 0 18.6075V20.8738C15.3084 35.6047 26.9268 43 34.7056 43C36.9994 43 38.9441 42.2843 40.5896 40.9723Z" fill="#848484"/>
<path fill-rule="evenodd" clip-rule="evenodd" d="M337.883 434C330.453 434 322.516 433.126 316.855 430.62C308.767 427.123 308.312 421.762 309.475 417.915C310.637 413.778 313.013 410.747 316.602 408.941C323.022 405.735 333.132 406.493 346.628 411.272C356.586 414.827 364.826 419.314 364.927 419.372C369.173 421.82 369.325 424.151 368.769 425.666C367.1 430.037 356.586 432.601 347.336 433.534C344.455 433.825 341.219 434 337.883 434ZM317.158 410.572C313.974 412.146 311.851 414.827 310.84 418.498C309.576 422.985 311.749 426.54 317.411 429.046C324.083 431.96 335.507 433.009 347.184 431.844C357.951 430.736 366.241 427.939 367.353 425.025C367.909 423.51 365.938 421.995 364.219 421.004C363.714 420.713 341.775 408.824 326.004 408.824C322.719 408.824 319.686 409.29 317.158 410.572Z" fill="#848484"/>
</g>
</svg>
