<svg width="4" height="16" viewBox="0 0 4 16" fill="none" xmlns="http://www.w3.org/2000/svg">
<path fill-rule="evenodd" clip-rule="evenodd" d="M1.61269 3.20005C2.50336 3.20005 3.22539 2.48369 3.22539 1.60002C3.22539 0.716354 2.50336 0 1.61269 0C0.722027 0 0 0.716354 0 1.60002C0 2.48369 0.722027 3.20005 1.61269 3.20005Z" fill="white"/>
<path fill-rule="evenodd" clip-rule="evenodd" d="M1.61269 9.59963C2.50336 9.59963 3.22539 8.88328 3.22539 7.99961C3.22539 7.11594 2.50336 6.39958 1.61269 6.39958C0.722027 6.39958 0 7.11594 0 7.99961C0 8.88328 0.722027 9.59963 1.61269 9.59963Z" fill="white"/>
<path fill-rule="evenodd" clip-rule="evenodd" d="M1.61269 16.0003C2.50336 16.0003 3.22539 15.2839 3.22539 14.4002C3.22539 13.5166 2.50336 12.8002 1.61269 12.8002C0.722027 12.8002 0 13.5166 0 14.4002C0 15.2839 0.722027 16.0003 1.61269 16.0003Z" fill="white"/>
</svg>
