<svg width="17" height="17" viewBox="0 0 17 17" fill="none" xmlns="http://www.w3.org/2000/svg">
<path fill-rule="evenodd" clip-rule="evenodd" d="M12.1182 12.7065C12.6953 12.7065 13.1632 12.237 13.1632 11.6577C13.1632 11.0785 12.6953 10.6089 12.1182 10.6089C11.541 10.6089 11.0732 11.0785 11.0732 11.6577C11.0732 12.237 11.541 12.7065 12.1182 12.7065Z" stroke="#202224" stroke-width="1.2" stroke-linecap="round" stroke-linejoin="round"/>
<path fill-rule="evenodd" clip-rule="evenodd" d="M13.0045 7.60249L13.3125 8.61844C13.4179 8.96833 13.7754 9.17644 14.1304 9.0946L15.1559 8.85617C15.555 8.76527 15.9666 8.94634 16.1704 9.30255C16.3743 9.65875 16.3228 10.1068 16.0434 10.407L15.3258 11.1838C15.0772 11.4522 15.0772 11.8678 15.3258 12.1361L16.0434 12.9129C16.3228 13.2132 16.3743 13.6612 16.1704 14.0174C15.9666 14.3736 15.555 14.5547 15.1559 14.4638L14.1304 14.2254C13.7754 14.1435 13.4179 14.3516 13.3125 14.7015L13.0045 15.7133C12.887 16.1067 12.5262 16.3762 12.117 16.3762C11.7077 16.3762 11.3469 16.1067 11.2294 15.7133L10.9208 14.6973C10.8156 14.3475 10.4584 14.1394 10.1036 14.2212L9.07736 14.4596C8.67821 14.5505 8.26667 14.3694 8.06281 14.0132C7.85895 13.657 7.91046 13.209 8.1898 12.9088L8.90738 12.1319C9.15606 11.8636 9.15606 11.448 8.90738 11.1796L8.1898 10.4028C7.91046 10.1026 7.85895 9.65456 8.06281 9.29835C8.26667 8.94215 8.67821 8.76108 9.07736 8.85197L10.1036 9.0904C10.4584 9.1722 10.8156 8.96404 10.9208 8.61424L11.2294 7.5983C11.3478 7.20512 11.7092 6.93649 12.1185 6.93745C12.5278 6.93842 12.8879 7.20876 13.0045 7.60249Z" stroke="#202224" stroke-width="1.2" stroke-linecap="round" stroke-linejoin="round"/>
<path d="M16.2182 6.90287C15.7878 3.94732 13.6163 1.54805 10.7262 0.835008C7.83611 0.121966 4.80369 1.23731 3.05707 3.65577C1.31045 6.07422 1.19786 9.31361 2.77232 11.8483L0.622384 16.3771L5.13266 14.2207C5.37014 14.369 5.61576 14.5037 5.86835 14.6242" stroke="#202224" stroke-width="1.2" stroke-linecap="round" stroke-linejoin="round"/>
</svg>
