<svg width="60" height="60" viewBox="0 0 60 60" fill="none" xmlns="http://www.w3.org/2000/svg">
<path opacity="0.847354" fill-rule="evenodd" clip-rule="evenodd" d="M0 30V37C0 49.7025 10.2975 60 23 60H30H37C49.7025 60 60 49.7025 60 37V30V23C60 10.2975 49.7025 0 37 0H30H23C10.2975 0 0 10.2975 0 23V30Z" fill="#FF9066"/>
<path opacity="0.78" fill-rule="evenodd" clip-rule="evenodd" d="M28.6319 23.8088C28.6519 23.5483 28.8692 23.3472 29.1304 23.3472H29.5482C29.8051 23.3472 30.0202 23.5418 30.0458 23.7974L30.6674 30.0138L35.0821 32.5365C35.2379 32.6256 35.3341 32.7912 35.3341 32.9707V33.3592C35.3341 33.6889 35.0206 33.9283 34.7025 33.8416L28.3994 32.1226C28.168 32.0595 28.014 31.841 28.0324 31.6018L28.6319 23.8088Z" fill="white"/>
<path opacity="0.901274" fill-rule="evenodd" clip-rule="evenodd" d="M22.7218 14.9846C22.4577 14.6698 21.9477 14.7903 21.8524 15.19L20.2189 22.0381C20.1412 22.3638 20.3993 22.6723 20.7336 22.6533L27.7783 22.2541C28.1892 22.2308 28.3976 21.7488 28.133 21.4335L26.3316 19.2867C27.4965 18.8886 28.7317 18.6807 30 18.6807C36.2592 18.6807 41.3333 23.7548 41.3333 30.014C41.3333 36.2733 36.2592 41.3474 30 41.3474C23.7408 41.3474 18.6667 36.2733 18.6667 30.014C18.6667 28.9633 18.809 27.9341 19.0864 26.945L16.5188 26.2248C16.1808 27.43 16 28.7009 16 30.014C16 37.746 22.268 44.014 30 44.014C37.732 44.014 44 37.746 44 30.014C44 22.2821 37.732 16.014 30 16.014C28.0551 16.014 26.2029 16.4106 24.5197 17.1273L22.7218 14.9846Z" fill="white"/>
</svg>
