<svg width="21" height="20" viewBox="0 0 21 20" fill="none" xmlns="http://www.w3.org/2000/svg">
<g clip-path="url(#clip0_1612_9819)">
<path d="M20.1531 18.2109L15.3569 13.6094C16.5458 12.2188 17.2624 10.4375 17.2624 8.49609C17.2624 4.04297 13.4963 0.429688 8.85482 0.429688C4.20929 0.429688 0.447266 4.04297 0.447266 8.49609C0.447266 12.9492 4.20929 16.5625 8.85482 16.5625C10.8783 16.5625 12.7308 15.8789 14.1803 14.7383L18.9765 19.3359C19.3022 19.6484 19.8274 19.6484 20.1531 19.3359C20.4788 19.0273 20.4788 18.5195 20.1531 18.2109ZM8.85482 14.957C5.13758 14.957 2.11656 12.0586 2.11656 8.49609C2.11656 4.93359 5.13758 2.03125 8.85482 2.03125C12.568 2.03125 15.5931 4.93359 15.5931 8.49609C15.5931 12.0586 12.568 14.957 8.85482 14.957Z" fill="#718EBF"/>
</g>
<defs>
<clipPath id="clip0_1612_9819">
<rect width="20.8458" height="20" fill="white"/>
</clipPath>
</defs>
</svg>
