<svg width="30" height="30" viewBox="0 0 30 30" fill="none" xmlns="http://www.w3.org/2000/svg">
<rect x="0.3" y="0.3" width="29.4" height="29.4" rx="5.7" stroke="white" stroke-width="0.6"/>
<path d="M9.53033 15.2197C9.23744 14.9268 8.76256 14.9268 8.46967 15.2197C8.17678 15.5126 8.17678 15.9874 8.46967 16.2803L12.2197 20.0303C12.5126 20.3232 12.9874 20.3232 13.2803 20.0303L21.5303 11.7803C21.8232 11.4874 21.8232 11.0126 21.5303 10.7197C21.2374 10.4268 20.7626 10.4268 20.4697 10.7197L12.75 18.4393L9.53033 15.2197Z" fill="white"/>
<mask id="mask0_1324_20426" style="mask-type:luminance" maskUnits="userSpaceOnUse" x="8" y="10" width="14" height="11">
<path d="M9.53033 15.2197C9.23744 14.9268 8.76256 14.9268 8.46967 15.2197C8.17678 15.5126 8.17678 15.9874 8.46967 16.2803L12.2197 20.0303C12.5126 20.3232 12.9874 20.3232 13.2803 20.0303L21.5303 11.7803C21.8232 11.4874 21.8232 11.0126 21.5303 10.7197C21.2374 10.4268 20.7626 10.4268 20.4697 10.7197L12.75 18.4393L9.53033 15.2197Z" fill="white"/>
</mask>
<g mask="url(#mask0_1324_20426)">
</g>
</svg>
