<svg width="18" height="13" viewBox="0 0 18 13" fill="none" xmlns="http://www.w3.org/2000/svg">
<path d="M1.70711 6.29289C1.31658 5.90237 0.683418 5.90237 0.292893 6.29289C-0.0976311 6.68342 -0.0976311 7.31658 0.292893 7.70711L5.29289 12.7071C5.68342 13.0976 6.31658 13.0976 6.70711 12.7071L17.7071 1.70711C18.0976 1.31658 18.0976 0.683418 17.7071 0.292893C17.3166 -0.0976311 16.6834 -0.0976311 16.2929 0.292893L6 10.5858L1.70711 6.29289Z" fill="white"/>
<mask id="mask0_1324_17111" style="mask-type:luminance" maskUnits="userSpaceOnUse" x="0" y="0" width="18" height="13">
<path d="M1.70711 6.29289C1.31658 5.90237 0.683418 5.90237 0.292893 6.29289C-0.0976311 6.68342 -0.0976311 7.31658 0.292893 7.70711L5.29289 12.7071C5.68342 13.0976 6.31658 13.0976 6.70711 12.7071L17.7071 1.70711C18.0976 1.31658 18.0976 0.683418 17.7071 0.292893C17.3166 -0.0976311 16.6834 -0.0976311 16.2929 0.292893L6 10.5858L1.70711 6.29289Z" fill="white"/>
</mask>
<g mask="url(#mask0_1324_17111)">
</g>
</svg>
