<svg width="132" height="41" viewBox="0 0 132 41" fill="none" xmlns="http://www.w3.org/2000/svg">
<rect x="0.3" y="0.500367" width="131.401" height="39.8518" rx="11.7" fill="#FAFBFD" stroke="#D5D5D5" stroke-width="0.6"/>
<path opacity="0.700544" d="M44.8407 40.6522V0.200367" stroke="#979797" stroke-width="0.4" stroke-linecap="square"/>
<path opacity="0.700544" d="M90.1843 40.6522V0.200367" stroke="#979797" stroke-width="0.4" stroke-linecap="square"/>
<path fill-rule="evenodd" clip-rule="evenodd" d="M114.2 13.2347H117.335V15.0326H104.795V13.2347H107.93L108.826 12.3358H113.304L114.2 13.2347ZM107.482 28.5165C106.497 28.5165 105.691 27.7075 105.691 26.7186V15.9315H116.439V26.7186C116.439 27.7075 115.633 28.5165 114.647 28.5165H107.482Z" fill="black"/>
<path fill-rule="evenodd" clip-rule="evenodd" d="M16.7266 12.3358H27.6091V15.9764H16.7266V12.3358ZM15.8198 16.8866H28.516C30.0214 16.8866 31.2366 18.1062 31.2366 19.6171V25.0781H27.6091V28.7188H16.7266V25.0781H13.0991V19.6171C13.0991 18.1062 14.3143 16.8866 15.8198 16.8866ZM18.5404 26.8984H25.7954V22.3476H18.5404V26.8984ZM28.516 20.5273C28.0172 20.5273 27.6091 20.1177 27.6091 19.6171C27.6091 19.1165 28.0172 18.7069 28.516 18.7069C29.0148 18.7069 29.4229 19.1165 29.4229 19.6171C29.4229 20.1177 29.0148 20.5273 28.516 20.5273Z" fill="#202224"/>
<path fill-rule="evenodd" clip-rule="evenodd" d="M68.0337 12.6563L70.4312 17.4235L75.0457 17.8823C75.27 17.901 75.463 18.049 75.54 18.2613C75.617 18.4736 75.5639 18.7114 75.404 18.8704L71.6063 22.6481L73.0143 27.7813C73.0732 28.0037 72.9966 28.24 72.8186 28.3851C72.6406 28.5302 72.3944 28.5571 72.1896 28.4537L67.5113 26.1287L62.8395 28.4508C62.6346 28.5542 62.3884 28.5273 62.2105 28.3823C62.0325 28.2372 61.9559 28.0008 62.0147 27.7784L63.4227 22.6452L59.6222 18.8675C59.4623 18.7085 59.4092 18.4707 59.4862 18.2584C59.5632 18.0461 59.7562 17.8982 59.9805 17.8794L64.595 17.4206L66.9889 12.6563C67.0893 12.4596 67.291 12.3358 67.5113 12.3358C67.7316 12.3358 67.9333 12.4596 68.0337 12.6563Z" stroke="#202224" stroke-width="1.2" stroke-linecap="round" stroke-linejoin="round"/>
</svg>
