<svg width="155" height="166" viewBox="0 0 155 166" fill="none" xmlns="http://www.w3.org/2000/svg">
<path fill-rule="evenodd" clip-rule="evenodd" d="M77.5 165.723C120.302 165.723 155 128.625 155 82.8616C155 37.0984 120.302 0 77.5 0C34.6979 0 0 37.0984 0 82.8616C0 128.625 34.6979 165.723 77.5 165.723Z" fill="#E9EFFC"/>
<mask id="mask0_1581_9381" style="mask-type:luminance" maskUnits="userSpaceOnUse" x="0" y="0" width="155" height="166">
<path fill-rule="evenodd" clip-rule="evenodd" d="M77.5 165.723C120.302 165.723 155 128.625 155 82.8616C155 37.0984 120.302 0 77.5 0C34.6979 0 0 37.0984 0 82.8616C0 128.625 34.6979 165.723 77.5 165.723Z" fill="white"/>
</mask>
<g mask="url(#mask0_1581_9381)">
<rect x="-2.99609" width="80" height="90.8805" fill="#4049FF"/>
</g>
</svg>
