<svg width="131" height="41" viewBox="0 0 131 41" fill="none" xmlns="http://www.w3.org/2000/svg">
<rect y="0.200195" width="131" height="40" rx="12" fill="#323D4E"/>
<rect x="0.3" y="0.500195" width="130.4" height="39.4" rx="11.7" stroke="#CFCFCF" stroke-opacity="0.11421" stroke-width="0.6"/>
<path opacity="0.700544" d="M44.5 40.2002V0.200195" stroke="#979797" stroke-width="0.4" stroke-linecap="square"/>
<path opacity="0.700544" d="M89.5 40.2002V0.200195" stroke="#979797" stroke-width="0.4" stroke-linecap="square"/>
<path fill-rule="evenodd" clip-rule="evenodd" d="M113.333 13.0891H116.444V14.8669H104V13.0891H107.111L108 12.2002H112.444L113.333 13.0891ZM106.667 28.2002C105.689 28.2002 104.889 27.4002 104.889 26.4224V15.7558H115.556V26.4224C115.556 27.4002 114.756 28.2002 113.778 28.2002H106.667Z" fill="white"/>
<path fill-rule="evenodd" clip-rule="evenodd" d="M28.2222 12.2002H15.7689C14.7867 12.2002 14.0089 12.9958 14.0089 13.978L14 26.4224C14 27.4046 14.7867 28.2002 15.7689 28.2002H28.2222C29.2044 28.2002 30 27.4046 30 26.4224V13.978C30 12.9958 29.2044 12.2002 28.2222 12.2002ZM28.2222 22.8669H24.6667C24.6667 24.338 23.4711 25.5335 22 25.5335C20.5289 25.5335 19.3333 24.338 19.3333 22.8669H15.7689V13.978H28.2222V22.8669ZM23.7778 18.4224H25.5556L22 21.978L18.4444 18.4224H20.2222V15.7558H23.7778V18.4224Z" fill="white"/>
<path fill-rule="evenodd" clip-rule="evenodd" d="M67 12.2002C62.584 12.2002 59 15.7842 59 20.2002C59 24.6162 62.584 28.2002 67 28.2002C71.416 28.2002 75 24.6162 75 20.2002C75 15.7842 71.416 12.2002 67 12.2002ZM66.2 24.2002V19.4002H67.8V24.2002H66.2ZM66.2 16.2002V17.8002H67.8V16.2002H66.2Z" fill="white"/>
</svg>
