<svg width="60" height="60" viewBox="0 0 60 60" fill="none" xmlns="http://www.w3.org/2000/svg">
<path opacity="0.85" fill-rule="evenodd" clip-rule="evenodd" d="M0 30V37C0 49.7025 10.2975 60 23 60H30H37C49.7025 60 60 49.7025 60 37V30V23C60 10.2975 49.7025 0 37 0H30H23C10.2975 0 0 10.2975 0 23V30Z" fill="#FEC53D"/>
<path fill-rule="evenodd" clip-rule="evenodd" d="M15 24.3167L27.9005 31.7648C28.0394 31.845 28.1851 31.9029 28.3333 31.9397V46.3849L15.9201 39.0387C15.3498 38.7012 15 38.0878 15 37.4251V24.3167ZM45 24.1187V37.4251C45 38.0878 44.6502 38.7012 44.0799 39.0387L31.6667 46.3849V31.8131C31.6969 31.798 31.7269 31.7819 31.7566 31.7648L45 24.1187Z" fill="white"/>
<path opacity="0.499209" fill-rule="evenodd" clip-rule="evenodd" d="M15.4043 20.7014C15.5619 20.5024 15.7608 20.3343 15.9926 20.2108L29.1176 13.2201C29.6686 12.9266 30.3295 12.9266 30.8805 13.2201L44.0055 20.2108C44.1843 20.306 44.3434 20.4277 44.4791 20.5697L30.089 28.8778C29.9943 28.9325 29.9071 28.995 29.8276 29.064C29.7481 28.995 29.6609 28.9325 29.5662 28.8778L15.4043 20.7014Z" fill="white"/>
</svg>
