<svg width="19" height="23" viewBox="0 0 19 23" fill="none" xmlns="http://www.w3.org/2000/svg">
<path d="M9.3051 22.9C14.408 22.9 18.5098 17.7746 18.5098 11.5002C18.5098 5.22573 14.408 0.100361 9.3051 0.100361C4.20216 0.100361 0.100361 5.22573 0.100361 11.5002C0.100361 17.7746 4.20216 22.9 9.3051 22.9Z" stroke="#CCCCCC" stroke-width="0.2"/>
<path d="M9.3051 12.4952L7.01061 9.17286C6.84132 8.92772 6.56684 8.92772 6.39754 9.17286C6.22825 9.41799 6.22825 9.81543 6.39754 10.0606L8.99857 13.8268C9.16786 14.0719 9.44234 14.0719 9.61164 13.8268L12.2127 10.0606C12.382 9.81543 12.382 9.41799 12.2127 9.17286C12.0434 8.92772 11.7689 8.92772 11.5996 9.17286L9.3051 12.4952Z" fill="white"/>
<mask id="mask0_0_47" style="mask-type:luminance" maskUnits="userSpaceOnUse" x="6" y="8" width="7" height="7">
<path d="M9.3051 12.4952L7.01061 9.17286C6.84132 8.92772 6.56684 8.92772 6.39754 9.17286C6.22825 9.41799 6.22825 9.81543 6.39754 10.0606L8.99857 13.8268C9.16786 14.0719 9.44234 14.0719 9.61164 13.8268L12.2127 10.0606C12.382 9.81543 12.382 9.41799 12.2127 9.17286C12.0434 8.92772 11.7689 8.92772 11.5996 9.17286L9.3051 12.4952Z" fill="white"/>
</mask>
<g mask="url(#mask0_0_47)">
</g>
</svg>
