<svg width="10" height="14" viewBox="0 0 10 14" fill="none" xmlns="http://www.w3.org/2000/svg">
<path d="M6.98223 7L0.366117 12.2929C-0.122039 12.6834 -0.122039 13.3166 0.366117 13.7071C0.854272 14.0976 1.64573 14.0976 2.13388 13.7071L9.63388 7.70711C10.122 7.31658 10.122 6.68342 9.63388 6.29289L2.13388 0.292893C1.64573 -0.0976305 0.854272 -0.0976305 0.366117 0.292893C-0.122039 0.683417 -0.122039 1.31658 0.366117 1.70711L6.98223 7Z" fill="#B7B7B7"/>
<mask id="mask0_1324_21427" style="mask-type:luminance" maskUnits="userSpaceOnUse" x="0" y="0" width="10" height="14">
<path d="M6.98223 7L0.366117 12.2929C-0.122039 12.6834 -0.122039 13.3166 0.366117 13.7071C0.854272 14.0976 1.64573 14.0976 2.13388 13.7071L9.63388 7.70711C10.122 7.31658 10.122 6.68342 9.63388 6.29289L2.13388 0.292893C1.64573 -0.0976305 0.854272 -0.0976305 0.366117 0.292893C-0.122039 0.683417 -0.122039 1.31658 0.366117 1.70711L6.98223 7Z" fill="white"/>
</mask>
<g mask="url(#mask0_1324_21427)">
</g>
</svg>
