<svg width="110" height="121" viewBox="0 0 110 121" fill="none" xmlns="http://www.w3.org/2000/svg">
<g opacity="0.21">
<mask id="mask0_1324_21259" style="mask-type:luminance" maskUnits="userSpaceOnUse" x="0" y="0" width="110" height="121">
<path fill-rule="evenodd" clip-rule="evenodd" d="M0 0H110V121H0V0Z" fill="white"/>
</mask>
<g mask="url(#mask0_1324_21259)">
<path fill-rule="evenodd" clip-rule="evenodd" d="M-140.963 242L110 103.572V103L-142 242H-140.963Z" fill="#5088FF"/>
<path fill-rule="evenodd" clip-rule="evenodd" d="M-119.963 242L110 116.566V116L-121 242H-119.963Z" fill="#5088FF"/>
<path fill-rule="evenodd" clip-rule="evenodd" d="M-161.963 242L110 93.5661V93L-163 242H-161.963Z" fill="#5088FF"/>
<path fill-rule="evenodd" clip-rule="evenodd" d="M-182.963 242L110 80.5718V80L-184 242H-182.963Z" fill="#5088FF"/>
<path fill-rule="evenodd" clip-rule="evenodd" d="M-203.962 242L110 69.5698V69L-205 242H-203.962Z" fill="#5088FF"/>
<path fill-rule="evenodd" clip-rule="evenodd" d="M-224.962 242L110 57.5713V57L-226 242H-224.962Z" fill="#5088FF"/>
<path fill-rule="evenodd" clip-rule="evenodd" d="M-245.962 242L110 46.5698V46L-247 242H-245.962Z" fill="#5088FF"/>
<path fill-rule="evenodd" clip-rule="evenodd" d="M-266.962 242L110 34.5711V34L-268 242H-266.962Z" fill="#5088FF"/>
<path fill-rule="evenodd" clip-rule="evenodd" d="M-287.962 242L110 23.5699V23L-289 242H-287.962Z" fill="#5088FF"/>
<path fill-rule="evenodd" clip-rule="evenodd" d="M-307.964 242L110 10.5734V10L-309 242H-307.964Z" fill="#5088FF"/>
<path fill-rule="evenodd" clip-rule="evenodd" d="M110 0H109.483L-330 241.716V242H-329.482L110 0.285157V0Z" fill="#5088FF"/>
<path fill-rule="evenodd" clip-rule="evenodd" d="M87.9674 0L-330 231.428V232L89 0H87.9674Z" fill="#5088FF"/>
<path fill-rule="evenodd" clip-rule="evenodd" d="M67.965 0L-330 218.432V219L69 0H67.965Z" fill="#5088FF"/>
<path fill-rule="evenodd" clip-rule="evenodd" d="M46.9651 0L-330 207.431V208L48 0H46.9651Z" fill="#5088FF"/>
<path fill-rule="evenodd" clip-rule="evenodd" d="M25.9626 0L-330 195.43V196L27 0H25.9626Z" fill="#5088FF"/>
<path fill-rule="evenodd" clip-rule="evenodd" d="M4.96234 0L-330 184.429V185L6 0H4.96234Z" fill="#5088FF"/>
</g>
</g>
</svg>
