<svg width="100" height="100" viewBox="0 0 100 100" fill="none" xmlns="http://www.w3.org/2000/svg">
<g filter="url(#filter0_d_1324_17481)">
<path fill-rule="evenodd" clip-rule="evenodd" d="M50 90C72.0914 90 90 72.0914 90 50C90 27.9086 72.0914 10 50 10C27.9086 10 10 27.9086 10 50C10 72.0914 27.9086 90 50 90Z" fill="#ECECEE"/>
</g>
<path fill-rule="evenodd" clip-rule="evenodd" d="M61.7813 60.8H38.2187C37.5455 60.8 37 60.2629 37 59.6V44.8919C37 44.2294 37.5455 43.6919 38.2187 43.6919H43.4238L45.3757 40.4785C45.5983 40.1895 45.947 40 46.3438 40H53.6562C53.9986 40 54.3065 40.1402 54.5283 40.3637L54.5291 40.3625L56.5988 43.6919H61.7813C62.4545 43.6919 63 44.2294 63 44.8919V59.6C63 60.2629 62.4545 60.8 61.7813 60.8ZM50 46.1532C46.4445 46.1532 43.5623 48.9914 43.5623 52.4919C43.5623 55.9928 46.4445 58.8306 50 58.8306C53.5556 58.8306 56.4378 55.9928 56.4378 52.4919C56.4378 48.9914 53.5556 46.1532 50 46.1532ZM46.2743 52.4919C46.2743 54.5178 47.9425 56.1604 50 56.1604C52.0578 56.1604 53.7257 54.5178 53.7257 52.4919C53.7257 50.4658 52.0578 48.8235 50 48.8235C47.9425 48.8235 46.2743 50.4658 46.2743 52.4919Z" fill="#414141"/>
<mask id="mask0_1324_17481" style="mask-type:luminance" maskUnits="userSpaceOnUse" x="37" y="40" width="26" height="21">
<path fill-rule="evenodd" clip-rule="evenodd" d="M61.7813 60.8H38.2187C37.5455 60.8 37 60.2629 37 59.6V44.8919C37 44.2294 37.5455 43.6919 38.2187 43.6919H43.4238L45.3757 40.4785C45.5983 40.1895 45.947 40 46.3438 40H53.6562C53.9986 40 54.3065 40.1402 54.5283 40.3637L54.5291 40.3625L56.5988 43.6919H61.7813C62.4545 43.6919 63 44.2294 63 44.8919V59.6C63 60.2629 62.4545 60.8 61.7813 60.8ZM50 46.1532C46.4445 46.1532 43.5623 48.9914 43.5623 52.4919C43.5623 55.9928 46.4445 58.8306 50 58.8306C53.5556 58.8306 56.4378 55.9928 56.4378 52.4919C56.4378 48.9914 53.5556 46.1532 50 46.1532ZM46.2743 52.4919C46.2743 54.5178 47.9425 56.1604 50 56.1604C52.0578 56.1604 53.7257 54.5178 53.7257 52.4919C53.7257 50.4658 52.0578 48.8235 50 48.8235C47.9425 48.8235 46.2743 50.4658 46.2743 52.4919Z" fill="white"/>
</mask>
<g mask="url(#mask0_1324_17481)">
</g>
<defs>
<filter id="filter0_d_1324_17481" x="0" y="0" width="100" height="100" filterUnits="userSpaceOnUse" color-interpolation-filters="sRGB">
<feFlood flood-opacity="0" result="BackgroundImageFix"/>
<feColorMatrix in="SourceAlpha" type="matrix" values="0 0 0 0 0 0 0 0 0 0 0 0 0 0 0 0 0 0 127 0" result="hardAlpha"/>
<feOffset/>
<feGaussianBlur stdDeviation="5"/>
<feColorMatrix type="matrix" values="0 0 0 0 0 0 0 0 0 0 0 0 0 0 0 0 0 0 0.01 0"/>
<feBlend mode="normal" in2="BackgroundImageFix" result="effect1_dropShadow_1324_17481"/>
<feBlend mode="normal" in="SourceGraphic" in2="effect1_dropShadow_1324_17481" result="shape"/>
</filter>
</defs>
</svg>
