<svg width="10" height="14" viewBox="0 0 10 14" fill="none" xmlns="http://www.w3.org/2000/svg">
<path d="M3.01777 7L9.63388 12.2929C10.122 12.6834 10.122 13.3166 9.63388 13.7071C9.14573 14.0976 8.35427 14.0976 7.86612 13.7071L0.366117 7.70711C-0.122039 7.31658 -0.122039 6.68342 0.366117 6.29289L7.86612 0.292893C8.35427 -0.0976305 9.14573 -0.0976305 9.63388 0.292893C10.122 0.683417 10.122 1.31658 9.63388 1.70711L3.01777 7Z" fill="#B7B7B7"/>
<mask id="mask0_1324_21430" style="mask-type:luminance" maskUnits="userSpaceOnUse" x="0" y="0" width="10" height="14">
<path d="M3.01777 7L9.63388 12.2929C10.122 12.6834 10.122 13.3166 9.63388 13.7071C9.14573 14.0976 8.35427 14.0976 7.86612 13.7071L0.366117 7.70711C-0.122039 7.31658 -0.122039 6.68342 0.366117 6.29289L7.86612 0.292893C8.35427 -0.0976305 9.14573 -0.0976305 9.63388 0.292893C10.122 0.683417 10.122 1.31658 9.63388 1.70711L3.01777 7Z" fill="white"/>
</mask>
<g mask="url(#mask0_1324_21430)">
</g>
</svg>
