<svg width="200" height="148" viewBox="0 0 200 148" fill="none" xmlns="http://www.w3.org/2000/svg">
<path fill-rule="evenodd" clip-rule="evenodd" d="M191.516 69.6955C191.516 67.3525 193.415 65.4531 195.758 65.4531C198.101 65.4531 200 67.3525 200 69.6955V147.877H191.516V69.6955Z" fill="#5286F8"/>
<path fill-rule="evenodd" clip-rule="evenodd" d="M163.637 85.4534C163.637 83.1103 165.536 81.2109 167.879 81.2109C170.222 81.2109 172.122 83.1103 172.122 85.4534V147.878H163.637V85.4534Z" fill="#5286F8"/>
<path fill-rule="evenodd" clip-rule="evenodd" d="M130.908 55.1526C130.908 52.8096 132.808 50.9102 135.151 50.9102C137.494 50.9102 139.393 52.8096 139.393 55.1526V147.88H130.908V55.1526Z" fill="#5286F8"/>
<path fill-rule="evenodd" clip-rule="evenodd" d="M98.1816 29.6955C98.1816 27.3525 100.081 25.4531 102.424 25.4531C104.767 25.4531 106.666 27.3525 106.666 29.6955V147.877H98.1816V29.6955Z" fill="#5286F8"/>
<path fill-rule="evenodd" clip-rule="evenodd" d="M65.4551 95.1526C65.4551 92.8096 67.3545 90.9102 69.6975 90.9102C72.0405 90.9102 73.9399 92.8096 73.9399 95.1526V147.88H65.4551V95.1526Z" fill="#5286F8"/>
<path fill-rule="evenodd" clip-rule="evenodd" d="M32.7266 74.5471C32.7266 72.2041 34.626 70.3047 36.969 70.3047C39.312 70.3047 41.2114 72.2041 41.2114 74.5471V147.88H32.7266V74.5471Z" fill="#5286F8"/>
<path fill-rule="evenodd" clip-rule="evenodd" d="M0 4.24243C0 1.8994 1.8994 0 4.24242 0C6.58545 0 8.48485 1.8994 8.48485 4.24242V147.879H0V4.24243Z" fill="#5286F8"/>
</svg>
