<svg width="22" height="25" viewBox="0 0 22 25" fill="none" xmlns="http://www.w3.org/2000/svg">
<path d="M21.1693 10.1968L12.1957 10.1963C11.7995 10.1963 11.4783 10.5567 11.4783 11.0013V14.2179C11.4783 14.6624 11.7995 15.0229 12.1957 15.0229H17.2491C16.6957 16.6342 15.6629 17.9837 14.3452 18.8412L16.5 23.0266C19.9565 20.7835 22 16.8478 22 12.4421C22 11.8148 21.9587 11.3664 21.8763 10.8614C21.8137 10.4778 21.5169 10.1968 21.1693 10.1968Z" fill="#167EE6"/>
<path d="M10.9996 19.8556C8.52655 19.8556 6.36764 18.3395 5.20814 16.0959L1.47821 18.5083C3.37635 22.1997 6.93216 24.6854 10.9996 24.6854C12.9949 24.6854 14.8776 24.0826 16.4995 23.0321V23.0264L14.3448 18.8409C13.3592 19.4823 12.2186 19.8556 10.9996 19.8556Z" fill="#12B347"/>
<path d="M16.5007 23.0322V23.0265L14.346 18.841C13.3603 19.4824 12.2199 19.8558 11.0007 19.8558V24.6856C12.9961 24.6856 14.8789 24.0827 16.5007 23.0322Z" fill="#0F993E"/>
<path d="M4.30433 12.3433C4.30433 10.9755 4.63699 9.69581 5.20851 8.58992L1.47859 6.17758C0.537192 7.99173 0 10.0986 0 12.3433C0 14.5879 0.537192 16.6948 1.47859 18.5089L5.20851 16.0966C4.63699 14.9907 4.30433 13.711 4.30433 12.3433Z" fill="#FFD500"/>
<path d="M10.9991 4.82981C12.6117 4.82981 14.093 5.47279 15.25 6.54232C15.5355 6.80615 15.9503 6.78711 16.2118 6.49372L18.2429 4.21464C18.5396 3.88177 18.5184 3.3369 18.2015 3.02843C16.263 1.14137 13.7408 0 10.9991 0C6.93167 0 3.37586 2.48578 1.47773 6.17715L5.20765 8.5895C6.36715 6.34595 8.52606 4.82981 10.9991 4.82981Z" fill="#FF4B26"/>
<path d="M15.2517 6.54232C15.5371 6.80615 15.952 6.78711 16.2135 6.49372L18.2446 4.21464C18.5412 3.88177 18.5201 3.3369 18.2032 3.02843C16.2647 1.14133 13.7424 0 11.0007 0V4.82981C12.6133 4.82981 14.0947 5.47279 15.2517 6.54232Z" fill="#D93F21"/>
</svg>
