<svg width="28" height="28" viewBox="0 0 28 28" fill="none" xmlns="http://www.w3.org/2000/svg">
<path d="M14.0002 11.3792C14.4963 11.3792 14.9015 11.7833 14.9015 12.2794C14.9015 12.7321 15.2694 13.099 15.7221 13.099C16.1737 13.099 16.5416 12.7321 16.5416 12.2794C16.5416 11.1674 15.8172 10.2289 14.8198 9.88581V9.42073C14.8198 8.96908 14.4529 8.60012 14.0002 8.60012C13.5465 8.60012 13.1796 8.96908 13.1796 9.42073V9.88581C12.1823 10.2289 11.4599 11.1674 11.4599 12.2794C11.4599 13.6819 12.5988 14.8208 14.0002 14.8208C14.4963 14.8208 14.9015 15.226 14.9015 15.7221C14.9015 16.2192 14.4963 16.6233 14.0002 16.6233C13.5041 16.6233 13.1 16.2192 13.1 15.7221C13.1 15.2694 12.7321 14.9015 12.2794 14.9015C11.8257 14.9015 11.4599 15.2694 11.4599 15.7221C11.4599 16.8341 12.1823 17.7715 13.1796 18.1147V18.5797C13.1796 19.0335 13.5465 19.4014 14.0002 19.4014C14.4529 19.4014 14.8198 19.0335 14.8198 18.5797V18.1147C15.8172 17.7715 16.5416 16.8341 16.5416 15.7221C16.5416 14.3206 15.4017 13.1807 14.0002 13.1807C13.5041 13.1807 13.1 12.7766 13.1 12.2794C13.1 11.7833 13.5041 11.3792 14.0002 11.3792ZM20.8721 18.5549C21.2741 18.7668 21.7692 18.6128 21.98 18.2139C22.6621 16.9251 23.0218 15.4678 23.0218 14.0002C23.0218 9.02696 18.9735 4.97971 14.0002 4.97971C9.02593 4.97971 4.97868 9.02696 4.97868 14.0002C4.97868 18.9745 9.02593 23.0218 14.0002 23.0218C15.4461 23.0218 16.8827 22.6725 18.155 22.01C18.557 21.8022 18.7131 21.3051 18.5043 20.9041C18.2955 20.5041 17.8005 20.345 17.3974 20.5548C16.3442 21.1046 15.2001 21.3826 14.0002 21.3826C9.93025 21.3826 6.61783 18.0713 6.61783 14.0002C6.61783 9.93128 9.93025 6.61887 14.0002 6.61887C18.0702 6.61887 21.3826 9.93128 21.3826 14.0002C21.3826 15.2022 21.0871 16.3939 20.531 17.446C20.3181 17.847 20.4711 18.3431 20.8721 18.5549ZM14.0002 1.69727C11.6242 1.69727 9.31738 2.37732 7.32993 3.66198C6.94856 3.90796 6.84004 4.41541 7.08602 4.79575C7.33303 5.17608 7.83842 5.28356 8.22082 5.03965C9.94059 3.92759 11.9415 3.33849 14.0002 3.33849C19.8799 3.33849 24.662 8.1216 24.662 14.0002C24.662 19.8799 19.8799 24.663 14.0002 24.663C8.12057 24.663 3.33745 19.8799 3.33745 14.0002C3.33745 11.9611 3.91519 9.97779 5.00968 8.26732C5.25359 7.88492 5.14197 7.37747 4.75957 7.13356C4.3782 6.88965 3.87075 7.00127 3.62787 7.38263C2.36492 9.35768 1.69727 11.648 1.69727 14.0002C1.69727 20.7853 7.21521 26.3032 14.0002 26.3032C20.7842 26.3032 26.3032 20.7853 26.3032 14.0002C26.3032 7.21727 20.7842 1.69727 14.0002 1.69727Z" fill="#16DBCC"/>
</svg>
