<svg width="14" height="18" viewBox="0 0 14 18" fill="none" xmlns="http://www.w3.org/2000/svg">
<path d="M13.4991 4.28906V4.5H8.99913V0H9.21007C9.42101 0 9.63194 0.105469 9.80773 0.28125L13.2179 3.69141C13.3937 3.86719 13.4991 4.07812 13.4991 4.28906ZM8.71788 5.625H13.4991V17.1562C13.4991 17.6484 13.1124 18 12.6554 18H0.842882C0.350695 18 -0.000867844 17.6484 -0.000867844 17.1562V0.84375C-0.000867844 0.386719 0.350695 0 0.842882 0H7.87413V4.78125C7.87413 5.27344 8.22569 5.625 8.71788 5.625ZM3.93663 6.1875C3.02257 6.1875 2.24913 6.96094 2.24913 7.875C2.24913 8.82422 3.02257 9.5625 3.93663 9.5625C4.88585 9.5625 5.62413 8.82422 5.62413 7.875C5.62413 6.96094 4.88585 6.1875 3.93663 6.1875ZM11.2491 14.625V10.6875L9.87804 9.31641C9.70226 9.14062 9.42101 9.14062 9.28038 9.31641L5.62413 12.9375L4.25304 11.5664C4.07726 11.3906 3.83116 11.3906 3.65538 11.5312L2.28429 12.9375L2.24913 14.625H11.2491Z" fill="#9D9D9D"/>
</svg>
