<svg width="226" height="169" viewBox="0 0 226 169" fill="none" xmlns="http://www.w3.org/2000/svg">
<path d="M102.247 87.2502C102.247 85.0357 104.043 83.2405 106.257 83.2405C108.472 83.2405 110.267 85.0357 110.267 87.2502V168.535H102.247V87.2502Z" fill="#4049FF"/>
<path fill-rule="evenodd" clip-rule="evenodd" d="M115.733 72.8638C115.733 70.6493 117.528 68.8541 119.743 68.8541C121.957 68.8541 123.753 70.6493 123.753 72.8638V168.536H115.733V72.8638Z" fill="#FF9000"/>
<path fill-rule="evenodd" clip-rule="evenodd" d="M204.495 82.1128C204.495 79.8983 206.29 78.1031 208.505 78.1031C210.719 78.1031 212.514 79.8983 212.514 82.1128V168.536H204.495V82.1128Z" fill="#4049FF"/>
<path d="M217.981 64.6408C217.981 62.4263 219.776 60.6311 221.99 60.6311C224.205 60.6311 226 62.4263 226 64.6408V168.534H217.981V64.6408Z" fill="#FF9000"/>
<path fill-rule="evenodd" clip-rule="evenodd" d="M170.412 104.714C170.412 102.5 172.208 100.705 174.422 100.705C176.637 100.705 178.432 102.5 178.432 104.714V168.529H170.412V104.714Z" fill="#4049FF"/>
<path d="M183.898 90.3279C183.898 88.1134 185.693 86.3182 187.908 86.3182C190.122 86.3182 191.918 88.1135 191.918 90.328V168.53H183.898V90.3279Z" fill="#FF9000"/>
<path d="M34.0825 67.7225C34.0825 65.508 35.8777 63.7128 38.0922 63.7128C40.3067 63.7128 42.1019 65.508 42.1019 67.7225V168.532H34.0825V67.7225Z" fill="#4049FF"/>
<path fill-rule="evenodd" clip-rule="evenodd" d="M47.5682 48.1987C47.5682 45.9842 49.3634 44.189 51.5779 44.189C53.7924 44.189 55.5876 45.9842 55.5876 48.1987V168.534H47.5682V48.1987Z" fill="#FF9000"/>
<path d="M136.33 30.7267C136.33 28.5122 138.125 26.717 140.34 26.717C142.554 26.717 144.349 28.5122 144.349 30.7267V168.532H136.33V30.7267Z" fill="#4049FF"/>
<path fill-rule="evenodd" clip-rule="evenodd" d="M149.816 4.0097C149.816 1.7952 151.611 0 153.825 0C156.04 0 157.835 1.7952 157.835 4.0097V168.534H149.816V4.0097Z" fill="#FF9000"/>
<path fill-rule="evenodd" clip-rule="evenodd" d="M0 113.967C0 111.753 1.7952 109.957 4.0097 109.957C6.2242 109.957 8.0194 111.753 8.0194 113.967V168.533H0V113.967Z" fill="#4049FF"/>
<path d="M13.4858 86.2204C13.4858 84.0059 15.281 82.2107 17.4955 82.2107C19.71 82.2107 21.5052 84.0059 21.5052 86.2204V168.533H13.4858V86.2204Z" fill="#FF9000"/>
<path fill-rule="evenodd" clip-rule="evenodd" d="M68.1649 86.2204C68.1649 84.0059 69.9602 82.2107 72.1746 82.2107C74.3891 82.2107 76.1844 84.0059 76.1844 86.2204V168.533H68.1649V86.2204Z" fill="#4049FF"/>
<path fill-rule="evenodd" clip-rule="evenodd" d="M81.6507 58.4735C81.6507 56.259 83.4459 54.4638 85.6604 54.4638C87.8749 54.4638 89.6701 56.259 89.6701 58.4735V168.532H81.6507V58.4735Z" fill="#FF9000"/>
</svg>
