<svg width="40" height="40" viewBox="0 0 40 40" fill="none" xmlns="http://www.w3.org/2000/svg">
<path d="M39.9993 19.9996C39.9993 8.95424 31.045 0 19.9996 0C8.95424 0 0 8.95424 0 19.9996C0 29.3787 6.45748 37.2489 15.1685 39.4105V26.1115H11.0446V19.9996H15.1685V17.3661C15.1685 10.559 18.2493 7.40386 24.9323 7.40386C26.1995 7.40386 28.3859 7.65266 29.2803 7.90066V13.4406C28.8083 13.391 27.9883 13.3662 26.9699 13.3662C23.6908 13.3662 22.4236 14.6085 22.4236 17.8381V19.9996H28.9563L27.8339 26.1115H22.4236V39.8529C32.3266 38.6569 40.0001 30.225 40.0001 19.9996H39.9993Z" fill="#0866FF"/>
</svg>
