<svg width="14" height="11" viewBox="0 0 14 11" fill="none" xmlns="http://www.w3.org/2000/svg">
<path d="M12.6875 0C13.3984 0 14 0.601562 14 1.3125V9.1875C14 9.92578 13.3984 10.5 12.6875 10.5H1.3125C0.574219 10.5 0 9.92578 0 9.1875V1.3125C0 0.601562 0.574219 0 1.3125 0H12.6875ZM12.6875 1.3125H1.3125V2.43359C1.91406 2.95312 2.89844 3.71875 4.97656 5.35938C5.44141 5.71484 6.34375 6.58984 7 6.5625C7.62891 6.58984 8.53125 5.71484 8.99609 5.35938C11.0742 3.71875 12.0586 2.95312 12.6875 2.43359V1.3125ZM1.3125 9.1875H12.6875V4.12891C12.0586 4.62109 11.1562 5.33203 9.81641 6.39844C9.1875 6.86328 8.14844 7.90234 7 7.875C5.82422 7.90234 4.75781 6.86328 4.15625 6.39844C2.81641 5.33203 1.91406 4.62109 1.3125 4.12891V9.1875Z" fill="#D2D2D2"/>
</svg>
