<svg width="22" height="20" viewBox="0 0 22 20" fill="none" xmlns="http://www.w3.org/2000/svg">
<path fill-rule="evenodd" clip-rule="evenodd" d="M0 1C0 0.447715 0.447715 0 1 0H2.43845C3.81505 0 5.015 0.936892 5.34887 2.27239L5.53078 3H18.6027C20.8917 3 22.3336 5.45864 21.2234 7.45693L18.4457 12.4569C17.9166 13.4093 16.9127 14 15.8232 14H8.56155C7.18495 14 5.985 13.0631 5.65113 11.7276L3.40859 2.75746C3.2973 2.3123 2.89732 2 2.43845 2H1C0.447715 2 0 1.55228 0 1ZM6.03078 5L7.59141 11.2425C7.7027 11.6877 8.10268 12 8.56155 12H15.8232C16.1864 12 16.521 11.8031 16.6973 11.4856L19.4751 6.48564C19.8461 5.81781 19.3637 5 18.6027 5H6.03078Z" fill="#064E3B"/>
<path d="M9 18C9 19.1046 8.10457 20 7 20C5.89543 20 5 19.1046 5 18C5 16.8954 5.89543 16 7 16C8.10457 16 9 16.8954 9 18Z" fill="#064E3B"/>
<path d="M19 18C19 19.1046 18.1046 20 17 20C15.8954 20 15 19.1046 15 18C15 16.8954 15.8954 16 17 16C18.1046 16 19 16.8954 19 18Z" fill="#064E3B"/>
</svg>
