<svg width="28" height="28" viewBox="0 0 28 28" fill="none" xmlns="http://www.w3.org/2000/svg">
<path fill-rule="evenodd" clip-rule="evenodd" d="M14.8637 1.14741L18.8436 9.03229L26.5037 9.79116C26.8761 9.82211 27.1964 10.0668 27.3242 10.418C27.452 10.7691 27.3638 11.1624 27.0984 11.4255L20.7943 17.6737L23.1316 26.164C23.2293 26.5318 23.1021 26.9228 22.8067 27.1628C22.5113 27.4027 22.1026 27.4471 21.7625 27.2761L13.9966 23.4306L6.24138 27.2714C5.90134 27.4423 5.49264 27.398 5.19723 27.158C4.90181 26.918 4.77464 26.5271 4.87232 26.1592L7.20959 17.6689L0.900734 11.4207C0.635344 11.1577 0.547197 10.7643 0.674971 10.4132C0.802745 10.0621 1.1231 9.81735 1.49546 9.78641L9.15554 9.02754L13.1295 1.14741C13.2961 0.821957 13.631 0.617218 13.9966 0.617218C14.3622 0.617218 14.6971 0.821957 14.8637 1.14741Z" stroke="#D5D5D5" stroke-width="1.2" stroke-linecap="round" stroke-linejoin="round"/>
</svg>
