<svg width="159" height="173" viewBox="0 0 159 173" fill="none" xmlns="http://www.w3.org/2000/svg">
<path fill-rule="evenodd" clip-rule="evenodd" d="M158.999 86.0764C158.999 133.615 123.406 172.153 79.4997 172.153C35.5932 172.153 0 133.615 0 86.0764C0 38.5377 35.5932 0 79.4997 0C123.406 0 158.999 38.5377 158.999 86.0764ZM129.851 86.0783C129.851 116.186 107.308 140.593 79.501 140.593C51.6936 140.593 29.1512 116.186 29.1512 86.0783C29.1512 55.9704 51.6936 31.5632 79.501 31.5632C107.308 31.5632 129.851 55.9704 129.851 86.0783Z" fill="#E1E4E8"/>
<mask id="mask0_1581_9343" style="mask-type:luminance" maskUnits="userSpaceOnUse" x="0" y="0" width="159" height="173">
<path fill-rule="evenodd" clip-rule="evenodd" d="M158.999 86.0764C158.999 133.615 123.406 172.153 79.4997 172.153C35.5932 172.153 0 133.615 0 86.0764C0 38.5377 35.5932 0 79.4997 0C123.406 0 158.999 38.5377 158.999 86.0764ZM129.851 86.0783C129.851 116.186 107.308 140.593 79.501 140.593C51.6936 140.593 29.1512 116.186 29.1512 86.0783C29.1512 55.9704 51.6936 31.5632 79.501 31.5632C107.308 31.5632 129.851 55.9704 129.851 86.0783Z" fill="white"/>
</mask>
<g mask="url(#mask0_1581_9343)">
<mask id="mask1_1581_9343" style="mask-type:luminance" maskUnits="userSpaceOnUse" x="52" y="-14" width="118" height="202">
<path fill-rule="evenodd" clip-rule="evenodd" d="M79.5458 -13.0617L79.5018 86.0855L52.0047 187.925C52.0047 187.925 140.546 168.831 160.928 134.724C181.311 100.617 160.928 9.22143 160.928 9.22143L79.5458 -13.0617Z" fill="white"/>
</mask>
<g mask="url(#mask1_1581_9343)">
<rect x="-0.488545" y="-10.3884" width="158.999" height="185.571" fill="#1CCAB8"/>
</g>
<path opacity="0.3" fill-rule="evenodd" clip-rule="evenodd" d="M79.5025 146.337C110.237 146.337 135.152 119.361 135.152 86.0839C135.152 52.8068 110.237 25.8304 79.5025 25.8304C48.768 25.8304 23.8527 52.8068 23.8527 86.0839C23.8527 119.361 48.768 146.337 79.5025 146.337Z" fill="white"/>
</g>
</svg>
