<svg width="17" height="17" viewBox="0 0 17 17" fill="none" xmlns="http://www.w3.org/2000/svg">
<path fill-rule="evenodd" clip-rule="evenodd" d="M8.97903 0.935333L11.3133 5.57672L15.8061 6.02343C16.0245 6.04164 16.2124 6.18569 16.2873 6.39238C16.3622 6.59907 16.3105 6.83062 16.1549 6.98545L12.4574 10.6634L13.8283 15.6612C13.8856 15.8777 13.811 16.1078 13.6377 16.2491C13.4644 16.3904 13.2247 16.4165 13.0253 16.3158L8.47046 14.0522L3.92189 16.313C3.72246 16.4137 3.48275 16.3876 3.30948 16.2463C3.13622 16.105 3.06163 15.8749 3.11892 15.6584L4.48977 10.6606L0.789525 6.98265C0.633869 6.82782 0.58217 6.59627 0.657112 6.38958C0.732053 6.18289 0.919943 6.03884 1.13834 6.02062L5.63109 5.57392L7.96188 0.935333C8.05962 0.743757 8.25601 0.623239 8.47046 0.623239C8.68491 0.623239 8.8813 0.743757 8.97903 0.935333Z" stroke="#202224" stroke-width="1.2" stroke-linecap="round" stroke-linejoin="round"/>
</svg>
