<svg width="17" height="13" viewBox="0 0 17 13" fill="none" xmlns="http://www.w3.org/2000/svg">
<path d="M15.8438 8.9375C15.9622 8.9375 16.0553 8.97982 16.123 9.06445C16.2077 9.13216 16.25 9.22526 16.25 9.34375V10.1562C16.25 10.2747 16.2077 10.3763 16.123 10.4609C16.0553 10.5286 15.9622 10.5625 15.8438 10.5625H14.625C14.625 11.2396 14.388 11.8151 13.9141 12.2891C13.4401 12.763 12.8646 13 12.1875 13C11.5104 13 10.9349 12.763 10.4609 12.2891C9.98698 11.8151 9.75 11.2396 9.75 10.5625H6.5C6.5 11.2396 6.26302 11.8151 5.78906 12.2891C5.3151 12.763 4.73958 13 4.0625 13C3.38542 13 2.8099 12.763 2.33594 12.2891C1.86198 11.8151 1.625 11.2396 1.625 10.5625V7.3125H5.48438C5.61979 7.3125 5.6875 7.24479 5.6875 7.10938V6.70312C5.6875 6.56771 5.61979 6.5 5.48438 6.5H0.203125C0.0677083 6.5 0 6.43229 0 6.29688V5.89062C0 5.75521 0.0677083 5.6875 0.203125 5.6875H6.29688C6.43229 5.6875 6.5 5.61979 6.5 5.48438V5.07812C6.5 4.94271 6.43229 4.875 6.29688 4.875H1.01562C0.880208 4.875 0.8125 4.80729 0.8125 4.67188V4.26562C0.8125 4.13021 0.880208 4.0625 1.01562 4.0625H7.10938C7.24479 4.0625 7.3125 3.99479 7.3125 3.85938V3.45312C7.3125 3.31771 7.24479 3.25 7.10938 3.25H0.203125C0.0677083 3.25 0 3.18229 0 3.04688V2.64062C0 2.50521 0.0677083 2.4375 0.203125 2.4375H1.625V1.21875C1.625 0.880208 1.74349 0.592448 1.98047 0.355469C2.21745 0.11849 2.50521 0 2.84375 0H9.34375C9.68229 0 9.97005 0.11849 10.207 0.355469C10.444 0.592448 10.5625 0.880208 10.5625 1.21875V2.4375H11.6797C12.0182 2.4375 12.306 2.55599 12.543 2.79297L15.082 5.33203C15.319 5.56901 15.4375 5.85677 15.4375 6.19531V8.9375H15.8438ZM3.19922 11.4258C3.4362 11.6628 3.72396 11.7812 4.0625 11.7812C4.40104 11.7812 4.6888 11.6628 4.92578 11.4258C5.16276 11.1888 5.28125 10.901 5.28125 10.5625C5.28125 10.224 5.16276 9.9362 4.92578 9.69922C4.6888 9.46224 4.40104 9.34375 4.0625 9.34375C3.72396 9.34375 3.4362 9.46224 3.19922 9.69922C2.96224 9.9362 2.84375 10.224 2.84375 10.5625C2.84375 10.901 2.96224 11.1888 3.19922 11.4258ZM11.3242 11.4258C11.5612 11.6628 11.849 11.7812 12.1875 11.7812C12.526 11.7812 12.8138 11.6628 13.0508 11.4258C13.2878 11.1888 13.4062 10.901 13.4062 10.5625C13.4062 10.224 13.2878 9.9362 13.0508 9.69922C12.8138 9.46224 12.526 9.34375 12.1875 9.34375C11.849 9.34375 11.5612 9.46224 11.3242 9.69922C11.0872 9.9362 10.9688 10.224 10.9688 10.5625C10.9688 10.901 11.0872 11.1888 11.3242 11.4258ZM14.2188 6.5V6.19531L11.6797 3.65625H10.5625V6.5H14.2188Z" fill="white"/>
</svg>
