<svg width="9" height="9" viewBox="0 0 9 9" fill="none" xmlns="http://www.w3.org/2000/svg">
<path fill-rule="evenodd" clip-rule="evenodd" d="M4.50036 3.59115L7.9032 0.188304C8.15428 -0.0627678 8.56134 -0.0627678 8.81241 0.188304C9.06349 0.439375 9.06349 0.846442 8.81241 1.09751L5.40957 4.50036L8.81241 7.9032C9.06349 8.15428 9.06349 8.56134 8.81241 8.81241C8.56134 9.06349 8.15428 9.06349 7.9032 8.81241L4.50036 5.40957L1.09751 8.81241C0.846442 9.06349 0.439375 9.06349 0.188304 8.81241C-0.0627678 8.56134 -0.0627678 8.15428 0.188304 7.9032L3.59115 4.50036L0.188304 1.09751C-0.0627678 0.846442 -0.0627678 0.439375 0.188304 0.188304C0.439375 -0.0627678 0.846442 -0.0627678 1.09751 0.188304L4.50036 3.59115Z" fill="#F4F4F4"/>
<mask id="mask0_1324_20467" style="mask-type:luminance" maskUnits="userSpaceOnUse" x="0" y="0" width="9" height="9">
<path fill-rule="evenodd" clip-rule="evenodd" d="M4.50036 3.59115L7.9032 0.188304C8.15428 -0.0627678 8.56134 -0.0627678 8.81241 0.188304C9.06349 0.439375 9.06349 0.846442 8.81241 1.09751L5.40957 4.50036L8.81241 7.9032C9.06349 8.15428 9.06349 8.56134 8.81241 8.81241C8.56134 9.06349 8.15428 9.06349 7.9032 8.81241L4.50036 5.40957L1.09751 8.81241C0.846442 9.06349 0.439375 9.06349 0.188304 8.81241C-0.0627678 8.56134 -0.0627678 8.15428 0.188304 7.9032L3.59115 4.50036L0.188304 1.09751C-0.0627678 0.846442 -0.0627678 0.439375 0.188304 0.188304C0.439375 -0.0627678 0.846442 -0.0627678 1.09751 0.188304L4.50036 3.59115Z" fill="white"/>
</mask>
<g mask="url(#mask0_1324_20467)">
</g>
</svg>
