<svg width="15" height="13" viewBox="0 0 15 13" fill="none" xmlns="http://www.w3.org/2000/svg">
<path d="M13.3735 1.00664C14.2747 1.7736 14.754 2.75147 14.8115 3.94027C14.8691 5.12906 14.4856 6.13569 13.6611 6.96018L8.11021 12.7124C7.91847 12.9041 7.69797 13 7.4487 13C7.19944 13 6.97894 12.9041 6.7872 12.7124L1.23631 6.96018C0.411831 6.13569 0.0283503 5.12906 0.0858724 3.94027C0.143395 2.75147 0.622746 1.7736 1.52393 1.00664C2.31006 0.335546 3.21124 0.0479351 4.22747 0.143805C5.26286 0.220501 6.14487 0.632743 6.87348 1.38053L7.4487 1.95575L8.02393 1.38053C8.75254 0.632743 9.62496 0.220501 10.6412 0.143805C11.6766 0.0479351 12.5873 0.335546 13.3735 1.00664Z" fill="#999999"/>
</svg>
