<svg width="112" height="36" viewBox="0 0 112 36" fill="none" xmlns="http://www.w3.org/2000/svg">
<g opacity="0.15">
<mask id="mask0_1324_21083" style="mask-type:luminance" maskUnits="userSpaceOnUse" x="0" y="0" width="112" height="36">
<path fill-rule="evenodd" clip-rule="evenodd" d="M0 0H112V36H0V0Z" fill="white"/>
</mask>
<g mask="url(#mask0_1324_21083)">
<path fill-rule="evenodd" clip-rule="evenodd" d="M-143.942 72L112 31.1687V31L-145 72H-143.942Z" fill="white"/>
<path fill-rule="evenodd" clip-rule="evenodd" d="M-121.945 72L112 35.1661V35L-123 72H-121.945Z" fill="white"/>
<path fill-rule="evenodd" clip-rule="evenodd" d="M-164.944 72L112 28.1672V28L-166 72H-164.944Z" fill="white"/>
<path fill-rule="evenodd" clip-rule="evenodd" d="M-185.945 72L112 24.1694V24L-187 72H-185.945Z" fill="white"/>
<path fill-rule="evenodd" clip-rule="evenodd" d="M-207.943 72L112 21.168V21L-209 72H-207.943Z" fill="white"/>
<path fill-rule="evenodd" clip-rule="evenodd" d="M-228.944 72L112 17.1699V17L-230 72H-228.944Z" fill="white"/>
<path fill-rule="evenodd" clip-rule="evenodd" d="M-249.945 72L112 14.1686V14L-251 72H-249.945Z" fill="white"/>
<path fill-rule="evenodd" clip-rule="evenodd" d="M-271.943 72L112 10.1702V10L-273 72H-271.943Z" fill="white"/>
<path fill-rule="evenodd" clip-rule="evenodd" d="M-292.944 72L112 7.16915V7L-294 72H-292.944Z" fill="white"/>
<path fill-rule="evenodd" clip-rule="evenodd" d="M-313.944 72L112 3.17053V3L-315 72H-313.944Z" fill="white"/>
<path fill-rule="evenodd" clip-rule="evenodd" d="M112 0H111.474L-336 71.9154V72H-335.472L112 0.08484V0Z" fill="white"/>
<path fill-rule="evenodd" clip-rule="evenodd" d="M89.9477 0L-336 68.83V69L91 0H89.9477Z" fill="white"/>
<path fill-rule="evenodd" clip-rule="evenodd" d="M68.9468 0L-336 64.8314V65L70 0H68.9468Z" fill="white"/>
<path fill-rule="evenodd" clip-rule="evenodd" d="M47.9459 0L-336 61.8302V62L49 0H47.9459Z" fill="white"/>
<path fill-rule="evenodd" clip-rule="evenodd" d="M25.9452 0L-336 57.8314V58L27 0H25.9452Z" fill="white"/>
<path fill-rule="evenodd" clip-rule="evenodd" d="M4.94379 0L-336 54.8301V55L6 0H4.94379Z" fill="white"/>
</g>
</g>
</svg>
