<svg width="28" height="28" viewBox="0 0 28 28" fill="none" xmlns="http://www.w3.org/2000/svg">
<path d="M18.6452 24.6091H5.67984C4.9859 24.6084 4.32059 24.3324 3.8299 23.8417C3.33921 23.351 3.06322 22.6857 3.0625 21.9918V14.2541C3.06322 13.5601 3.33921 12.8948 3.8299 12.4041C4.32059 11.9134 4.9859 11.6374 5.67984 11.6367H18.6452C19.3391 11.6374 20.0044 11.9134 20.4951 12.4041C20.9858 12.8948 21.2618 13.5601 21.2625 14.2541V21.9918C21.2618 22.6857 20.9858 23.351 20.4951 23.8417C20.0044 24.3324 19.3391 24.6084 18.6452 24.6091ZM5.67984 13.2773C5.42089 13.2776 5.17263 13.3806 4.98952 13.5637C4.80641 13.7468 4.70341 13.9951 4.70312 14.2541V21.9918C4.70341 22.2508 4.80641 22.499 4.98952 22.6821C5.17263 22.8652 5.42089 22.9682 5.67984 22.9685H18.6452C18.9041 22.9682 19.1524 22.8652 19.3355 22.6821C19.5186 22.499 19.6216 22.2508 19.6219 21.9918V14.2541C19.6216 13.9951 19.5186 13.7468 19.3355 13.5637C19.1524 13.3806 18.9041 13.2776 18.6452 13.2773H5.67984Z" fill="#FFBB38"/>
<path d="M22.3209 20.1917H20.4419C20.2243 20.1917 20.0157 20.1053 19.8618 19.9515C19.708 19.7976 19.6216 19.589 19.6216 19.3714C19.6216 19.1538 19.708 18.9452 19.8618 18.7914C20.0157 18.6375 20.2243 18.5511 20.4419 18.5511H22.3209C22.5797 18.5505 22.8277 18.4474 23.0106 18.2643C23.1934 18.0812 23.2963 17.8331 23.2966 17.5744V9.83664C23.2964 9.57778 23.1936 9.32954 23.0107 9.14635C22.8279 8.96315 22.5798 8.85995 22.3209 8.85938H9.35563C9.09667 8.85966 8.84841 8.96266 8.6653 9.14577C8.48219 9.32888 8.3792 9.57714 8.37891 9.83609V12.4567C8.37891 12.6743 8.29248 12.8829 8.13864 13.0368C7.9848 13.1906 7.77615 13.277 7.55859 13.277C7.34103 13.277 7.13238 13.1906 6.97855 13.0368C6.82471 12.8829 6.73828 12.6743 6.73828 12.4567V9.83664C6.73886 9.1426 7.01478 8.47715 7.50549 7.98635C7.9962 7.49554 8.66159 7.21947 9.35563 7.21875H22.3209C23.0148 7.21976 23.6799 7.49595 24.1704 7.98673C24.6608 8.47751 24.9366 9.14279 24.9372 9.83664V17.5744C24.9365 18.2681 24.6606 18.9333 24.1702 19.4239C23.6797 19.9146 23.0147 20.1907 22.3209 20.1917Z" fill="#FFBB38"/>
<path d="M20.4422 18.7464H3.88281C3.66525 18.7464 3.4566 18.6599 3.30276 18.5061C3.14893 18.3523 3.0625 18.1436 3.0625 17.9261V15.1709C3.0625 14.9533 3.14893 14.7447 3.30276 14.5909C3.4566 14.437 3.66525 14.3506 3.88281 14.3506H20.4422C20.6597 14.3506 20.8684 14.437 21.0222 14.5909C21.1761 14.7447 21.2625 14.9533 21.2625 15.1709V17.9261C21.2625 18.1436 21.1761 18.3523 21.0222 18.5061C20.8684 18.6599 20.6597 18.7464 20.4422 18.7464ZM4.70312 17.1057H19.6219V15.9912H4.70312V17.1057Z" fill="#FFBB38"/>
</svg>
