<svg width="17" height="17" viewBox="0 0 17 17" fill="none" xmlns="http://www.w3.org/2000/svg">
<path d="M8.47122 13.2263C8.32673 13.2263 8.20961 13.3438 8.20961 13.4888C8.20961 13.6339 8.32673 13.7514 8.47122 13.7514C8.6157 13.7514 8.73283 13.6339 8.73283 13.4888C8.73283 13.3438 8.6157 13.2263 8.47122 13.2263V13.2263" stroke="black" stroke-width="1.2" stroke-linecap="round" stroke-linejoin="round"/>
<path d="M8.47122 11.1253V5.87407" stroke="black" stroke-width="1.2" stroke-linecap="round"/>
<path fill-rule="evenodd" clip-rule="evenodd" d="M9.60247 1.33024C9.39066 0.897455 8.95204 0.623239 8.47161 0.623239C7.99118 0.623239 7.55256 0.897455 7.34075 1.33024L0.732077 14.842C0.570348 15.1722 0.589901 15.5628 0.783791 15.875C0.977681 16.1873 1.31844 16.377 1.68504 16.3768H15.2582C15.6248 16.377 15.9655 16.1873 16.1594 15.875C16.3533 15.5628 16.3729 15.1722 16.2111 14.842L9.60247 1.33024Z" stroke="black" stroke-width="1.2" stroke-linecap="round" stroke-linejoin="round"/>
</svg>
