<svg width="40" height="40" viewBox="0 0 40 40" fill="none" xmlns="http://www.w3.org/2000/svg">
<g clip-path="url(#clip0_1262_4863)">
<path d="M40 20C40 8.9544 31.0456 0 20 0C8.9544 0 0 8.9544 0 20C0 29.3792 6.4576 37.2496 15.1688 39.4112V26.112H11.0448V20H15.1688V17.3664C15.1688 10.5592 18.2496 7.404 24.9328 7.404C26.2 7.404 28.3864 7.6528 29.2808 7.9008V13.4408C28.8088 13.3912 27.9888 13.3664 26.9704 13.3664C23.6912 13.3664 22.424 14.6088 22.424 17.8384V20H28.9568L27.8344 26.112H22.424V39.8536C32.3272 38.6576 40.0008 30.2256 40.0008 20H40Z" fill="#0866FF"/>
<path d="M27.8335 26.1118L28.9559 19.9998H22.4231V17.8382C22.4231 14.6086 23.6903 13.3662 26.9695 13.3662C27.9879 13.3662 28.8079 13.391 29.2799 13.4406V7.90061C28.3855 7.65181 26.1991 7.40381 24.9319 7.40381C18.2487 7.40381 15.1679 10.559 15.1679 17.3662V19.9998H11.0439V26.1118H15.1679V39.411C16.7151 39.795 18.3335 39.9998 19.9991 39.9998C20.8191 39.9998 21.6279 39.9494 22.4223 39.8534V26.1118H27.8327H27.8335Z" fill="white"/>
</g>
<defs>
<clipPath id="clip0_1262_4863">
<rect width="40" height="40" fill="white"/>
</clipPath>
</defs>
</svg>
