<svg width="17" height="17" viewBox="0 0 17 17" fill="none" xmlns="http://www.w3.org/2000/svg">
<path d="M8.49932 13.2228C8.35442 13.2228 8.23696 13.3403 8.23696 13.4851C8.23696 13.63 8.35442 13.7475 8.49932 13.7475C8.64421 13.7475 8.76168 13.63 8.76168 13.4851C8.76168 13.3403 8.64421 13.2228 8.49932 13.2228V13.2228" stroke="white" stroke-width="1.2" stroke-linecap="round" stroke-linejoin="round"/>
<path d="M8.49932 11.1236V5.87642" stroke="white" stroke-width="1.2" stroke-linecap="round"/>
<path fill-rule="evenodd" clip-rule="evenodd" d="M9.6341 1.3357C9.42168 0.903254 8.98181 0.62925 8.50001 0.62925C8.01821 0.62925 7.57834 0.903254 7.36592 1.3357L0.738399 14.837C0.576208 15.167 0.595817 15.5572 0.79026 15.8693C0.984704 16.1813 1.32643 16.3708 1.69408 16.3706H15.3059C15.6736 16.3708 16.0153 16.1813 16.2098 15.8693C16.4042 15.5572 16.4238 15.167 16.2616 14.837L9.6341 1.3357Z" stroke="white" stroke-width="1.2" stroke-linecap="round" stroke-linejoin="round"/>
</svg>
