<svg width="18" height="18" viewBox="0 0 18 18" fill="none" xmlns="http://www.w3.org/2000/svg">
<path fill-rule="evenodd" clip-rule="evenodd" d="M9.54019 0.959148L12.0301 5.892L16.8223 6.36675C17.0552 6.38611 17.2556 6.53921 17.3356 6.75888C17.4155 6.97854 17.3604 7.22464 17.1943 7.38919L13.2504 11.2981L14.7126 16.6097C14.7738 16.8399 14.6942 17.0844 14.5094 17.2346C14.3246 17.3847 14.0689 17.4125 13.8562 17.3055L8.99772 14.8997L4.14598 17.3025C3.93325 17.4095 3.67756 17.3817 3.49275 17.2316C3.30793 17.0815 3.22837 16.8369 3.28948 16.6068L4.7517 11.2951L0.804825 7.38621C0.638795 7.22166 0.58365 6.97557 0.663586 6.7559C0.743523 6.53624 0.943936 6.38314 1.17689 6.36378L5.9691 5.88902L8.45524 0.959148C8.55949 0.755542 8.76897 0.627455 8.99772 0.627455C9.22646 0.627455 9.43594 0.755542 9.54019 0.959148Z" stroke="#B3B3B3" stroke-width="1.2" stroke-linecap="round" stroke-linejoin="round"/>
</svg>
