<svg width="155" height="155" viewBox="0 0 155 155" fill="none" xmlns="http://www.w3.org/2000/svg">
<path fill-rule="evenodd" clip-rule="evenodd" d="M77.5 155C120.302 155 155 120.302 155 77.5C155 34.6979 120.302 0 77.5 0C34.6979 0 0 34.6979 0 77.5C0 120.302 34.6979 155 77.5 155Z" fill="#E9EFFC"/>
<mask id="mask0_1324_20042" style="mask-type:luminance" maskUnits="userSpaceOnUse" x="0" y="0" width="155" height="155">
<path fill-rule="evenodd" clip-rule="evenodd" d="M77.5 155C120.302 155 155 120.302 155 77.5C155 34.6979 120.302 0 77.5 0C34.6979 0 0 34.6979 0 77.5C0 120.302 34.6979 155 77.5 155Z" fill="white"/>
</mask>
<g mask="url(#mask0_1324_20042)">
<path fill-rule="evenodd" clip-rule="evenodd" d="M77 0H157V155L77 85" fill="#FF8743"/>
</g>
</svg>
