<svg width="17" height="17" viewBox="0 0 17 17" fill="none" xmlns="http://www.w3.org/2000/svg">
<path fill-rule="evenodd" clip-rule="evenodd" d="M9.00779 0.940989L11.3484 5.57823L15.8535 6.02453C16.0725 6.04273 16.2609 6.18665 16.336 6.39316C16.4112 6.59966 16.3593 6.83101 16.2032 6.9857L12.4957 10.6604L13.8703 15.6537C13.9277 15.87 13.8529 16.0999 13.6792 16.2411C13.5055 16.3822 13.2651 16.4083 13.0651 16.3077L8.49783 14.0461L3.93684 16.3049C3.73686 16.4055 3.49649 16.3794 3.32276 16.2383C3.14902 16.0971 3.07422 15.8672 3.13167 15.6509L4.50626 10.6576L0.795915 6.9829C0.639834 6.82821 0.587994 6.59686 0.66314 6.39036C0.738286 6.18386 0.926689 6.03993 1.14568 6.02173L5.65071 5.57543L7.98786 0.940989C8.08586 0.749585 8.28279 0.629174 8.49783 0.629174C8.71286 0.629174 8.90979 0.749585 9.00779 0.940989Z" stroke="white" stroke-width="1.2" stroke-linecap="round" stroke-linejoin="round"/>
</svg>
