<svg width="17" height="17" viewBox="0 0 17 17" fill="none" xmlns="http://www.w3.org/2000/svg">
<path fill-rule="evenodd" clip-rule="evenodd" d="M12.1569 12.7034C12.7357 12.7034 13.2049 12.2342 13.2049 11.6554C13.2049 11.0766 12.7357 10.6073 12.1569 10.6073C11.5781 10.6073 11.1089 11.0766 11.1089 11.6554C11.1089 12.2342 11.5781 12.7034 12.1569 12.7034Z" stroke="#202224" stroke-width="1.2" stroke-linecap="round" stroke-linejoin="round"/>
<path fill-rule="evenodd" clip-rule="evenodd" d="M13.047 7.60273L13.3559 8.61793C13.4616 8.96757 13.8201 9.17554 14.1761 9.09375L15.2046 8.85549C15.6049 8.76466 16.0177 8.9456 16.2221 9.30155C16.4266 9.65749 16.3749 10.1052 16.0947 10.4052L15.3751 11.1814C15.1257 11.4496 15.1257 11.8649 15.3751 12.1331L16.0947 12.9093C16.3749 13.2093 16.4266 13.657 16.2221 14.013C16.0177 14.3689 15.6049 14.5499 15.2046 14.459L14.1761 14.2208C13.8201 14.139 13.4616 14.3469 13.3559 14.6966L13.047 15.7076C12.9292 16.1008 12.5674 16.3701 12.1569 16.3701C11.7464 16.3701 11.3846 16.1008 11.2668 15.7076L10.9572 14.6924C10.8518 14.3429 10.4935 14.1348 10.1377 14.2166L9.10849 14.4548C8.70818 14.5457 8.29545 14.3647 8.09099 14.0088C7.88654 13.6528 7.9382 13.2052 8.21835 12.9051L8.93801 12.1289C9.18741 11.8607 9.18741 11.4454 8.93801 11.1773L8.21835 10.401C7.9382 10.101 7.88654 9.6533 8.09099 9.29735C8.29545 8.94141 8.70818 8.76047 9.10849 8.8513L10.1377 9.08955C10.4935 9.17129 10.8518 8.96328 10.9572 8.61374L11.2668 7.59854C11.3855 7.20564 11.748 6.93721 12.1585 6.93817C12.5689 6.93914 12.9301 7.20928 13.047 7.60273Z" stroke="white" stroke-width="1.2" stroke-linecap="round" stroke-linejoin="round"/>
<path d="M16.2694 6.90433C15.8378 3.95093 13.66 1.55341 10.7615 0.840887C7.86306 0.128363 4.82185 1.24289 3.07016 3.65959C1.31848 6.07629 1.20556 9.31332 2.78459 11.8462L0.628417 16.3717L5.15177 14.2169C5.38994 14.365 5.63627 14.4996 5.88959 14.62" stroke="white" stroke-width="1.2" stroke-linecap="round" stroke-linejoin="round"/>
</svg>
