<svg width="25" height="25" viewBox="0 0 25 25" fill="none" xmlns="http://www.w3.org/2000/svg">
<path d="M24.3279 10.792C24.3273 10.7914 24.3267 10.7908 24.3261 10.7903L14.1273 0.669364C13.6926 0.237761 13.1146 0 12.4999 0C11.8851 0 11.3071 0.237571 10.8722 0.669175L0.678713 10.785C0.67528 10.7884 0.671846 10.792 0.668413 10.7954C-0.224296 11.6864 -0.22277 13.1321 0.6728 14.0209C1.08196 14.4271 1.62235 14.6624 2.20013 14.687C2.2236 14.6893 2.24725 14.6904 2.27109 14.6904H2.67758V22.1388C2.67758 23.6127 3.88598 24.8119 5.37154 24.8119H9.36164C9.76603 24.8119 10.0941 24.4865 10.0941 24.085V18.2455C10.0941 17.5729 10.6454 17.0258 11.3231 17.0258H13.6766C14.3543 17.0258 14.9056 17.5729 14.9056 18.2455V24.085C14.9056 24.4865 15.2335 24.8119 15.6381 24.8119H19.6282C21.1137 24.8119 22.3221 23.6127 22.3221 22.1388V14.6904H22.6991C23.3136 14.6904 23.8916 14.4529 24.3267 14.0212C25.2232 13.131 25.2236 11.6828 24.3279 10.792Z" fill="#2D60FF"/>
</svg>
