<svg width="390" height="297" viewBox="0 0 390 297" fill="none" xmlns="http://www.w3.org/2000/svg">
<path d="M376.598 0H13.4024C6.00082 0 0 6.00152 0 13.4057V283.519C0 290.923 6.00082 296.925 13.4024 296.925H376.597C383.999 296.925 389.999 290.923 389.999 283.519V13.4057C390 6.00152 383.999 0 376.598 0Z" fill="#1685FB"/>
<path d="M389.998 283.515V13.4065C389.998 5.99695 383.995 0 376.595 0H355.016C362.416 0 368.419 5.99695 368.419 13.4065V283.514C368.419 290.923 362.416 296.92 355.016 296.92H376.595C383.995 296.92 389.998 290.924 389.998 283.515Z" fill="#4C60E1"/>
<path d="M390 58.0518V13.4065C390 5.99695 383.997 0 376.597 0H13.4032C6.00311 0.000761905 0 5.99771 0 13.4065V58.0518H390Z" fill="#E3F4FF"/>
<path d="M389.998 58.0518V13.4065C389.998 5.99695 383.995 0 376.595 0H355.016C362.416 0 368.419 5.99695 368.419 13.4065V58.0518H389.998Z" fill="#BDDFF4"/>
<path d="M75.416 34.8589H75.3421C72.0918 34.8589 69.457 32.2235 69.457 28.9724C69.457 25.7214 72.0918 23.0859 75.3421 23.0859C78.5923 23.0859 81.2644 25.7214 81.2644 28.9724C81.2644 32.2235 78.6662 34.8589 75.416 34.8589Z" fill="#54DDAC"/>
<path d="M56.1299 34.9149C52.9079 34.9149 50.2799 32.3198 50.2464 29.0893C50.2122 25.8383 52.8195 23.1754 56.0698 23.1412C59.285 23.0977 62.0188 25.7149 62.0531 28.9659C62.0873 32.2177 59.5165 34.8798 56.2663 34.9141L56.1924 34.9149C56.1718 34.9149 56.1505 34.9149 56.1299 34.9149Z" fill="#FDC142"/>
<path d="M36.9229 34.969C33.7008 34.969 31.0721 32.374 31.0394 29.1435C31.0059 25.8917 33.6132 23.2288 36.8635 23.1953C36.884 23.1953 36.9054 23.1953 36.9252 23.1953C40.148 23.1953 42.8125 25.7904 42.846 29.0208C42.8795 32.2719 40.3095 34.9347 37.0585 34.9683L36.9846 34.969C36.9648 34.969 36.9435 34.969 36.9229 34.969Z" fill="#FC3E81"/>
<path d="M131.661 34.9722H111.237C107.986 34.9722 105.352 32.3367 105.352 29.0857C105.352 25.8346 107.986 23.1992 111.237 23.1992H131.661C134.911 23.1992 137.546 25.8346 137.546 29.0857C137.546 32.3367 134.911 34.9722 131.661 34.9722Z" fill="#BDDFF4"/>
<path d="M126.66 141.482H121.554V134.528C121.554 128.729 116.848 124.029 111.042 124.029C105.237 124.029 100.53 128.729 100.53 134.528V141.482H75.9999L93.6639 111.617C96.6163 106.624 94.9576 100.187 89.9588 97.2383C84.9599 94.289 78.5142 95.9463 75.5618 100.938L48.531 146.641C46.6117 149.887 46.582 153.911 48.4525 157.185C50.3237 160.458 53.8079 162.479 57.5824 162.479H100.531V194.118C100.531 199.916 105.237 204.616 111.043 204.616C116.849 204.616 121.555 199.916 121.555 194.118V162.479H126.661C132.466 162.479 137.173 157.779 137.173 151.981C137.172 146.182 132.465 141.482 126.66 141.482Z" fill="#FD9E28"/>
<path d="M332.422 141.482H327.317V134.528C327.317 128.729 322.61 124.029 316.805 124.029C310.999 124.029 306.293 128.729 306.293 134.528V141.482H281.762L299.426 111.617C302.378 106.624 300.719 100.187 295.721 97.2383C290.722 94.289 284.276 95.9463 281.324 100.938L254.293 146.641C252.373 149.887 252.344 153.911 254.214 157.185C256.085 160.458 259.57 162.479 263.344 162.479H306.293V194.118C306.293 199.916 310.999 204.616 316.805 204.616C322.61 204.616 327.317 199.916 327.317 194.118V162.479H332.422C338.228 162.479 342.934 157.779 342.934 151.981C342.934 146.182 338.228 141.482 332.422 141.482Z" fill="#FD9E28"/>
<path fill-rule="evenodd" clip-rule="evenodd" d="M181.551 204.615H208.453C221.762 204.615 232.59 193.802 232.59 180.51V119.883C232.59 106.591 221.762 95.7773 208.453 95.7773H181.551C168.242 95.7773 157.414 106.591 157.414 119.883V180.51C157.414 193.801 168.242 204.615 181.551 204.615ZM180.37 124.035C180.37 121.096 182.765 118.704 185.707 118.704H204.296C207.239 118.704 209.633 121.096 209.633 124.035V176.358C209.633 179.297 207.239 181.688 204.296 181.688H185.707C182.765 181.688 180.37 179.297 180.37 176.358V124.035Z" fill="#FD9E28"/>
<path d="M283.274 272.469C280.011 272.469 277.328 269.823 277.328 266.56C277.328 263.297 279.936 260.652 283.199 260.652H283.274C286.537 260.652 289.182 263.297 289.182 266.56C289.182 269.823 286.537 272.469 283.274 272.469Z" fill="#E3F4FF"/>
<path d="M302.841 272.523C299.578 272.523 296.895 269.878 296.895 266.615C296.895 263.352 299.502 260.707 302.766 260.707H302.841C306.104 260.707 308.749 263.352 308.749 266.615C308.749 269.878 306.104 272.523 302.841 272.523Z" fill="#E3F4FF"/>
<path d="M322.408 272.583C322.388 272.583 322.367 272.583 322.346 272.583C319.083 272.55 316.428 269.877 316.461 266.614C316.495 263.372 319.096 260.766 322.331 260.766C322.352 260.766 322.372 260.766 322.393 260.766L322.468 260.766C325.731 260.8 328.349 263.472 328.315 266.736C328.282 269.977 325.642 272.583 322.408 272.583Z" fill="#E3F4FF"/>
<path d="M69.8387 248.205H50.2714C47.0084 248.205 44.3633 245.583 44.3633 242.349C44.3633 239.114 47.0084 236.492 50.2714 236.492H69.8387C73.1017 236.492 75.7468 239.114 75.7468 242.349C75.7468 245.583 73.1017 248.205 69.8387 248.205Z" fill="#E3F4FF"/>
<path d="M89.406 272.529H50.2714C47.0084 272.529 44.3633 269.907 44.3633 266.673C44.3633 263.438 47.0084 260.816 50.2714 260.816H89.406C92.669 260.816 95.3141 263.438 95.3141 266.673C95.3141 269.907 92.669 272.529 89.406 272.529Z" fill="#E3F4FF"/>
</svg>
