<svg width="200" height="152" viewBox="0 0 200 152" fill="none" xmlns="http://www.w3.org/2000/svg">
<path fill-rule="evenodd" clip-rule="evenodd" d="M191.516 71.344C191.516 69.001 193.415 67.1016 195.758 67.1016C198.101 67.1016 200 69.001 200 71.344V151.599H191.516V71.344Z" fill="#5286F8"/>
<path fill-rule="evenodd" clip-rule="evenodd" d="M163.637 87.5002C163.637 85.1572 165.536 83.2578 167.879 83.2578C170.222 83.2578 172.122 85.1572 172.122 87.5002V151.602H163.637V87.5002Z" fill="#5286F8"/>
<path fill-rule="evenodd" clip-rule="evenodd" d="M130.91 56.4338C130.91 54.0908 132.81 52.1914 135.153 52.1914C137.496 52.1914 139.395 54.0908 139.395 56.4338V151.601H130.91V56.4338Z" fill="#5286F8"/>
<path fill-rule="evenodd" clip-rule="evenodd" d="M98.1836 30.3362C98.1836 27.9931 100.083 26.0938 102.426 26.0938C104.769 26.0938 106.668 27.9931 106.668 30.3362V151.598H98.1836V30.3362Z" fill="#5286F8"/>
<path fill-rule="evenodd" clip-rule="evenodd" d="M65.4531 97.4377C65.4531 95.0947 67.3525 93.1953 69.6955 93.1953C72.0386 93.1953 73.938 95.0947 73.938 97.4377V151.598H65.4531V97.4377Z" fill="#5286F8"/>
<path fill-rule="evenodd" clip-rule="evenodd" d="M32.7266 76.3127C32.7266 73.9697 34.626 72.0703 36.969 72.0703C39.312 72.0703 41.2114 73.9697 41.2114 76.3127V151.598H32.7266V76.3127Z" fill="#5286F8"/>
<path fill-rule="evenodd" clip-rule="evenodd" d="M0 4.24243C0 1.89941 1.8994 0 4.24242 0C6.58545 0 8.48485 1.8994 8.48485 4.24242V151.599H0V4.24243Z" fill="#5286F8"/>
</svg>
